<svg xmlns="http://www.w3.org/2000/svg" viewBox="0 0 64 64"><path fill="#F9F7E4" d="M34.5 33c0-1.4-1.1-2.5-2.5-2.5s-2.5 1.1-2.5 2.5 1.1 2.5 2.5 2.5 2.5-1.1 2.5-2.5zm-22.7 0c0-5.6 2.3-10.6 5.9-14.3 3.6-3.6 8.7-5.9 14.3-5.9s10.6 2.3 14.3 5.9c3.6 3.6 5.9 8.7 5.9 14.3s-2.3 10.6-5.9 14.3c-3.6 3.6-8.7 5.9-14.3 5.9s-10.6-2.3-14.3-5.9c-3.6-3.7-5.9-8.7-5.9-14.3z"/><circle fill="#FCDA4F" cx="32" cy="33" r="2.5"/><path fill="#98A6B7" d="M59.9 5.1C64 9.2 64 15.9 59.9 20L45 5.1C49.1 1 55.8 1 59.9 5.1zM12 48c1.4 1.9 3.1 3.6 5 5L6 62l6-14z"/><path fill="#519AF2" d="M32 8c13.8 0 25 11.2 25 25 0 5.6-1.9 10.8-5 15-1.4 1.9-3.1 3.6-5 5-4.2 3.1-9.4 5-15 5s-10.8-1.9-15-5c-1.9-1.4-3.6-3.1-5-5-3.1-4.2-5-9.4-5-15C7 19.2 18.2 8 32 8zM17.7 47.3c3.6 3.6 8.7 5.9 14.3 5.9s10.6-2.3 14.3-5.9c3.6-3.6 5.9-8.7 5.9-14.3s-2.3-10.6-5.9-14.3c-3.6-3.6-8.7-5.9-14.3-5.9s-10.6 2.3-14.3 5.9c-3.6 3.6-5.9 8.7-5.9 14.3s2.3 10.6 5.9 14.3z"/><path fill="#98A6B7" d="M19 5.1L4.1 20C0 15.9 0 9.2 4.1 5.1S14.9 1 19 5.1zM52 48l6 14-11-9c1.9-1.4 3.6-3.1 5-5z"/><g fill="#2C2C3D"><path d="M32 36.5c-1.9 0-3.5-1.6-3.5-3.5s1.6-3.5 3.5-3.5 3.5 1.6 3.5 3.5-1.6 3.5-3.5 3.5zm0-5c-.8 0-1.5.7-1.5 1.5s.7 1.5 1.5 1.5 1.5-.7 1.5-1.5-.7-1.5-1.5-1.5z"/><path d="M32 59c-5.7 0-11.1-1.8-15.6-5.2-2-1.5-3.7-3.2-5.2-5.2C7.8 44.1 6 38.7 6 33 6 18.7 17.7 7 32 7s26 11.7 26 26c0 5.7-1.8 11.1-5.2 15.6-1.5 2-3.2 3.7-5.2 5.2C43.1 57.2 37.7 59 32 59zm0-50C18.8 9 8 19.8 8 33c0 5.2 1.7 10.2 4.8 14.4 1.4 1.8 3 3.4 4.8 4.8C21.8 55.3 26.8 57 32 57s10.2-1.7 14.4-4.8c1.8-1.4 3.4-3 4.8-4.8C54.3 43.2 56 38.2 56 33 56 19.8 45.2 9 32 9z"/><path d="M32 54.2c-5.6 0-11-2.2-15-6.2s-6.2-9.3-6.2-15S13 22 17 18s9.3-6.2 15-6.2S43 14 47 18s6.2 9.3 6.2 15S51 44 47 48s-9.4 6.2-15 6.2zm0-40.4c-5.1 0-9.9 2-13.6 5.6-3.6 3.6-5.6 8.4-5.6 13.6s2 9.9 5.6 13.6c3.6 3.6 8.4 5.6 13.6 5.6s9.9-2 13.6-5.6c3.6-3.6 5.6-8.4 5.6-13.6s-2-9.9-5.6-13.6c-3.7-3.6-8.5-5.6-13.6-5.6z"/><path d="M41 34h-5.6c-.6 0-1-.4-1-1s.4-1 1-1H41c.6 0 1 .4 1 1s-.4 1-1 1zm-9-3c-.6 0-1-.4-1-1v-9c0-.6.4-1 1-1s1 .4 1 1v9c0 .6-.4 1-1 1zm0-13.1c-.6 0-1-.4-1-1v-4c0-.6.4-1 1-1s1 .4 1 1v4c0 .5-.4 1-1 1zm0 36.3c-.6 0-1-.4-1-1v-4c0-.6.4-1 1-1s1 .4 1 1v4c0 .5-.4 1-1 1zM52.2 34h-4c-.6 0-1-.4-1-1s.4-1 1-1h4c.6 0 1 .4 1 1s-.5 1-1 1zm-36.3 0h-4c-.6 0-1-.4-1-1s.4-1 1-1h4c.6 0 1 .4 1 1s-.5 1-1 1zm30.4 14.3c-.3 0-.5-.1-.7-.3l-2.9-2.9c-.4-.4-.4-1 0-1.4s1-.4 1.4 0l2.9 2.9c.4.4.4 1 0 1.4-.2.2-.5.3-.7.3zM20.6 22.6c-.3 0-.5-.1-.7-.3L17 19.4c-.4-.4-.4-1 0-1.4s1-.4 1.4 0l2.9 2.9c.4.4.4 1 0 1.4-.2.2-.4.3-.7.3zm-2.9 25.7c-.3 0-.5-.1-.7-.3-.4-.4-.4-1 0-1.4l2.9-2.9c.4-.4 1-.4 1.4 0s.4 1 0 1.4L18.4 48c-.1.2-.4.3-.7.3zm25.7-25.7c-.3 0-.5-.1-.7-.3-.4-.4-.4-1 0-1.4l2.9-2.9c.4-.4 1-.4 1.4 0s.4 1 0 1.4l-2.9 2.9c-.2.2-.4.3-.7.3zM6 63c-.2 0-.4-.1-.6-.2-.4-.3-.5-.8-.3-1.2l6-14c.2-.5.8-.7 1.3-.5.5.2.7.8.5 1.3L8.5 58.6l7.8-6.4c.4-.3 1.1-.3 1.4.1.3.4.3 1.1-.1 1.4l-11 9c-.2.2-.4.3-.6.3zm52 0c-.2 0-.4-.1-.6-.2l-11-9c-.4-.3-.5-1-.1-1.4.4-.4 1-.5 1.4-.1l7.8 6.4-4.4-10.2c-.2-.5 0-1.1.5-1.3.5-.2 1.1 0 1.3.5l6 14c.2.4.1.9-.3 1.2-.2 0-.4.1-.6.1zM4.1 21c-.3 0-.5-.1-.7-.3-4.5-4.5-4.5-11.8 0-16.3C5.6 2.2 8.5 1 11.5 1s6 1.2 8.2 3.4c.2.2.3.4.3.7s-.1.5-.3.7L4.8 20.7c-.2.2-.4.3-.7.3zm7.4-18C9 3 6.6 4 4.8 5.8c-3.5 3.5-3.7 9-.7 12.8L17.5 5.1c-1.6-1.4-3.7-2.1-6-2.1zm48.4 18c-.3 0-.5-.1-.7-.3L44.3 5.8c-.2-.2-.3-.4-.3-.7s.1-.5.3-.7C46.5 2.2 49.4 1 52.5 1s6 1.2 8.2 3.4c4.5 4.5 4.5 11.8 0 16.3-.3.2-.5.3-.8.3zM46.5 5.1l13.4 13.4c3-3.7 2.8-9.3-.7-12.8C57.4 4 55 3 52.5 3c-2.3 0-4.4.7-6 2.1z"/></g></svg>