<svg xmlns="http://www.w3.org/2000/svg" viewBox="0 0 64 64"><path fill="#F25151" d="M31 22h.5c2.4 0 4.4-.8 5.2-2l1.3-2.6c.9.5 1.8 1 2.9 1.2 3.6.9 7.2-.2 9.4-1.2 4.7 3.1 7.6 8.8 7.6 16.5 0 12.2-7.4 29-17.4 29-1.5 0-2.9-.4-4.2-1-2.8-1.4-6.1-1.4-8.9 0-1.4.7-2.8 1-4.2 1C13 63 5.6 46.2 5.6 34S13 14.6 23 14.6c2 0 3.9.3 5.7.9.8.2 1.6.4 2.4.4-.2 3-.1 5.1-.1 5.1v1z"/><path fill="#6DE283" d="M52.2 16.4s-.8.5-2 1c-2.8-1.8-6.1-2.8-9.8-2.8-1.8 0-3.5.2-5.1.7-2.1-2-3.3-4.2-3.3-4.2s5.8-3.7 11.4-2.2c5.6 1.5 8.8 7.5 8.8 7.5z"/><path fill="#6DE283" d="M50.2 17.5c-2.2 1-5.8 2.1-9.4 1.2-1-.3-2-.7-2.9-1.2-1-.6-1.9-1.3-2.7-2.1 1.6-.4 3.3-.7 5.1-.7 3.8-.1 7.2.9 9.9 2.8z"/><path fill="#F25151" d="M38 17.4L36.7 20c-.8 1.2-2.8 2-5.2 2H31v-.9s-.1-2.1.1-5.1c1.2.1 2.4-.1 3.6-.4.2-.1.4-.1.6-.2.7.7 1.6 1.4 2.7 2z"/><g fill="#2C2C3D"><path d="M40.4 64c-1.6 0-3.2-.4-4.7-1.1-2.5-1.2-5.5-1.2-8.1 0-1.5.7-3 1.1-4.6 1.1C11.9 64 4.6 45.9 4.6 34 4.6 21.8 12 13.6 23 13.6c2.1 0 4.1.3 6 .9.7.2 1.5.4 2.2.4 1.1.1 2.2-.1 3.2-.4.1 0 .2-.1.3-.1l.2-.1c.5-.2 1.1.1 1.3.7.2.5-.1 1.1-.7 1.3l-.5.2c-1.3.4-2.7.6-4 .5-.9 0-1.8-.2-2.7-.5-1.7-.5-3.5-.8-5.4-.8C13 15.6 6.6 22.8 6.6 34c0 11.3 6.9 28 16.4 28 1.3 0 2.6-.3 3.8-.9 3.1-1.5 6.7-1.5 9.8 0 1.3.6 2.5.9 3.8.9 9.5 0 16.4-16.7 16.4-28 0-7-2.6-12.6-7.2-15.7-.5-.3-.6-.9-.3-1.4.3-.5.9-.6 1.4-.3 5.2 3.5 8.1 9.7 8.1 17.4 0 11.9-7.3 30-18.4 30z"/><path d="M43.6 20c-1 0-2-.1-3-.4-1.1-.3-2.1-.7-3.2-1.3-1-.6-2-1.3-2.9-2.2-2.2-2.1-3.4-4.3-3.5-4.4-.3-.5-.1-1 .3-1.3.2-.1 4.3-2.7 9.2-2.7 1 0 2 .1 3 .4 6 1.6 9.3 7.7 9.5 8 .2.5.1 1-.3 1.3 0 0-.8.5-2.2 1.1-1.5.6-4.1 1.5-6.9 1.5zm-10.2-8.5c.5.8 1.4 2 2.6 3.1.8.8 1.6 1.4 2.5 2 .9.5 1.7.9 2.6 1.1.8.2 1.6.3 2.5.3 2.4 0 4.7-.8 6.2-1.5.4-.2.7-.3 1-.5-1.1-1.6-3.8-5.1-7.7-6.2-.8-.2-1.6-.3-2.5-.3-3 .1-5.8 1.3-7.2 2z"/><path d="M31 22c-.5 0-1-.4-1-.9 0-.1-.2-2.2.1-5.2.2-1.8.5-3.4.9-4.9 1.2-4.7 3.4-8.3 6.4-10.7.4-.3 1.1-.3 1.4.2.3.4.3 1.1-.2 1.4-2.7 2.1-4.6 5.3-5.7 9.6-.4 1.4-.6 3-.8 4.7-.2 2.7-.1 4.7-.1 4.8 0 .5-.4 1-1 1z"/><path d="M31.5 23h-.7c-2.4-.1-4.5-1.1-5.4-2.4-.3-.5-.2-1.1.3-1.4.5-.3 1.1-.2 1.4.3.4.7 1.8 1.4 3.9 1.5h.5c2.2 0 3.9-.8 4.4-1.5.3-.5.9-.6 1.4-.3.5.3.6.9.3 1.4-1 1.4-3.4 2.4-6.1 2.4z"/></g></svg>