<svg xmlns="http://www.w3.org/2000/svg" viewBox="0 0 64 64"><path fill="#73758C" d="M42 58.9c0-2.3 1.8-4.1 4.1-4.1s4.1 1.8 4.1 4.1-1.8 4.1-4.1 4.1-4.1-1.8-4.1-4.1zm9.1-37.2V25c0 7.2-4 13.4-10 16.7-2.7 1.5-5.8 2.3-9 2.3-3.1 0-6-.8-8.6-2.1l-4.8-3.5c-3.4-3.4-5.6-8.2-5.6-13.4v-3.8H51v.5z"/><g fill="#2C2C3D"><path d="M57 22.2H8.2c-.6 0-1-.4-1-1s.4-1 1-1H57c.6 0 1 .4 1 1s-.4 1-1 1z"/><path d="M32.2 45c-3.2 0-6.3-.8-9.1-2.2l-.1-.1-4.8-3.5-.1-.1c-3.8-3.8-5.9-8.8-5.9-14.1v-3.5c0-.6.4-1 1-1s1 .4 1 1V25c0 4.8 1.9 9.2 5.2 12.6l4.7 3.4c5.1 2.6 11.5 2.5 16.6-.2 5.8-3.2 9.4-9.2 9.4-15.8v-3.4c0-.6.4-1 1-1s1 .4 1 1V25c0 7.3-4 14-10.5 17.5-2.8 1.7-6.1 2.5-9.4 2.5z"/><path d="M38.6 30.8H27.2c-.6 0-1-.4-1-1s.4-1 1-1h11.4c.6 0 1 .4 1 1s-.5 1-1 1zM18 64h-.3c-.5-.1-.9-.7-.7-1.2l5.5-21.1c.1-.5.7-.8 1.2-.7.5.1.9.7.7 1.2L19 63.3c-.2.4-.6.7-1 .7zm28.1 0c-2.8 0-5.1-2.3-5.1-5.1s2.3-5.1 5.1-5.1 5.1 2.3 5.1 5.1-2.3 5.1-5.1 5.1zm0-8.2c-1.7 0-3.1 1.4-3.1 3.1 0 1.7 1.4 3.1 3.1 3.1 1.7 0 3.1-1.4 3.1-3.1 0-1.7-1.4-3.1-3.1-3.1z"/><path d="M44 52H22c-.6 0-1-.4-1-1s.4-1 1-1h22c.6 0 1 .4 1 1s-.4 1-1 1zM23 13c-.6 0-1-.4-1-1V5c0-.6.4-1 1-1s1 .4 1 1v7c0 .6-.4 1-1 1zm10 0c-.6 0-1-.4-1-1V1c0-.6.4-1 1-1s1 .4 1 1v11c0 .6-.4 1-1 1zm10 0c-.6 0-1-.4-1-1V5c0-.6.4-1 1-1s1 .4 1 1v7c0 .6-.4 1-1 1z"/><path d="M45.3 55.8c-.4 0-.8-.3-1-.7L41 42.2c-.1-.5.2-1.1.7-1.2.5-.1 1.1.2 1.2.7l3.3 12.9c.1.5-.2 1.1-.7 1.2h-.2z"/></g></svg>