<svg xmlns="http://www.w3.org/2000/svg" viewBox="0 0 64 64"><path fill="#FFF5EB" d="M49.7 9.1c0 3.5-2.6 6.5-6 7-.2.1-.5.1-.8.1H21.1v5.5c0 1.8-1.5 3.3-3.3 3.3s-3.3-1.5-3.3-3.3v-5.5H10c-1.7-.2-3-1.6-3-3.3 0-1.4.8-2.5 2-3 .2-5 4.3-9 9.3-9 4.2 0 7.7 2.7 8.9 6.5.8-1.3 2.2-2.2 3.8-2.2 2.4 0 4.4 2 4.4 4.4V9c0-3.9 3.2-7.1 7.1-7.1s7.2 3.2 7.2 7.2z"/><path fill="#F9C553" d="M43.7 56v3c0 2.2-1.8 4-4 4H13.9c-2.2 0-4-1.8-4-4v-3h33.8zm0-5v5H9.9V16.2h4.5v5.5c0 1.8 1.5 3.3 3.3 3.3s3.3-1.5 3.3-3.3v-5.5h21.8l.8.8v34z"/><g fill="#2C2C3D"><path d="M39.7 64H13.9c-2.8 0-5-2.2-5-5V17c0-.6.4-1 1-1s1 .4 1 1v42c0 1.7 1.3 3 3 3h25.8c1.7 0 3-1.3 3-3V17c0-.6.4-1 1-1s1 .4 1 1v42c0 2.8-2.2 5-5 5z"/><path d="M51.9 52h-8c-.6 0-1-.4-1-1s.4-1 1-1h8c1.7 0 3-1.3 3-3V28c0-1.7-1.3-3-3-3h-8c-.6 0-1-.4-1-1s.4-1 1-1h8c2.8 0 5 2.2 5 5v19c0 2.8-2.2 5-5 5zm-9 5h-33c-.6 0-1-.4-1-1s.4-1 1-1h33c.6 0 1 .4 1 1s-.4 1-1 1zm-25-10c-.6 0-1-.4-1-1V32c0-.6.4-1 1-1s1 .4 1 1v14c0 .6-.4 1-1 1zm9 0c-.6 0-1-.4-1-1V32c0-.6.4-1 1-1s1 .4 1 1v14c0 .6-.4 1-1 1zm9 0c-.6 0-1-.4-1-1V32c0-.6.4-1 1-1s1 .4 1 1v14c0 .6-.4 1-1 1zM17.8 26c-2.4 0-4.3-1.9-4.3-4.3v-4.5H9.9C7.7 17 6 15.1 6 12.9c0-1.5.8-2.9 2.1-3.7C8.5 3.9 13-.2 18.4-.2c3.9 0 7.5 2.2 9.2 5.6.9-.8 2.1-1.2 3.4-1.2 1.6 0 3 .7 4 1.8C36.2 3 39.1.9 42.5.9c4.5 0 8.1 3.7 8.1 8.1 0 4-2.9 7.4-6.8 8-.3.1-.6.1-.9.1H22.1v4.5c0 2.5-1.9 4.4-4.3 4.4zm.6-24.2c-4.5 0-8.2 3.5-8.3 8.1 0 .4-.3.7-.6.9-.9.4-1.5 1.2-1.5 2.1 0 1.2.9 2.2 2.1 2.3h4.4c.6 0 1 .4 1 1v5.5c0 1.3 1 2.3 2.3 2.3s2.3-1 2.3-2.3v-5.5c0-.6.4-1 1-1h21.8c.2 0 .3 0 .5-.1 3-.5 5.2-3.1 5.2-6.1 0-3.4-2.8-6.1-6.1-6.1S36.4 5.7 36.4 9v.4c0 .3-.1.6-.2.8s-.5.3-.7.3c-.6 0-1-.4-1-1 0-1.9-1.5-3.4-3.4-3.4-1.2 0-2.3.6-2.9 1.6-.2.3-.6.5-1 .5s-.7-.3-.8-.7c-1.2-3.3-4.4-5.7-8-5.7z"/></g></svg>