<svg xmlns="http://www.w3.org/2000/svg" viewBox="0 0 64 64"><path fill="#23A564" d="M43 31.5v28c0 1.9-1.5 3.5-3.3 3.5H24.4c-1.8 0-3.4-1.6-3.4-3.5v-28c0-3.5 1.4-6.6 4.4-7.6.4-.1.7-.4.7-.8l.7-7.6h10.6l.7 7.6c0 .4.3.7.7.8 2.8 1 4.2 4.1 4.2 7.6zm-6 9.3c0-4.3-2.2-7.8-5-7.8s-5 3.5-5 7.8 2.2 7.8 5 7.8 5-3.5 5-7.8z"/><path fill="#F9E385" d="M36 1l1.3 14.4-.3.1H27l-.3-.1L28 1z"/><ellipse fill="#EAEAEA" cx="32" cy="40.8" rx="5" ry="7.8"/><g fill="#2C2C3D"><path d="M39.7 64H24.3C22 64 20 62 20 59.5v-28c0-4.3 1.9-7.5 5.1-8.6L27 .9c0-.5.5-.9 1-.9h8c.5 0 1 .4 1 .9L38.9 23c3.2 1 5.1 4.2 5.1 8.5v28c0 2.5-2 4.5-4.3 4.5zM28.9 2L27 23.2c-.1.8-.6 1.4-1.4 1.7-2.3.8-3.7 3.3-3.7 6.7v28c0 1.4 1.1 2.5 2.3 2.5h15.3c1.3 0 2.3-1.1 2.3-2.5v-28c0-3.4-1.4-5.9-3.7-6.7-.8-.2-1.3-.9-1.4-1.7L35.1 2h-6.2z"/><path d="M37 16.5H27c-.6 0-1-.4-1-1s.4-1 1-1h10c.6 0 1 .4 1 1s-.4 1-1 1zm-5 33c-3.4 0-6-3.8-6-8.8s2.6-8.8 6-8.8 6 3.8 6 8.8-2.6 8.8-6 8.8zM32 34c-2.2 0-4 3.1-4 6.8s1.8 6.8 4 6.8 4-3.1 4-6.8-1.8-6.8-4-6.8z"/></g></svg>