<svg xmlns="http://www.w3.org/2000/svg" viewBox="0 0 64 64"><path fill="#68B2EA" d="M62.9 45.7c.1.6.1 1.3.1 1.9C63 54.4 57.5 60 50.6 60s-12.4-5.6-12.4-12.4c0-.7.1-1.5.2-2.2 1-5.8 6.1-10.3 12.2-10.3 6.2 0 11.3 4.6 12.3 10.6z"/><path fill="#55607C" d="M53.4 13.9c3.2 1.4 5.7 4.5 6.5 9.5l3 22.3c-.9-6-6-10.5-12.3-10.5-6.1 0-11.2 4.4-12.2 10.3h-.2v-1c0-.4 0-.7-.1-1.1l-.9-19.9c0-.4 0-.7.1-1.1.7-5.3 6-9.4 11.3-9.4 1.7-.1 3.3.2 4.8.9z"/><path fill="#38445E" d="M53.1 11.1l.4 2.8c-1.5-.7-3.2-1-4.9-1-5.3 0-10.6 4.1-11.3 9.4h-.1c0-.9-.2-1.7-.6-2.5l.4-.3v-8.4C37 7.2 41 4 45 4c3.8 0 7.3 2.2 8.1 7.1zm-15 32.1l.1 1.6c-.3 3.2-2.9 5.8-6.2 5.8-3.3 0-5.9-2.5-6.2-5.8l.1-1.7C26.4 40.2 29 38 32 38c3.1 0 5.6 2.3 6.1 5.2z"/><path fill="#55607C" d="M37.2 22.3v1.1l.9 19.9c-.5-3-3-5.2-6.1-5.2-3 0-5.6 2.2-6.1 5.2l.9-19.8c0-.4 0-.7-.1-1.1h.1c0-1.1.3-2.1.9-2.9.9-1.4 2.5-2.3 4.3-2.3 2 0 3.7 1.1 4.5 2.7.4.7.7 1.5.7 2.4z"/><path fill="#38445E" d="M27 19.4h.7c-.6.8-.9 1.8-.9 2.9h-.1c-.7-5.3-6-9.4-11.3-9.4-1.4 0-2.8.2-4.1.7-.3.1-.5.2-.8.3l.4-2.8C11.7 6.2 15.2 4 19 4c4 0 8 3.2 8 7.1v8.3z"/><path fill="#55607C" d="M10.5 13.9c.3-.1.5-.2.8-.3 1.3-.5 2.7-.7 4.1-.7 5.3 0 10.6 4.1 11.3 9.4 0 .3.1.7.1 1.1l-.9 19.8c-.1.4-.1.7-.1 1.1v1h-.2c-1-5.8-6.1-10.3-12.2-10.3-6.2 0-11.3 4.6-12.2 10.5l3-22.3c.6-4.8 3.1-7.8 6.3-9.3z"/><path fill="#68B2EA" d="M25.6 45.4c.1.7.2 1.4.2 2.2 0 6.9-5.5 12.4-12.4 12.4S1 54.4 1 47.6c0-.6.1-1.3.1-1.9.9-6 6-10.5 12.2-10.5 6.2-.1 11.3 4.3 12.3 10.2z"/><path fill="#2C2C3D" d="M63.9 46.3l-3-23c-.7-4.7-3-8.1-6.5-9.9L54 11c-.9-5.9-5.2-8-9-8-4.8 0-9 3.8-9 8.1v6.5c-1.1-.9-2.5-1.5-4-1.5s-2.9.6-4 1.5v-6.5C28 6.8 23.8 3 19 3c-3.8 0-8.1 2.1-9 8l-.3 2.3c-3.5 1.8-5.8 5.3-6.5 9.9L0 46.3h.1c0 .4-.1.9-.1 1.3C0 55 6 61 13.4 61c6.8 0 12.5-5.2 13.3-11.8 1.3 1.5 3.2 2.4 5.3 2.4 2.1 0 4-.9 5.3-2.4.8 6.6 6.5 11.8 13.3 11.8C58 61 64 55 64 47.6c0-.5 0-.9-.1-1.3zm-5-22.8L61 39c-2.5-3-6.2-4.9-10.4-4.9-4.9 0-9.3 2.7-11.6 6.7l-.8-17.5c0-.3 0-.6.1-.9.6-4.6 5.3-8.5 10.3-8.5 1.6 0 3.1.3 4.5.9 3.2 1.5 5.2 4.5 5.8 8.7zM45 5c3.8 0 6.5 2.3 7 6.2l.2 1.2c-1.2-.3-2.4-.5-3.7-.5-4.2 0-8.3 2.4-10.5 5.7v-6.5C38 7.9 41.3 5 45 5zM32 18.1c1.5 0 2.9.8 3.7 2.2.3.6.5 1.3.5 2h.1c0 .3-.1.7-.1 1.1l.7 15.6c-1.3-1.2-3-1.9-4.9-1.9-1.9 0-3.6.7-4.9 2l.7-15.6c0-.4 0-.7-.1-1.1h.1c0-.8.2-1.6.7-2.3.8-1.3 2.1-2 3.5-2zM19 5c3.7 0 7 2.9 7 6.1v6.5c-2.3-3.3-6.3-5.7-10.5-5.7-1.3 0-2.5.2-3.7.5l.2-1.2c.5-3.9 3.2-6.2 7-6.2zM5.1 23.5c.6-4.2 2.6-7.2 5.9-8.7.2-.1.5-.2.7-.3 1.2-.4 2.5-.6 3.8-.6 5 0 9.7 3.9 10.3 8.5 0 .3.1.6.1.9L25 40.8c-2.3-4.1-6.7-6.7-11.6-6.7C9.2 34.1 5.5 36 3 39l2.1-15.5zM13.4 59C7.1 59 2 53.9 2 47.6c0-.6 0-1.2.1-1.8.9-5.6 5.6-9.7 11.3-9.7 5.5 0 10.3 4 11.2 9.5.1.6.2 1.3.2 2 0 6.3-5.1 11.4-11.4 11.4zM32 49.6c-2.7 0-4.9-2.1-5.2-4.8l.1-1.5c.5-2.5 2.6-4.3 5.1-4.3 2.5 0 4.6 1.8 5.1 4.4l.1 1.4c-.3 2.7-2.5 4.8-5.2 4.8zM50.6 59c-6.3 0-11.4-5.1-11.4-11.4 0-.7.1-1.4.2-2 1-5.5 5.7-9.4 11.2-9.4 5.7 0 10.4 4.1 11.3 9.7.1.5.1 1.1.1 1.7C62 53.9 56.9 59 50.6 59z"/><path fill="#FFF" d="M6.2 48.6c-.6 0-1-.4-1-1 0-4.6 3.6-8.3 8.2-8.3.6 0 1 .4 1 1s-.4 1-1 1c-3.5 0-6.2 2.8-6.2 6.3 0 .5-.4 1-1 1zm37.2 0c-.6 0-1-.4-1-1 0-4.6 3.6-8.3 8.2-8.3.6 0 1 .4 1 1s-.4 1-1 1c-3.5 0-6.2 2.8-6.2 6.3 0 .5-.5 1-1 1z"/></svg>