<svg xmlns="http://www.w3.org/2000/svg" viewBox="0 0 64 64"><path fill="#FFFDEB" d="M60.5 11.7c3.3 3.3 3.3 8.7 0 12-3.2 3.2-8.3 3.3-11.6.3L24 49c2.8 3.3 2.6 8.3-.5 11.5a8.39 8.39 0 0 1-11.9 0c-1.6-1.6-2.4-3.6-2.5-5.7-2.1-.1-4.1-.9-5.7-2.5-3.3-3.3-3.3-8.7 0-12C6.6 37.1 11.7 37 15 40l25-25.1c-2.8-3.3-2.6-8.3.5-11.5 3.3-3.3 8.6-3.3 11.9 0C54 5 54.8 7 54.9 9.1c2 .2 4.1 1 5.6 2.6z"/><path fill="#2C2C3D" d="M17.5 64c-2.5 0-4.9-1-6.7-2.8-1.5-1.5-2.4-3.4-2.7-5.5-2.1-.3-4-1.2-5.4-2.7-3.7-3.7-3.7-9.7 0-13.4 1.8-1.8 4.1-2.8 6.7-2.8 2 0 4 .7 5.6 1.9l23.6-23.8c-2.6-3.7-2.1-8.8 1.1-12.1C41.6 1 43.9 0 46.5 0s4.9 1 6.7 2.8c1.5 1.5 2.4 3.4 2.7 5.5 2.1.3 4 1.2 5.4 2.7 3.7 3.7 3.7 9.7 0 13.4-1.8 1.8-4.1 2.8-6.7 2.8-2 0-4-.7-5.6-1.9L25.3 49.1c2.6 3.7 2.1 8.8-1.1 12.1-1.8 1.8-4.1 2.8-6.7 2.8zM9.4 38.8c-2 0-3.8.8-5.2 2.2-2.9 2.9-2.9 7.7 0 10.6 1.3 1.3 3.1 2.1 5 2.2.5 0 .9.4 1 1 .1 1.9.8 3.7 2.2 5 1.4 1.4 3.3 2.2 5.3 2.2s3.8-.8 5.2-2.2c2.7-2.8 2.9-7.1.5-10.1-.3-.4-.3-1 .1-1.3l24.9-25.1c.4-.4 1-.4 1.4 0 1.4 1.3 3.1 2 5 2 2 0 3.8-.8 5.2-2.2 2.9-2.9 2.9-7.7 0-10.6-1.3-1.3-3.1-2.1-5-2.2-.5 0-.9-.4-1-1-.1-1.9-.8-3.7-2.2-5C50.3 2.8 48.4 2 46.5 2s-3.8.8-5.2 2.2c-2.7 2.8-2.9 7.1-.5 10.1.3.4.3 1-.1 1.3L15.8 40.7c-.4.4-1 .4-1.4 0-1.3-1.2-3.1-1.9-5-1.9z"/></svg>