<svg xmlns="http://www.w3.org/2000/svg" viewBox="0 0 64 64"><path fill="#F7F2EB" d="M32 49V12s6.1-4 14-4c8 0 14 4 14 4v37s-6.1-4-14-4c-7.2 0-14 4-14 4zm0 0s-5.9-4-14-4c-7.9 0-14 4-14 4V12s6-4 14-4 14 4 14 4v37z"/><path fill="#64A2CC" d="M4 49s6.1-4 14-4c8.1 0 14 4 14 4s6.8-4 14-4c7.9 0 14 4 14 4V14h3v38H36c0 2.2-1.8 4-4 4s-4-1.8-4-4H1V14h3v35z"/><g fill="#2C2C3D"><path d="M4 50c-.2 0-.3 0-.5-.1-.3-.2-.5-.5-.5-.9V12c0-.3.2-.6.4-.8C3.7 11 9.8 7 18 7s14.3 4 14.6 4.2c.5.3.6.9.3 1.4-.3.5-.9.6-1.4.3C31.4 12.8 25.6 9 18 9c-6.4 0-11.5 2.7-13 3.6v34.7c2.4-1.2 7.2-3.3 13-3.3 8.3 0 14.3 4 14.6 4.2.5.3.6.9.3 1.4-.3.5-.9.6-1.4.3-.1 0-5.8-3.8-13.4-3.8-7.6 0-13.4 3.8-13.4 3.8-.3 0-.5.1-.7.1z"/><path d="M9 20.7c-.4 0-.8-.3-.9-.7-.2-.5.1-1.1.6-1.3C12 17.6 15.1 17 18 17c2.9 0 6 .6 9.3 1.8.5.2.8.8.6 1.3-.2.5-.8.8-1.3.6-3.1-1.1-6-1.7-8.7-1.7-2.6 0-5.6.6-8.7 1.7H9zM9 28c-.4 0-.8-.3-.9-.7-.2-.5.1-1.1.6-1.3 2.3-.8 5.7-1.8 9.3-1.8 2.9 0 6 .6 9.3 1.8.5.2.8.8.6 1.3-.2.5-.8.8-1.3.6-3.1-1.1-6-1.7-8.7-1.7-3.3 0-6.5.9-8.7 1.7 0 .1-.1.1-.2.1zm0 7.7c-.4 0-.8-.3-.9-.7-.2-.5.1-1.1.6-1.3C12 32.6 15.1 32 18 32c2.9 0 6 .6 9.3 1.8.5.2.8.8.6 1.3-.2.5-.8.8-1.3.6-3.1-1.1-6-1.7-8.7-1.7-2.6 0-5.6.6-8.7 1.7H9zm28-15c-.4 0-.8-.3-.9-.7-.2-.5.1-1.1.6-1.3C40 17.6 43.1 17 46 17c3.6 0 7.1 1 9.3 1.8.5.2.8.8.6 1.3-.2.5-.8.8-1.3.6-2.1-.8-5.3-1.7-8.6-1.7-2.6 0-5.5.6-8.7 1.7H37zM55 28c-.1 0-.2 0-.3-.1-2.1-.8-5.3-1.7-8.7-1.7-2.7 0-5.6.6-8.7 1.7-.5.2-1.1-.1-1.3-.6-.2-.5.1-1.1.6-1.3 3.3-1.2 6.4-1.8 9.3-1.8 3.6 0 7.1 1 9.3 1.8.5.2.8.8.6 1.3 0 .4-.4.7-.8.7zm-18 7.7c-.4 0-.8-.3-.9-.7-.2-.5.1-1.1.6-1.3C40 32.6 43.1 32 46 32c3.6 0 7.1 1 9.3 1.8.5.2.8.8.6 1.3-.2.5-.8.8-1.3.6-2.1-.8-5.3-1.7-8.6-1.7-2.6 0-5.5.6-8.7 1.7H37z"/><path d="M32 50c-.2 0-.3 0-.5-.1-.3-.2-.5-.5-.5-.9V12c0-.3.2-.6.4-.8C31.7 11 37.9 7 46 7c8.2 0 14.3 4 14.6 4.2.3.2.4.5.4.8v37c0 .4-.2.7-.5.9-.3.2-.7.2-1 0-.1 0-5.9-3.8-13.5-3.8-6.8 0-13.4 3.8-13.5 3.9H32zm1-37.4v34.8c2.5-1.2 7.6-3.3 13-3.3 5.8 0 10.6 2.1 13 3.3V12.6C57.5 11.7 52.4 9 46 9c-6.3 0-11.5 2.7-13 3.6zM28 53H1c-.6 0-1-.4-1-1V14c0-.6.4-1 1-1h3c.6 0 1 .4 1 1s-.4 1-1 1H2v36h26c.6 0 1 .4 1 1s-.4 1-1 1z"/><path d="M63 53H36c-.6 0-1-.4-1-1s.4-1 1-1h26V15h-2c-.6 0-1-.4-1-1s.4-1 1-1h3c.6 0 1 .4 1 1v38c0 .6-.4 1-1 1z"/><path d="M32 57c-2.8 0-5-2.2-5-5 0-.6.4-1 1-1s1 .4 1 1c0 1.7 1.3 3 3 3s3-1.3 3-3c0-.6.4-1 1-1s1 .4 1 1c0 2.8-2.2 5-5 5z"/></g></svg>