<svg xmlns="http://www.w3.org/2000/svg" viewBox="0 0 64 64"><path fill="#E7BF55" d="M63 12v38L32 63V23l11.6-4.1.4.1v10l8-3V16l-.1-.1z"/><path fill="#EFC75E" d="M63 12l-11.1 3.9L22 5l-.1-.3L32 1z"/><path fill="#F7E3AF" d="M52 16v10l-8 3V19l-.4-.1 8.3-3zm-.1-.1l-8.3 3L14 8l-.1-.4 8-2.9.1.3z"/><path fill="#EFC75E" d="M43.6 18.9L32 23 1 12.2l12.9-4.6.1.4z"/><path fill="#D3A644" d="M32 23v40L1 50V12.2z"/><g fill="#2C2C3D"><path d="M32 24c-.1 0-.2 0-.3-.1L.7 13.1c-.5-.2-.8-.8-.6-1.3s.8-.8 1.3-.6L32 21.9 62.7 11c.5-.2 1.1.1 1.3.6.2.5-.1 1.1-.6 1.3l-31 11c-.2.1-.3.1-.4.1z"/><path d="M32 64c-.1 0-.3 0-.4-.1l-31-13c-.4-.1-.6-.5-.6-.9V12.2c0-.4.3-.8.7-.9L31.7.1c.2-.1.5-.1.7 0l31 11c.4.1.7.5.7.9v38c0 .4-.2.8-.6.9l-31 13c-.2.1-.4.1-.5.1zM2 49.3l30 12.6 30-12.6V12.7L32 2.1 2 12.9v36.4z"/><path d="M32 64c-.6 0-1-.4-1-1V23c0-.6.4-1 1-1s1 .4 1 1v40c0 .6-.4 1-1 1zm12-34c-.2 0-.4-.1-.6-.2-.2-.2-.4-.5-.4-.8v-9.3L13.7 8.9c-.5-.2-.8-.8-.6-1.3.2-.5.8-.8 1.3-.6l30 11c.4.1.7.5.7.9v8.6l6-2.2v-8.6L21.7 5.9c-.5-.2-.8-.8-.6-1.3.2-.5.8-.8 1.3-.6l30 11c.4.1.6.5.6.9v10c0 .4-.3.8-.6.9l-8 3c-.2.2-.3.2-.4.2z"/></g></svg>