<svg xmlns="http://www.w3.org/2000/svg" viewBox="0 0 64 64"><path fill="#FFD41D" d="M32 46H21v-6c-6-3.7-10-10.4-10-18 0-11.6 9.4-21 21-21s21 9.4 21 21c0 7.6-4 14.3-10 18v6H32z"/><path fill="#93B9CC" d="M43 51v3c0 1.1-.9 2-2 2H23c-1.1 0-2-.9-2-2v-3h22z"/><path fill="#A8DBEF" d="M43 46v5H21v-5h11z"/><path fill="#2B3E42" d="M25 56h14c0 3.9-3.1 7-7 7s-7-3.1-7-7z"/><path fill="#2D2D2D" d="M32 0C19.9 0 10 9.9 10 22c0 7.5 3.8 14.5 10 18.5V54c0 1.7 1.3 3 3 3h1.1c.5 3.9 3.9 7 7.9 7s7.4-3.1 7.9-7H41c1.7 0 3-1.3 3-3V40.5c6.2-4 10-11.1 10-18.5C54 9.9 44.1 0 32 0zm0 62c-3 0-5.4-2.2-5.9-5h11.8c-.5 2.8-2.9 5-5.9 5zm9-7H23c-.6 0-1-.4-1-1v-2h20v2c0 .6-.4 1-1 1zm1-5H22v-3h20v3zm.5-10.9l-.5.3V45h-9V28.5l4-3.2 4.4 3.5c.4.3 1.1.3 1.4-.2.3-.4.3-1.1-.2-1.4L37 22.7l-5 4-5-4-5.6 4.5c-.4.3-.5 1-.2 1.4.3.4 1 .5 1.4.2l4.4-3.5 4 3.2V45h-9v-5.6l-.5-.3C15.6 35.5 12 29 12 22c0-11 9-20 20-20s20 9 20 20c0 7-3.6 13.5-9.5 17.1z"/></svg>