<svg xmlns="http://www.w3.org/2000/svg" viewBox="0 0 64 64"><path fill="#47BA5F" d="M32 0c17.7 0 32 14.3 32 32S49.7 64 32 64 0 49.7 0 32 14.3 0 32 0z"/><path fill="#2B3E42" d="M27 51h10c0 2.8-2.2 5-5 5s-5-2.2-5-5z"/><path fill="#FFF" d="M7 29.5h7.3v3H7zm42.7 0H57v3h-7.3zM30.5 5h3v7h-3zm15.2 4.1L42 15.7l-2.6-1.4L43 7.7zM21 7.7l3.6 6.6-2.6 1.4-3.6-6.6zM53.8 17l1.5 2.6-6.8 3.9-1.5-2.6zM17 20.9l-1.5 2.6-6.8-3.9 1.4-2.6z"/><path fill="#FFD72E" d="M31 45h-6v-4c-3.9-2.4-7-6.1-7-11 0-7.5 6.5-14 14-14s14 6.5 14 14c0 4.9-3.1 8.6-7 11v4h-6"/><path fill="#93B9CC" d="M25 49h14c0 1.1-.9 2-2 2H27c-1.1 0-2-.9-2-2z"/><path fill="#A8DBEF" d="M25 47h14v2H25z"/><path fill="#93B9CC" d="M39 47H25v-2h14z"/><circle fill="#516F72" cx="34" cy="53" r="1"/><path fill="#FFFF6E" d="M37 34.6c0-2-1.7-3.4-5.1-4.1-2.6-.6-2.9-1.5-2.9-2.2 0-1.2 1.4-2.1 3-2.1 1.4 0 2.7.7 2.9 1.7l1.9-.5c-.4-1.6-2-2.8-3.9-3.1V22h-2v2.2c-2.3.4-4 2.1-4 4.1 0 3.1 3.4 3.9 4.5 4.1 1.6.3 3.5 1 3.5 2.2 0 1.2-1.4 2.1-3 2.1-1.4 0-2.7-.7-2.9-1.7l-1.9.5c.4 1.6 2 2.8 3.9 3.1V45h2v-6.4c2.3-.4 4-2 4-4z"/></svg>