<svg xmlns="http://www.w3.org/2000/svg" viewBox="0 0 64 64"><path fill="#A7DD73" d="M63 33.8v.5c-.3 2.4-2.7 3.8-5.1 3.5-.5-.1-1-.2-1.5-.4l-3.7-1.8c-1.7-.8-3.7-.9-5.5-.1l-4 1.7c-.8.3-1.7.5-2.6.5-1 0-2-.2-2.9-.6l-3-1.4c-1.8-.8-3.9-.8-5.7 0L26.2 37c-.9.4-1.9.6-2.9.6s-1.9-.2-2.9-.6l-2.9-1.4c-1.8-.8-3.8-.8-5.6-.1l-4.4 2c-.5.2-1 .3-1.5.4-2.4.3-4.8-1.2-5.1-3.6v-.5c0-1.2.5-2.4 1.4-3.2.9-.8 2.1-1.3 3.4-1.3h52.4c2.8 0 4.9 2 4.9 4.5z"/><path fill="#E15D23" d="M57.8 38.2c1.8.4 3.2 2 3.2 3.9 0 1.1-.4 2.1-1.2 2.8S58.1 46 57 46H7c-2.2 0-4-1.8-4-4 0-1.1.4-2.1 1.2-2.8.5-.5 1.2-.9 2-1.1.3 0 .5-.1.8-.1h50c.3.1.6.1.8.2z"/><path fill="#7C4E3E" d="M57.9 37.8v.3c-.3 0-.5-.1-.8-.1H40.5v-.4c.9 0 1.8-.2 2.6-.5l4-1.7c1.8-.7 3.8-.7 5.5.1l3.7 1.8c.6.3 1.1.5 1.6.5z"/><path fill="#F9B84E" d="M56.6 48.4V51c0 2.8-2.2 5-5 5H12c-2.8 0-5-2.2-5-5v-2.6C7 47.1 8.1 46 9.4 46h44.8c1.3 0 2.4 1.1 2.4 2.4zm.5-23.3c0 1.1-.5 2.2-1.2 2.9-.8.8-1.8 1.2-3 1.2H11.8c-2.3 0-4.2-1.9-4.2-4.2 0-5.6 2.2-10.6 5.9-14.2C17.2 7.2 22.2 5 27.7 5H37c11.1 0 20.1 9 20.1 20.1zM45 12.3c0-.6-.5-1-1-1s-1 .4-1 1 .5 1 1 1 1-.5 1-1zm-4 5c0-.6-.5-1-1-1s-1 .4-1 1c0 .5.5 1 1 1s1-.5 1-1zm-4-5c0-.6-.5-1-1-1s-1 .4-1 1 .5 1 1 1 1-.5 1-1zm-4 5c0-.6-.5-1-1-1s-1 .4-1 1c0 .5.5 1 1 1s1-.5 1-1zm-4-5c0-.6-.5-1-1-1s-1 .4-1 1 .5 1 1 1 1-.5 1-1zm-4 5c0-.6-.5-1-1-1s-1 .4-1 1c0 .5.5 1 1 1s1-.5 1-1zm-4-5c0-.6-.5-1-1-1s-1 .4-1 1 .5 1 1 1 1-.5 1-1z"/><circle fill="#FFFFD2" cx="44" cy="12.3" r="1"/><path fill="#7C4E3E" d="M40.5 37.7v.4H23.3v-.5c1 0 2-.2 2.9-.6l2.8-1.3c1.8-.8 3.9-.8 5.7 0l3 1.4c.8.3 1.8.6 2.8.6z"/><circle fill="#FFFFD2" cx="40" cy="17.3" r="1"/><circle fill="#FFFFD2" cx="36" cy="12.3" r="1"/><circle fill="#FFFFD2" cx="32" cy="17.3" r="1"/><circle fill="#FFFFD2" cx="28" cy="12.3" r="1"/><circle fill="#FFFFD2" cx="24" cy="17.3" r="1"/><path fill="#7C4E3E" d="M23.3 37.6v.5H7c-.3 0-.5 0-.8.1v-.3c.5 0 1-.2 1.5-.4l4.4-2c1.8-.8 3.8-.8 5.6.1l2.9 1.4c.8.4 1.8.6 2.7.6z"/><circle fill="#FFFFD2" cx="20" cy="12.3" r="1"/><g fill="#2C2C3D"><path d="M53 30.3H11.8c-2.9 0-5.2-2.3-5.2-5.2 0-5.6 2.2-10.9 6.2-14.9S22.1 4 27.7 4H37c11.6 0 21.1 9.5 21.1 21.1 0 1.4-.5 2.7-1.5 3.7-1 .9-2.3 1.5-3.6 1.5zM27.7 6c-5.1 0-9.9 2-13.5 5.6-3.6 3.6-5.6 8.4-5.6 13.5 0 1.7 1.4 3.2 3.2 3.2H53c.8 0 1.6-.3 2.2-.9.6-.6.9-1.4.9-2.2C56.1 14.6 47.6 6 37 6h-9.3zm23.9 51H12c-3.3 0-6-2.7-6-6v-2.6C6 46.5 7.5 45 9.4 45c.6 0 1 .4 1 1s-.4 1-1 1c-.8 0-1.4.6-1.4 1.4V51c0 2.2 1.8 4 4 4h39.6c2.2 0 4-1.8 4-4v-2.6c0-.8-.6-1.4-1.4-1.4-.6 0-1-.4-1-1s.4-1 1-1c1.9 0 3.4 1.5 3.4 3.4V51c0 3.3-2.7 6-6 6z"/><path d="M5.6 38.9C2.8 38.9.4 37 .1 34.4v-.6c0-1.5.6-2.9 1.7-3.9s2.5-1.6 4.1-1.6h52.4c3.2 0 5.8 2.5 5.8 5.5v.6c-.4 2.8-3.1 4.8-6.2 4.4-.7-.1-1.3-.3-1.8-.5l-3.7-1.8c-1.4-.7-3.2-.7-4.7-.1l-4 1.7c-2.1.8-4.3.8-6.3-.1l-3-1.4c-1.5-.7-3.4-.7-4.9 0l-2.8 1.3c-2 .9-4.5 1-6.6 0l-2.9-1.4c-1.5-.7-3.3-.7-4.7 0l-4.4 2c-.6.2-1.2.4-1.8.5-.3-.1-.5-.1-.7-.1zm.2-8.6c-1 0-2 .4-2.7 1-.7.7-1.1 1.6-1.1 2.5v.4c.2 1.8 2 2.7 3.5 2.7H6c.4 0 .8-.1 1.2-.3l4.4-2c2-.9 4.4-.9 6.4.1l2.9 1.4c1.5.7 3.4.7 4.9 0l2.8-1.3c2-1 4.5-.9 6.6 0l3 1.4c1.5.7 3.1.7 4.6.1l4-1.7c2-.8 4.4-.8 6.3.2l3.7 1.8c.4.2.8.3 1.2.3h.5c1.5 0 3.3-.9 3.5-2.7v-.4c0-1.9-1.7-3.5-3.8-3.5H5.8z"/><path d="M57 47H7c-2.7 0-5-2.2-5-5 0-1.3.5-2.6 1.5-3.5.6-.7 1.5-1.1 2.5-1.3.4-.1.7-.1 1-.1h50c.3 0 .6 0 1 .1 2.3.5 4 2.5 4 4.9 0 1.3-.5 2.6-1.5 3.5-.9.9-2.1 1.4-3.5 1.4zM7 39.1c-.2 0-.4 0-.6.1-.6.1-1.1.4-1.5.8-.6.5-.9 1.2-.9 2 0 1.6 1.3 3 3 3h50c.8 0 1.5-.3 2.1-.9.6-.6.9-1.3.9-2.1 0-1.4-1-2.6-2.4-2.9-.2 0-.4-.1-.6-.1H7z"/></g></svg>