<svg xmlns="http://www.w3.org/2000/svg" viewBox="0 0 64 64"><path fill="#5D717F" d="M58 6v52c0 2.8-2.2 5-5 5H10.9c-2.8 0-5-2.2-5-5V6c0-2.8 2.3-5 5-5H53c2.8 0 5 2.2 5 5zm-7 11.7V9c0-1.1-.9-2-2-2H14.7c-1.1 0-2 .9-2 2v8.7c0 1.1.9 2 2 2H49c1.1 0 2-.9 2-2zm-1 39.2V38.8c0-.6-.5-1-1-1h-6.2c-.5 0-1 .4-1 1v18.1c0 .6.5 1 1 1H49c.5 0 1-.4 1-1zM50 32v-5c0-.5-.5-1-1-1h-6.2c-.5 0-1 .5-1 1v5c0 .5.5 1 1 1H49c.5 0 1-.5 1-1zM36 56v-5c0-.5-.5-1-1-1h-6.2c-.6 0-1 .5-1 1v5c0 .5.4 1 1 1H35c.5 0 1-.5 1-1zm0-12v-5c0-.5-.5-1-1-1h-6.2c-.6 0-1 .5-1 1v5c0 .5.4 1 1 1H35c.5 0 1-.5 1-1zm0-12v-5c0-.5-.5-1-1-1h-6.2c-.6 0-1 .5-1 1v5c0 .5.4 1 1 1H35c.5 0 1-.5 1-1zM22.2 56v-5c0-.5-.5-1-1-1H15c-.6 0-1 .5-1 1v5c0 .5.4 1 1 1h6.2c.6 0 1-.5 1-1zm0-12v-5c0-.5-.5-1-1-1H15c-.6 0-1 .5-1 1v5c0 .5.4 1 1 1h6.2c.6 0 1-.5 1-1zm0-12v-5c0-.5-.5-1-1-1H15c-.6 0-1 .5-1 1v5c0 .5.4 1 1 1h6.2c.6 0 1-.5 1-1z"/><path fill="#ADED70" d="M51 9v8.7c0 1.1-.9 2-2 2H14.7c-1.1 0-2-.9-2-2V9c0-1.1.9-2 2-2H49c1.1 0 2 .9 2 2z"/><path fill="#F76D37" d="M50 38.8v18.1c0 .6-.5 1-1 1h-6.2c-.5 0-1-.4-1-1V38.8c0-.6.5-1 1-1H49c.5 0 1 .5 1 1z"/><path fill="#90BDD3" d="M50 27v5c0 .5-.5 1-1 1h-6.2c-.5 0-1-.5-1-1v-5c0-.5.5-1 1-1H49c.5 0 1 .5 1 1zM36 51v5c0 .5-.5 1-1 1h-6.2c-.6 0-1-.5-1-1v-5c0-.5.4-1 1-1H35c.5 0 1 .5 1 1zm0-12v5c0 .5-.5 1-1 1h-6.2c-.6 0-1-.5-1-1v-5c0-.5.4-1 1-1H35c.5 0 1 .5 1 1zm0-12v5c0 .5-.5 1-1 1h-6.2c-.6 0-1-.5-1-1v-5c0-.5.4-1 1-1H35c.5 0 1 .5 1 1zM22.2 51v5c0 .5-.5 1-1 1H15c-.6 0-1-.5-1-1v-5c0-.5.4-1 1-1h6.2c.6 0 1 .5 1 1zm0-12v5c0 .5-.5 1-1 1H15c-.6 0-1-.5-1-1v-5c0-.5.4-1 1-1h6.2c.6 0 1 .5 1 1zm0-12v5c0 .5-.5 1-1 1H15c-.6 0-1-.5-1-1v-5c0-.5.4-1 1-1h6.2c.6 0 1 .5 1 1z"/><g fill="#2C2C3D"><path d="M53 64H10.9c-3.3 0-6-2.7-6-6V6c0-3.3 2.7-6 6-6H53c3.3 0 6 2.7 6 6v52c0 3.3-2.7 6-6 6zM10.9 2c-2.2 0-4 1.8-4 4v52c0 2.2 1.8 4 4 4H53c2.2 0 4-1.8 4-4V6c0-2.2-1.8-4-4-4H10.9z"/><path d="M49 20.7H14.7c-1.7 0-3-1.3-3-3V9c0-1.7 1.3-3 3-3H49c1.7 0 3 1.3 3 3v8.7c0 1.7-1.3 3-3 3zM14.7 8c-.6 0-1 .4-1 1v8.7c0 .6.4 1 1 1H49c.6 0 1-.4 1-1V9c0-.6-.4-1-1-1H14.7zm6.5 26H15c-1.1 0-2-.9-2-2v-5c0-1.1.9-2 2-2h6.2c1.1 0 2 .9 2 2v5c0 1.1-.8 2-2 2zm0-2v1-1zM15 27v5h6.2v-5H15zm20 7h-6.2c-1.1 0-2-.9-2-2v-5c0-1.1.9-2 2-2H35c1.1 0 2 .9 2 2v5c0 1.1-.9 2-2 2zm0-2v1-1zm-6.2-5v5H35v-5h-6.2zM49 34h-6.2c-1.1 0-2-.9-2-2v-5c0-1.1.9-2 2-2H49c1.1 0 2 .9 2 2v5c0 1.1-.9 2-2 2zm0-2v1-1zm-6.2-5v5H49v-5h-6.2zM21.2 46H15c-1.1 0-2-.9-2-2v-5c0-1.1.9-2 2-2h6.2c1.1 0 2 .9 2 2v5c0 1.1-.8 2-2 2zm0-2v1-1zM15 39v5h6.2v-5H15zm20 7h-6.2c-1.1 0-2-.9-2-2v-5c0-1.1.9-2 2-2H35c1.1 0 2 .9 2 2v5c0 1.1-.9 2-2 2zm0-2v1-1zm-6.2-5v5H35v-5h-6.2zM49 58.9h-6.2c-1.1 0-2-.9-2-2V38.8c0-1.1.9-2 2-2H49c1.1 0 2 .9 2 2v18.1c0 1.1-.9 2-2 2zm0-2v1-1zm-6.2-18.1v18.1H49V38.8h-6.2zM21.2 58H15c-1.1 0-2-.9-2-2v-5c0-1.1.9-2 2-2h6.2c1.1 0 2 .9 2 2v5c0 1.1-.8 2-2 2zm0-2v1-1zM15 51v5h6.2v-5H15zm20 7h-6.2c-1.1 0-2-.9-2-2v-5c0-1.1.9-2 2-2H35c1.1 0 2 .9 2 2v5c0 1.1-.9 2-2 2zm0-2v1-1zm-6.2-5v5H35v-5h-6.2z"/></g></svg>