<svg xmlns="http://www.w3.org/2000/svg" viewBox="0 0 64 64"><path fill="#EAEBEF" d="M63 21.6v35.3c0 3.3-2.7 6-6 6H7c-3.3 0-6-2.7-6-6V21.6h62zM55 38v-8h-8v8h8zM42 54v-8h-8v8h8zm0-16v-8h-8v8h8zM29 54v-8h-8v8h8zm0-16v-8h-8v8h8zM16 54v-8H8v8h8zm0-16v-8H8v8h8z"/><path fill="#FFF7D7" d="M34 46h8v8h-8z"/><path fill="#FFF" d="M47 30h8v8h-8zm-26 0h8v8h-8zm13 0h8v8h-8zM8 30h8v8H8zm13 16h8v8h-8zM8 46h8v8H8z"/><path fill="#F44E57" d="M18 6.1h39c3.3 0 6 2.7 6 6v9.5H1v-9.5c0-3.3 2.7-6 6-6h11z"/><g fill="#2C2C3D"><path d="M57 63.9H7c-3.9 0-7-3.1-7-7V12.1c0-3.9 3.1-7 7-7h50c3.9 0 7 3.1 7 7v44.8c0 3.9-3.1 7-7 7zM7 7.1c-2.8 0-5 2.2-5 5v44.8c0 2.8 2.2 5 5 5h50c2.8 0 5-2.2 5-5V12.1c0-2.8-2.2-5-5-5H7z"/><path d="M17 0h2v14h-2zm28 0h2v14h-2zM1 20.6h62v2H1zM16 39H8c-.6 0-1-.4-1-1v-8c0-.6.4-1 1-1h8c.6 0 1 .4 1 1v8c0 .6-.4 1-1 1zm-7-2h6v-6H9v6zm7 18H8c-.6 0-1-.4-1-1v-8c0-.6.4-1 1-1h8c.6 0 1 .4 1 1v8c0 .6-.4 1-1 1zm-7-2h6v-6H9v6zm20-14h-8c-.6 0-1-.4-1-1v-8c0-.6.4-1 1-1h8c.6 0 1 .4 1 1v8c0 .6-.4 1-1 1zm-7-2h6v-6h-6v6zm7 18h-8c-.6 0-1-.4-1-1v-8c0-.6.4-1 1-1h8c.6 0 1 .4 1 1v8c0 .6-.4 1-1 1zm-7-2h6v-6h-6v6zm20-14h-8c-.6 0-1-.4-1-1v-8c0-.6.4-1 1-1h8c.6 0 1 .4 1 1v8c0 .6-.4 1-1 1zm-7-2h6v-6h-6v6zm7 18h-8c-.6 0-1-.4-1-1v-8c0-.6.4-1 1-1h8c.6 0 1 .4 1 1v8c0 .6-.4 1-1 1zm-7-2h6v-6h-6v6zm20-14h-8c-.6 0-1-.4-1-1v-8c0-.6.4-1 1-1h8c.6 0 1 .4 1 1v8c0 .6-.4 1-1 1zm-7-2h6v-6h-6v6z"/></g></svg>