<svg xmlns="http://www.w3.org/2000/svg" viewBox="0 0 64 64"><path fill="#586077" d="M20 22h3c0 1.1.9 2 2 2s2-.9 2-2h8l.1.2C29.8 24.5 26 29.8 26 36c0 8.3 6.7 15 15 15H20V22z"/><path fill="#9199B5" d="M20 49v4c0 2.2-1.9 4-4.1 4H5c-2.2 0-4-1.8-4-4v-4h19z"/><path fill="#586077" d="M20 22v27H1V19h19z"/><path fill="#9199B5" d="M63 51v2c0 2.2-1.8 4-4 4H15.9c2.2 0 4.1-1.8 4.1-4v-2h43z"/><path fill="#586077" d="M8 8h5c1.1 0 2 .9 2 2v2H6v-2c0-1.1.9-2 2-2z"/><path fill="#9199B5" d="M20 16v3H1v-3c0-2.2 1.8-4 4-4h10.9c2.2 0 4.1 1.8 4.1 4z"/><path fill="#FCDA4F" d="M25 20c1.1 0 2 .9 2 2s-.9 2-2 2-2-.9-2-2 .9-2 2-2z"/><path fill="#586077" d="M50.5 8.2L54 16H28l3.5-7.8c.3-.7 1-1.2 1.8-1.2h15.4c.8 0 1.5.5 1.8 1.2zM63 22v29H41c8.3 0 15-6.7 15-15 0-6.2-3.8-11.5-9.1-13.8l.1-.2h16z"/><path fill="#9199B5" d="M63 20v2H47l-.1.2c-1.8-.8-3.8-1.2-5.9-1.2s-4.1.4-5.9 1.2L35 22h-8c0-1.1-.9-2-2-2s-2 .9-2 2h-3v-6h39c2.2 0 4 1.8 4 4z"/><path fill="#9199B5" d="M46.9 22.2C52.2 24.5 56 29.8 56 36c0 8.3-6.7 15-15 15s-15-6.7-15-15c0-6.2 3.8-11.5 9.1-13.8 1.8-.8 3.8-1.2 5.9-1.2s4.1.4 5.9 1.2zM52 36c0-6.1-4.9-11-11-11s-11 4.9-11 11 4.9 11 11 11 11-4.9 11-11z"/><path fill="#62C3F4" d="M41 25c6.1 0 11 4.9 11 11s-4.9 11-11 11-11-4.9-11-11 4.9-11 11-11z"/><path fill="#2C2C3D" d="M15 13c-.6 0-1-.4-1-1v-2c0-.6-.4-1-1-1H8c-.6 0-1 .4-1 1v2c0 .6-.4 1-1 1s-1-.4-1-1v-2c0-1.7 1.3-3 3-3h5c1.7 0 3 1.3 3 3v2c0 .6-.4 1-1 1z"/><path fill="#2C2C3D" d="M15.9 58c-.6 0-1-.4-1-1s.4-1 1-1c1.7 0 3.1-1.4 3.1-3V16c0-1.6-1.4-3-3.1-3H5c-1.7 0-3 1.3-3 3v37c0 1.7 1.3 3 3 3h8c.6 0 1 .4 1 1s-.4 1-1 1H5c-2.8 0-5-2.2-5-5V16c0-2.8 2.2-5 5-5h10.9c2.8 0 5.1 2.2 5.1 5v37c0 2.8-2.3 5-5.1 5zM41 52c-8.8 0-16-7.2-16-16 0-6.4 3.8-12.2 9.7-14.7 4-1.7 8.6-1.7 12.6 0C53.2 23.8 57 29.6 57 36c0 8.8-7.2 16-16 16zm0-30c-1.9 0-3.8.4-5.5 1.1C30.3 25.3 27 30.4 27 36c0 7.7 6.3 14 14 14s14-6.3 14-14c0-5.6-3.3-10.7-8.5-12.9-1.7-.7-3.6-1.1-5.5-1.1z"/><path fill="#2C2C3D" d="M41 48c-6.6 0-12-5.4-12-12s5.4-12 12-12 12 5.4 12 12-5.4 12-12 12zm0-22c-5.5 0-10 4.5-10 10s4.5 10 10 10 10-4.5 10-10-4.5-10-10-10z"/><path fill="#FFF" d="M34 37c-.6 0-1-.4-1-1 0-4.4 3.6-8 8-8 .6 0 1 .4 1 1s-.4 1-1 1c-3.3 0-6 2.7-6 6 0 .6-.4 1-1 1z"/><path fill="#2C2C3D" d="M59 58H13c-.6 0-1-.4-1-1s.4-1 1-1h46c1.7 0 3-1.3 3-3V20c0-1.7-1.3-3-3-3h-5c-.4 0-.8-.2-.9-.6l-3.5-7.8c-.1-.4-.5-.6-.9-.6H33.3c-.4 0-.8.2-.9.6l-3.5 7.8c-.1.4-.5.6-.9.6h-8c-.6 0-1-.4-1-1s.4-1 1-1h7.3l3.2-7.2C31 6.7 32.1 6 33.3 6h15.4c1.2 0 2.3.7 2.7 1.8l3.2 7.2H59c2.8 0 5 2.2 5 5v33c0 2.8-2.2 5-5 5z"/><path fill="#2C2C3D" d="M25 25c-1.7 0-3-1.3-3-3s1.3-3 3-3 3 1.3 3 3-1.3 3-3 3zm0-4c-.6 0-1 .4-1 1s.4 1 1 1 1-.4 1-1-.4-1-1-1zm-5-1H1c-.6 0-1-.4-1-1s.4-1 1-1h19c.6 0 1 .4 1 1s-.4 1-1 1z"/><path fill="#2C2C3D" d="M23 23h-3c-.6 0-1-.4-1-1s.4-1 1-1h3c.6 0 1 .4 1 1s-.4 1-1 1zm12 0h-8c-.6 0-1-.4-1-1s.4-1 1-1h8c.6 0 1 .4 1 1s-.4 1-1 1zm28 0H47c-.6 0-1-.4-1-1s.4-1 1-1h16c.6 0 1 .4 1 1s-.4 1-1 1zm-9-6H28c-.6 0-1-.4-1-1s.4-1 1-1h26c.6 0 1 .4 1 1s-.4 1-1 1zM20 50H1c-.6 0-1-.4-1-1s.4-1 1-1h19c.6 0 1 .4 1 1s-.4 1-1 1zm43 2H20c-.6 0-1-.4-1-1s.4-1 1-1h43c.6 0 1 .4 1 1s-.4 1-1 1z"/></svg>