<svg xmlns="http://www.w3.org/2000/svg" viewBox="0 0 64 64"><path fill="#A6AFBC" d="M63 37v2.2c0 .5-.5 1-1 1h-4.3c-.3-1.1-.8-2.1-1.5-3l.2-.2H63z"/><path fill="#398DD3" d="M63 33.2V37h-6.5l-.2.2c-1.5-1.8-3.7-3-6.2-3-3.7 0-6.8 2.5-7.7 6H20.7c-.9-3.5-4-6-7.7-6-2.4 0-4.6 1.1-6.1 2.8l-.2-.2H1.2c1.1-5.9 5.8-6 5.8-6l2.5-3.7 6.4-.6 7.5-4.8c3.8-2.4 8.1-3.8 12.6-4.1 4.7-.3 9.3.7 13.4 2.8 3.8 1.9 8 4 8.5 4.4l.6.3 1.5 6.1 3 2zm-21.1-6l12.6-.5c-.4-.3-3.8-2-6.9-3.6-2.1-1.1-4.3-1.8-6.6-2.1-1.5-.2-3-.3-4.5-.2l-1.2.1c-3.6.3-7 1.5-10 3.5l-5.6 3.7 22.2-.9z"/><path fill="#F1455B" d="M63 26.2v7l-3-2-1.5-6.1c1.4.7 3 1.1 4.5 1.1z"/><path fill="#B6DEFC" d="M54.5 26.7l-12.6.5-1-6v-.3c2.3.3 4.5 1 6.6 2.1 3.1 1.7 6.5 3.4 7 3.7z"/><path fill="#565D68" d="M50 36.7c3 0 5.5 2.5 5.5 5.5S53 47.7 50 47.7s-5.5-2.5-5.5-5.5c0-3.1 2.5-5.5 5.5-5.5zm2.3 5.5c0-1.3-1-2.3-2.3-2.3s-2.3 1-2.3 2.3c0 1.3 1 2.3 2.3 2.3s2.3-1.1 2.3-2.3z"/><path fill="#A6AFBC" d="M50 39.9c1.3 0 2.3 1 2.3 2.3 0 1.3-1 2.3-2.3 2.3s-2.3-1-2.3-2.3c0-1.3 1-2.3 2.3-2.3z"/><path fill="#B6DEFC" d="M40.9 21.3l1 6-22.2.9 5.6-3.7c3-2 6.4-3.2 10-3.5l1.2-.1c1.5-.1 3 0 4.5.2l-.1.2z"/><path fill="#565D68" d="M13 36.7c3 0 5.5 2.5 5.5 5.5S16 47.7 13 47.7s-5.5-2.5-5.5-5.5c0-3.1 2.5-5.5 5.5-5.5zm2.3 5.5c0-1.3-1-2.3-2.3-2.3s-2.3 1-2.3 2.3c0 1.3 1 2.3 2.3 2.3s2.3-1.1 2.3-2.3z"/><path fill="#A6AFBC" d="M13 39.9c1.3 0 2.3 1 2.3 2.3 0 1.3-1 2.3-2.3 2.3s-2.3-1-2.3-2.3c0-1.3 1-2.3 2.3-2.3z"/><path fill="#FFF" d="M9.5 27.1L7 30.8s-4.8.1-5.8 6l.2-3.2c.2-3.3 2.8-5.9 6-6.3l2.1-.2z"/><path fill="#A6AFBC" d="M6.7 36.8l.2.2c-.8.9-1.3 1.9-1.6 3.1L2 40c-.5 0-1-.5-1-1l.2-2.2h5.5z"/><g fill="#2C2C3D"><path d="M55 25.8c-.4-.3-2.8-1.5-6.7-3.5l-.3-.1c-2.2-1.1-4.5-1.9-6.9-2.2-1.5-.2-3.1-.3-4.7-.2l-1.2.1c-3.7.3-7.4 1.6-10.5 3.7l-5.6 3.7c-.4.2-.5.7-.4 1.1.1.4.5.7 1 .7l34.8-1.4c.4 0 .8-.3.9-.7.1-.5 0-.9-.4-1.2zm-29.2-.6c2.8-1.9 6.2-3.1 9.5-3.4l1.2-.1h1.3c.7 0 1.4.1 2.1.1l.7 4.4-17.4.8 2.6-1.8zm16.9 1l-.7-4c1.7.4 3.4.9 5 1.8l.3.1c1.1.6 2.3 1.2 3.4 1.8l-8 .3zm-2.9 3.6H37c-.6 0-1 .4-1 1s.4 1 1 1h2.8c.6 0 1-.4 1-1s-.4-1-1-1zM13 35.7c-3.6 0-6.5 2.9-6.5 6.5s2.9 6.5 6.5 6.5 6.5-2.9 6.5-6.5-2.9-6.5-6.5-6.5zm0 11c-2.5 0-4.5-2-4.5-4.5s2-4.5 4.5-4.5 4.5 2 4.5 4.5-2 4.5-4.5 4.5zm37-11c-3.6 0-6.5 2.9-6.5 6.5s2.9 6.5 6.5 6.5 6.5-2.9 6.5-6.5-2.9-6.5-6.5-6.5zm0 11c-2.5 0-4.5-2-4.5-4.5s2-4.5 4.5-4.5 4.5 2 4.5 4.5-2 4.5-4.5 4.5z"/><path d="M63 25.2c-1.4 0-2.8-.3-4-1-.2-.1-.3-.2-.5-.3-.6-.4-5.6-2.9-8.6-4.4-4.3-2.2-9.1-3.2-13.9-2.9-4.7.3-9.2 1.7-13.1 4.2l-7.3 4.7-8.3.8c-3.7.5-6.6 3.5-6.8 7.2L0 39c0 1.1.9 2 2 2l3.3.1c.5 0 .9-.3 1-.7.3-1 .8-1.9 1.4-2.7C9 36.1 11 35.2 13 35.2c3.2 0 6 2.2 6.8 5.2.1.4.5.8 1 .8h21.5c.5 0 .9-.3 1-.8.8-3.1 3.6-5.2 6.8-5.2 2.1 0 4.1 1 5.5 2.6.6.8 1.1 1.7 1.3 2.6.1.4.5.8 1 .8H62c1.1 0 2-.9 2-2v-13c0-.6-.4-1-1-1zm-1 6.1l-1.1-.7-.9-3.9c.7.2 1.3.3 2 .4v4.2zm-54.5-3l-1 1.5c-.9.1-2.2.5-3.3 1.4.9-1.5 2.4-2.7 4.3-2.9zM2 39.1l.1-1.3h3.1c-.2.4-.4.8-.6 1.3H2zm48-5.9c-3.8 0-7.2 2.4-8.5 6h-20c-1.3-3.6-4.6-6-8.5-6-2.4 0-4.7 1-6.3 2.6H2.5c1.2-3.9 4.4-4 4.6-4 .3 0 .6-.2.8-.4l2.2-3.3 5.9-.6c.2 0 .3-.1.4-.2l7.5-4.8c3.6-2.3 7.8-3.7 12.1-3.9 4.5-.3 8.9.7 12.9 2.7 4.8 2.4 8 4.1 8.5 4.4.1 0 .1.1.2.1l1.4 5.6c.1.2.2.5.4.6l2.6 1.7V36h-5.5c-1.7-1.8-4-2.8-6.5-2.8zm8.5 6c-.1-.4-.3-.8-.5-1.2h4v1.2h-3.5z"/><path d="M13 38.9c-1.8 0-3.3 1.5-3.3 3.3s1.5 3.3 3.3 3.3 3.3-1.5 3.3-3.3-1.5-3.3-3.3-3.3zm0 4.6c-.7 0-1.3-.6-1.3-1.3s.6-1.3 1.3-1.3 1.3.6 1.3 1.3-.6 1.3-1.3 1.3zm37-4.6c-1.8 0-3.3 1.5-3.3 3.3s1.5 3.3 3.3 3.3 3.3-1.5 3.3-3.3-1.5-3.3-3.3-3.3zm0 4.6c-.7 0-1.3-.6-1.3-1.3s.6-1.3 1.3-1.3 1.3.6 1.3 1.3-.6 1.3-1.3 1.3z"/></g></svg>