<svg xmlns="http://www.w3.org/2000/svg" viewBox="0 0 64 64"><path fill="#F2ECE2" d="M63 6v40c0 1.1-.9 2-2 2h-9v-3c2.4-1.8 4-4.7 4-8 0-5.5-4.5-10-10-10s-10 4.5-10 10c0 3.3 1.6 6.2 4 8v3H3c-1.1 0-2-.9-2-2V6c0-1.1.9-2 2-2h58c1.1 0 2 .9 2 2zM24 39v-4H8v4h16z"/><path fill="#EFCA11" d="M46 27c5.5 0 10 4.5 10 10 0 3.3-1.6 6.2-4 8-1.7 1.2-3.8 2-6 2s-4.3-.8-6-2c-2.4-1.8-4-4.7-4-8 0-5.5 4.5-10 10-10zm5 10c0-2.8-2.2-5-5-5s-5 2.2-5 5 2.2 5 5 5 5-2.2 5-5z"/><path fill="#834BEF" d="M40 48v-3c1.7 1.2 3.8 2 6 2s4.3-.8 6-2v15l-6-4-6 4V48z"/><circle fill="#FCEA81" cx="46" cy="37" r="5"/><path fill="#316CFF" d="M8 35h16v4H8z"/><g fill="#2D2D2D"><path d="M61 3H3C1.3 3 0 4.3 0 6v40c0 1.7 1.3 3 3 3h36v12.9l7-4.7 7 4.7V49h8c1.7 0 3-1.3 3-3V6c0-1.7-1.3-3-3-3zM51 58.1l-5-3.3-5 3.3V46.8c1.5.8 3.2 1.2 5 1.2 1.8 0 3.5-.4 5-1.2v11.3zm.4-13.9C49.8 45.4 48 46 46 46s-3.8-.6-5.4-1.8C38.3 42.5 37 39.9 37 37c0-5 4-9 9-9s9 4 9 9c0 2.9-1.3 5.5-3.6 7.2zM62 46c0 .6-.4 1-1 1h-8v-1.5c2.5-2.1 4-5.2 4-8.5 0-6.1-4.9-11-11-11s-11 4.9-11 11c0 3.3 1.5 6.4 4 8.5V47H3c-.6 0-1-.4-1-1V6c0-.6.4-1 1-1h58c.6 0 1 .4 1 1v40z"/><path d="M7 16h48v2H7zm0 6h30v2H7zm0-12h48v2H7zm39 21c-3.3 0-6 2.7-6 6s2.7 6 6 6 6-2.7 6-6-2.7-6-6-6zm0 10c-2.2 0-4-1.8-4-4s1.8-4 4-4 4 1.8 4 4-1.8 4-4 4zM7 40h18v-6H7v6zm2-4h14v2H9v-2z"/></g></svg>