<svg xmlns="http://www.w3.org/2000/svg" viewBox="0 0 64 64"><path fill="#E89D3A" d="M63 22v30L1 62v-8c3.5-.2 6.2-3.1 6.2-6.5S4.5 41.3 1 41v-9l41.5-6.7c.6 2.7 3.1 4.7 6 4.7 3.4 0 6.2-2.7 6.2-6 0-.3 0-.6-.1-.9l.4-.1 8-1zM52.7 44.5c0-1.9-1.6-3.5-3.6-3.5s-3.6 1.6-3.6 3.5S47 48 49 48s3.7-1.6 3.7-3.5zm-14.5 0c0-3-2.5-5.5-5.7-5.5s-5.7 2.5-5.7 5.5 2.5 5.5 5.7 5.5 5.7-2.5 5.7-5.5zM18.6 40c0-1.7-1.4-3-3.1-3-1.7 0-3.1 1.3-3.1 3s1.4 3 3.1 3c1.7 0 3.1-1.3 3.1-3z"/><path fill="#F4CD76" d="M63 22l-8 1-.4.1c-.5-2.9-3-5.1-6.1-5.1-3.4 0-6.2 2.7-6.2 6 0 .5 0 .9.2 1.3L1 32 31 3c12.8 1.9 25.4 8.7 32 19z"/><path fill="#CE7515" d="M42.5 25.3c-.1-.4-.2-.9-.2-1.3 0-3.3 2.8-6 6.2-6 3.1 0 5.7 2.2 6.1 5.1.1.3.1.6.1.9 0 3.3-2.8 6-6.2 6-2.9 0-5.4-2-6-4.7zM49 41c2 0 3.6 1.6 3.6 3.5S51 48 49 48s-3.6-1.6-3.6-3.5S47 41 49 41zm-16.5-2c3.1 0 5.7 2.5 5.7 5.5S35.7 50 32.5 50s-5.7-2.5-5.7-5.5 2.6-5.5 5.7-5.5zm-17-2c1.7 0 3.1 1.3 3.1 3s-1.4 3-3.1 3c-1.7 0-3.1-1.3-3.1-3s1.4-3 3.1-3z"/><g fill="#2C2C3D"><path d="M1 63c-.2 0-.5-.1-.6-.2-.3-.2-.4-.5-.4-.8v-8c0-.5.4-1 .9-1 3-.2 5.3-2.6 5.3-5.5S3.9 42.2.9 42c-.5 0-.9-.4-.9-1v-9c0-.3.1-.5.3-.7l30-29c.2-.2.5-.3.8-.3 13.8 2 26.3 9.5 32.7 19.4.1.2.2.4.2.5v30c0 .5-.4.9-.8 1l-62 10c-.1.1-.1.1-.2.1zm1-8.2v6l60-9.7V22.3C55.9 13 44.2 6.1 31.3 4.1L2 32.4v7.7c3.5.7 6.2 3.8 6.2 7.3S5.5 54.2 2 54.8z"/><path d="M62.843 21.012l.248 1.985L55.053 24l-.248-1.984zM1.2 33l-.4-2 42.4-6.8.3 2-.9.1zm31.3 18c-3.7 0-6.7-2.9-6.7-6.5s3-6.5 6.7-6.5 6.7 2.9 6.7 6.5-3 6.5-6.7 6.5zm0-11c-2.6 0-4.7 2-4.7 4.5s2.1 4.5 4.7 4.5 4.7-2 4.7-4.5-2.1-4.5-4.7-4.5zM49 49c-2.5 0-4.6-2-4.6-4.5S46.5 40 49 40s4.6 2 4.6 4.5-2 4.5-4.6 4.5zm0-7c-1.4 0-2.6 1.1-2.6 2.5S47.6 47 49 47s2.6-1.1 2.6-2.5S50.5 42 49 42z"/><path d="M48.5 31c-3.3 0-6.3-2.3-7-5.5-.1-.5-.2-1-.2-1.5 0-3.9 3.2-7 7.2-7 3.6 0 6.6 2.5 7.1 5.9.1.3.1.7.1 1.1 0 3.9-3.2 7-7.2 7zm0-12c-2.9 0-5.2 2.2-5.2 5 0 .4 0 .7.1 1.1.5 2.3 2.7 3.9 5.1 3.9 2.9 0 5.2-2.2 5.2-5 0-.3 0-.5-.1-.7-.3-2.5-2.5-4.3-5.1-4.3zm-33 25c-2.3 0-4.1-1.8-4.1-4s1.8-4 4.1-4 4.1 1.8 4.1 4-1.9 4-4.1 4zm0-6c-1.2 0-2.1.9-2.1 2s.9 2 2.1 2 2.1-.9 2.1-2-1-2-2.1-2z"/></g></svg>