<svg xmlns="http://www.w3.org/2000/svg" viewBox="0 0 64 64"><path fill="#FFF" d="M32 52H15.6L15 37C8.7 35.6 4 30.7 4 24c0-7.7 6.3-14 14-14 .3 0 .6 0 .9.1C20.9 4.8 26 1 32 1s11.1 3.8 13.1 9.1c.3 0 .6-.1.9-.1 7.7 0 14 6.3 14 14 0 7-4.2 12-11 13l-.6 15H32z"/><path fill="#F2EDDF" d="M15.6 52h32.8L48 63H16z"/><g fill="#2C2C3D"><path d="M48 53H16c-.6 0-1-.4-1-1s.4-1 1-1h32c.6 0 1 .4 1 1s-.4 1-1 1z"/><path d="M48 64H16c-.5 0-1-.4-1-1l-1-25.2C7.4 36 3 30.6 3 24 3 15.7 9.7 9 18 9h.3c2.4-5.4 7.8-9 13.7-9s11.4 3.6 13.7 9h.3c8.3 0 15 6.7 15 15 0 7.3-4.2 12.5-11 13.9L49 63c0 .6-.5 1-1 1zm-31-2h30l1-25c0-.5.4-.9.9-1 6.2-.9 10.1-5.5 10.1-12 0-7.2-5.8-13-13-13h-.9c-.4 0-.8-.2-1-.6C42.2 5.4 37.4 2 32 2s-10.2 3.4-12.1 8.4c-.2.4-.6.7-1 .6H18c-7.2 0-13 5.8-13 13 0 6 4 10.7 10.2 12 .4.1.8.5.8.9L17 62z"/><path d="M24 53c-.6 0-1-.4-1-1V41c0-.6.4-1 1-1s1 .4 1 1v11c0 .6-.4 1-1 1zm16 0c-.6 0-1-.4-1-1V41c0-.6.4-1 1-1s1 .4 1 1v11c0 .6-.4 1-1 1zm-8 0c-.6 0-1-.4-1-1V35c0-.6.4-1 1-1s1 .4 1 1v17c0 .6-.4 1-1 1z"/></g></svg>