<svg xmlns="http://www.w3.org/2000/svg" viewBox="0 0 64 64"><path fill="#F9F7E4" d="M35 32c0-1.7-1.3-3-3-3s-3 1.3-3 3 1.3 3 3 3 3-1.3 3-3zM14.3 49.7C9.8 45.2 7 38.9 7 32s2.8-13.2 7.3-17.7S25.1 7 32 7s13.2 2.8 17.7 7.3S57 25.1 57 32s-2.8 13.2-7.3 17.7S38.9 57 32 57s-13.2-2.8-17.7-7.3z"/><path fill="#FCDA4F" d="M29 32c0-1.7 1.3-3 3-3s3 1.3 3 3-1.3 3-3 3-3-1.3-3-3z"/><path fill="#8E85C6" d="M32 1c17.1 0 31 13.9 31 31S49.1 63 32 63 1 49.1 1 32 14.9 1 32 1zm25 31c0-6.9-2.8-13.2-7.3-17.7S38.9 7 32 7s-13.2 2.8-17.7 7.3S7 25.1 7 32s2.8 13.2 7.3 17.7S25.1 57 32 57s13.2-2.8 17.7-7.3S57 38.9 57 32z"/><g fill="#2C2C3D"><path d="M32 64C14.4 64 0 49.6 0 32S14.4 0 32 0s32 14.4 32 32-14.4 32-32 32zm0-62C15.5 2 2 15.5 2 32s13.5 30 30 30 30-13.5 30-30S48.5 2 32 2z"/><path d="M32 58c-6.9 0-13.5-2.7-18.4-7.6S6 38.9 6 32s2.7-13.5 7.6-18.4S25.1 6 32 6s13.5 2.7 18.4 7.6S58 25.1 58 32s-2.7 13.5-7.6 18.4S38.9 58 32 58zm0-50c-6.4 0-12.4 2.5-17 7S8 25.6 8 32s2.5 12.4 7 17 10.6 7 17 7 12.4-2.5 17-7 7-10.6 7-17-2.5-12.4-7-17-10.6-7-17-7z"/><path d="M43 33h-7c-.6 0-1-.4-1-1s.4-1 1-1h7c.6 0 1 .4 1 1s-.4 1-1 1zm-11-4c-.6 0-1-.4-1-1V17c0-.6.4-1 1-1s1 .4 1 1v11c0 .6-.4 1-1 1zm0-16c-.6 0-1-.4-1-1V7c0-.6.4-1 1-1s1 .4 1 1v5c0 .6-.4 1-1 1zm0 45c-.6 0-1-.4-1-1v-5c0-.6.4-1 1-1s1 .4 1 1v5c0 .6-.4 1-1 1zm25-25h-5c-.6 0-1-.4-1-1s.4-1 1-1h5c.6 0 1 .4 1 1s-.4 1-1 1zm-45 0H7c-.6 0-1-.4-1-1s.4-1 1-1h5c.6 0 1 .4 1 1s-.4 1-1 1zm37.7 17.7c-.3 0-.5-.1-.7-.3l-3.5-3.5c-.4-.4-.4-1 0-1.4s1-.4 1.4 0l3.5 3.5c.4.4.4 1 0 1.4-.2.2-.5.3-.7.3zM17.9 18.9c-.3 0-.5-.1-.7-.3L13.6 15c-.4-.4-.4-1 0-1.4s1-.4 1.4 0l3.5 3.5c.4.4.4 1 0 1.4-.1.3-.4.4-.6.4zm-3.6 31.8c-.3 0-.5-.1-.7-.3-.4-.4-.4-1 0-1.4l3.5-3.5c.4-.4 1-.4 1.4 0s.4 1 0 1.4L15 50.4c-.2.2-.4.3-.7.3zm31.8-31.8c-.3 0-.5-.1-.7-.3-.4-.4-.4-1 0-1.4l3.5-3.5c.4-.4 1-.4 1.4 0s.4 1 0 1.4l-3.5 3.5c-.1.2-.4.3-.7.3z"/><path d="M32 36c-2.2 0-4-1.8-4-4s1.8-4 4-4 4 1.8 4 4-1.8 4-4 4zm0-6c-1.1 0-2 .9-2 2s.9 2 2 2 2-.9 2-2-.9-2-2-2z"/></g></svg>