<svg xmlns="http://www.w3.org/2000/svg" viewBox="0 0 64 64"><path fill="#DFE4EA" d="M51.6 28.9C57.9 28.9 63 34 63 40.2c0 6.2-5.1 11.3-11.4 11.3H12.4C6.1 51.5 1 46.4 1 40.2c0-5.5 4.1-10.1 9.3-11.1v-.7c0-4.8 3.9-8.7 8.8-8.7 1 0 2 .2 2.9.5 2.4-5.1 7.6-8.7 13.6-8.7 8.3 0 15 6.7 15 14.9 0 .9-.1 1.7-.2 2.6h1.2z"/><path fill="#2C2C3D" d="M51.6 52.5H12.4C5.5 52.5 0 47 0 40.2c0-5.6 3.9-10.5 9.3-11.9 0-5.3 4.4-9.6 9.8-9.6.8 0 1.6.1 2.4.3 2.8-5.2 8.2-8.5 14.2-8.5 8.8 0 16 7.1 16 15.9 0 .5 0 1-.1 1.6h.1c6.8 0 12.4 5.5 12.4 12.3-.1 6.7-5.6 12.2-12.5 12.2zM19.1 20.7c-4.3 0-7.8 3.5-7.8 7.7v.6c0 .5-.3 1-.8 1.1C5.6 31 2 35.3 2 40.2c0 5.7 4.7 10.3 10.4 10.3h39.3c5.7 0 10.4-4.6 10.4-10.3s-4.7-10.3-10.4-10.3h-1.3c-.3 0-.6-.1-.8-.4s-.3-.5-.2-.8c.2-.8.2-1.6.2-2.4 0-7.6-6.3-13.9-14-13.9-5.5 0-10.4 3.2-12.7 8.1-.2.5-.8.7-1.2.5-.9-.1-1.7-.3-2.6-.3z"/></svg>