<svg xmlns="http://www.w3.org/2000/svg" viewBox="0 0 64 64"><path fill="#2C2C3D" d="M18 14c-.2 0-.5-.1-.6-.3-.1-.1-1.9-1.7-.2-5.2 1-2 .2-2.8.2-2.9-.4-.4-.4-1 0-1.4.4-.4 1-.4 1.4-.1.1.1 1.9 1.7.2 5.2-1 2-.2 2.8-.2 2.9.4.4.4 1 0 1.4-.3.3-.6.4-.8.4z"/><path fill="#6C625F" d="M44.7 51c5.1 1.3 8.3 3.1 8.3 5.1 0 3.8-11.4 6.9-25.5 6.9S2 59.9 2 56.1c0-2 3.2-3.8 8.2-5.1l.1-.1c.4.5.9 1 1.4 1.5 4.1 4.1 9.7 6.6 15.9 6.6 6.8 0 13-3.1 17.1-8z"/><path fill="#8B7F7B" d="M44.7 51c-4.1 4.9-10.3 8-17.2 8-6.2 0-11.8-2.5-15.9-6.6-.5-.5-.9-1-1.4-1.5C7 47 5 42 5 36.5v-8.2c0 2.4 10.1 4.4 22.5 4.4 11.9 0 21.6-1.8 22.4-4v7.8c0 1.1-.1 2.1-.2 3.2-.6 4.3-2.4 8.1-5 11.3z"/><path fill="#F96A53" d="M49.9 24.5v4.2c-.8 2.3-10.6 4-22.4 4-12.4 0-22.5-2-22.5-4.4v-6c0 2.4 10.1 4.4 22.5 4.4 11.9 0 21.6-1.8 22.4-4v1.8z"/><path fill="#DFD7D5" d="M49.9 22v.7c-.8 2.3-10.6 4-22.4 4C15.1 26.7 5 24.8 5 22.4S15.1 18 27.5 18c11.9 0 21.6 1.8 22.4 4z"/><g fill="#2C2C3D"><path d="M27.5 60c-6.3 0-12.2-2.4-16.6-6.9-.5-.5-1-1-1.4-1.6C5.9 47.4 4 42 4 36.5V22h2v14.5c0 5 1.8 9.9 5 13.8.4.5.8.9 1.3 1.4 4.1 4.1 9.4 6.3 15.2 6.3 6.4 0 12.4-2.8 16.5-7.7 2.6-3.1 4.2-6.8 4.8-10.8.1-1 .2-2 .2-3V21.7h2v14.8c0 1.1-.1 2.2-.2 3.3-.6 4.3-2.4 8.4-5.2 11.8C41 56.9 34.4 60 27.5 60z"/><path d="M53.4 40.7H50v-2h3.4c1.8 0 3.4-.7 4.7-1.9 1.3-1.3 1.9-2.9 1.9-4.7 0-3.7-3-6.6-6.6-6.6H50v-2h3.4c4.8 0 8.6 3.9 8.6 8.6 0 2.3-.9 4.5-2.5 6.1-1.7 1.6-3.8 2.5-6.1 2.5z"/><path d="M27.5 27.7c-1 0-23.5-.1-23.5-5.4S26.5 17 27.5 17c8 0 22 1 23.4 4.7.1.2.1.4.1.7 0 .3-.1.5-.2.7-1.3 3.7-15.3 4.6-23.3 4.6zm0-8.7C14 19 6.4 21.2 6 22.4c.4 1.2 7.9 3.3 21.5 3.3 13.5 0 21-2.2 21.5-3.4-.5-1.1-8-3.3-21.5-3.3zm0 45C14.3 64 1 61.3 1 56.1c0-3.1 4.9-5 8.9-6l.5 1.9C4.9 53.3 3 55 3 56.1c0 2.5 9.3 5.9 24.5 5.9S52 58.5 52 56.1c0-1.1-2-2.8-7.5-4.1-.2-.1-.3-.1-.5-.1l.4-2c.2 0 .4.1.6.1 4.1 1 9 2.9 9 6.1 0 5.2-13.3 7.9-26.5 7.9zm0-30.3c-1 0-23.5-.1-23.5-5.4h2c.4 1.2 7.9 3.4 21.5 3.4 13.5 0 21-2.2 21.5-3.4h2c0 .3-.1.5-.2.7-1.3 3.8-15.3 4.7-23.3 4.7z"/></g><path fill="#2C2C3D" d="M38.7 14c-.2 0-.5-.1-.7-.2-.2-.2-1.8-1.6-.3-5.2 1-2.1.3-2.9.3-2.9-.4-.4-.5-1-.1-1.4.4-.4 1-.5 1.4-.1.2.2 1.8 1.6.3 5.2-.9 2.1-.2 2.9-.2 2.9.4.4.5 1 .1 1.4-.2.2-.5.3-.8.3zm-9.9 0c-.3 0-.6-.2-.8-.4-.1-.1-2-3.1 0-6.6 1.4-2.4.1-4.4 0-4.4-.3-.5-.2-1.1.3-1.4.5-.3 1.1-.2 1.4.3.1.1 2 3.1 0 6.6-1.4 2.4-.1 4.4 0 4.4.3.5.2 1.1-.3 1.4-.3 0-.5.1-.6.1z"/></svg>