<svg xmlns="http://www.w3.org/2000/svg" viewBox="0 0 64 64"><path fill="#F96A53" d="M32 0c17.7 0 32 14.3 32 32S49.7 64 32 64 0 49.7 0 32 14.3 0 32 0z"/><path fill="#DFD7D5" d="M49 49c-9.4 9.4-24.6 9.4-33.9 0S5.7 24.4 15 15s24.6-9.3 34 0 9.3 24.6 0 34z"/><circle fill="#564947" cx="32" cy="31.7" r="18"/><path fill="#FFF" d="M32 51.7c-5.3 0-10.4-2.1-14.1-5.9C14 42 12 37 12 31.7s2.1-10.4 5.9-14.1c3.8-3.8 8.8-5.9 14.1-5.9s10.4 2.1 14.1 5.9c3.8 3.8 5.9 8.8 5.9 14.1S49.9 42 46.1 45.8c-3.8 3.8-8.8 5.9-14.1 5.9zm0-36c-4.3 0-8.3 1.7-11.3 4.7s-4.7 7-4.7 11.3C16 36 17.7 40 20.7 43s7 4.7 11.3 4.7S40.3 46 43.3 43 48 36 48 31.7c0-4.3-1.7-8.3-4.7-11.3-3-3.1-7.1-4.7-11.3-4.7z"/><circle fill="#A58777" cx="24.1" cy="31.8" r=".7"/><circle fill="#A58777" cx="38.3" cy="41.5" r="1.4"/><path fill="#A58777" d="M42.3 23.8c-2.6-3.6-7-5.9-11.9-5.4-5.9.6-10.7 5.1-11.6 10.9-.5 3.3.3 6.4 1.8 8.9.2.3.6.1.5-.2-.6-1.9-.7-4-.3-6.1.8-3.9 3.3-7.3 6.8-9 .3.3.7.6 1.2.6.8 0 1.5-.7 1.5-1.5v-.1l1.2-.3c3.9-.6 7.5.5 10.3 2.7.3.2.7-.2.5-.5z"/><circle fill="#A58777" cx="24" cy="34" r=".6"/><circle fill="#A58777" cx="25.8" cy="33.1" r=".5"/><circle fill="#A58777" cx="31" cy="23.1" r=".5"/><path fill="#FFF" d="M47.3 50.2l-3.5-3.5c-1.2-1.2-1.2-3.1 0-4.3 1.2-1.2 3.1-1.2 4.3 0l3.5 3.5c1.2 1.2 1.2 3.1 0 4.3-1.2 1.1-3.1 1.1-4.3 0z"/><g fill="#564947"><circle cx="30.5" cy="19.5" r=".5"/><circle cx="31.8" cy="20" r=".3"/></g></svg>