<svg xmlns="http://www.w3.org/2000/svg" viewBox="0 0 64 64"><path fill="#9FCCE2" d="M63 32c0 2.9-2.3 5.2-5.2 5.2h-2.6c-.6 2.7-1.7 5.3-3.2 7.6l1.9 1.9c1 1 1.5 2.3 1.5 3.7s-.5 2.6-1.5 3.6c-2 2-5.3 2-7.3 0l-1.8-2c-2.3 1.5-4.8 2.5-7.6 3.2v2.6c0 2.8-2.3 5.2-5.2 5.2-2.9 0-5.2-2.3-5.2-5.2v-2.6c-2.7-.6-5.3-1.7-7.6-3.2l-1.9 1.9c-1 1-2.3 1.5-3.6 1.5s-2.6-.5-3.6-1.5c-2-2-2-5.3 0-7.3l1.9-1.9c-1.5-2.3-2.5-4.8-3.1-7.6H6.2C3.3 37.2 1 34.9 1 32c0-2.9 2.3-5.2 5.2-5.2h2.6c.6-2.7 1.7-5.3 3.1-7.6L10 17.3c-1-1-1.5-2.3-1.5-3.6s.5-2.6 1.5-3.6c2-2 5.3-2 7.3 0l1.9 1.9c2.3-1.5 4.9-2.5 7.6-3.1V6.2C26.8 3.3 29.1 1 32 1c2.9 0 5.2 2.3 5.2 5.2v2.6c2.7.6 5.3 1.7 7.6 3.1l1.9-1.9c1-1 2.3-1.5 3.7-1.5S53 9 54 10c2 2 2 5.3 0 7.3l-2 1.9c1.5 2.3 2.5 4.9 3.2 7.6h2.6c2.9 0 5.2 2.3 5.2 5.2zm-19 0c0-6.6-5.4-12-12-12s-12 5.4-12 12 5.4 12 12 12 12-5.4 12-12z"/><g fill="#2D2D2D"><path d="M32 19c-7.2 0-13 5.8-13 13s5.8 13 13 13 13-5.8 13-13-5.8-13-13-13zm0 24c-6.1 0-11-4.9-11-11s4.9-11 11-11 11 4.9 11 11-4.9 11-11 11z"/><path d="M57.8 25.8H56c-.6-2.3-1.5-4.4-2.7-6.4l1.3-1.3c1.2-1.2 1.8-2.7 1.8-4.4 0-1.6-.6-3.2-1.8-4.4-1.2-1.2-2.7-1.8-4.4-1.8-1.6 0-3.2.6-4.4 1.8l-1.3 1.3c-2-1.2-4.2-2.1-6.4-2.7V6.2C38.2 2.8 35.4 0 32 0c-3.4 0-6.2 2.8-6.2 6.2V8c-2.3.6-4.4 1.5-6.4 2.7l-1.3-1.3c-1.2-1.2-2.7-1.8-4.4-1.8-1.6 0-3.2.6-4.4 1.8-1.2 1.2-1.8 2.7-1.8 4.4 0 1.6.6 3.2 1.8 4.4l1.3 1.3c-1.2 2-2.1 4.2-2.7 6.4H6.2C2.8 25.8 0 28.6 0 32c0 3.4 2.8 6.2 6.2 6.2H8c.6 2.3 1.5 4.4 2.7 6.4l-1.3 1.3c-1.2 1.2-1.8 2.7-1.8 4.4 0 1.6.6 3.2 1.8 4.4 1.2 1.2 2.7 1.8 4.4 1.8 1.6 0 3.2-.6 4.4-1.8l1.3-1.3c2 1.2 4.2 2.1 6.4 2.7V58c0 3.4 2.8 6.2 6.2 6.2 3.4 0 6.2-2.8 6.2-6.2v-2c2.3-.6 4.4-1.5 6.4-2.7l1.3 1.3c1.2 1.2 2.7 1.8 4.4 1.8 1.6 0 3.2-.6 4.4-1.8 1.2-1.2 1.8-2.7 1.8-4.4 0-1.6-.6-3.2-1.8-4.4l-1.3-1.3c1.2-2 2.1-4.2 2.7-6.4h1.9c3.4 0 6.2-2.8 6.2-6.2-.3-3.3-3.1-6.1-6.5-6.1zm0 10.4h-3.4l-.2.8c-.6 2.6-1.6 5-3 7.3l-.4.7 2.4 2.4c.8.8 1.2 1.8 1.2 2.9 0 1.1-.4 2.2-1.2 2.9-.8.8-1.8 1.2-2.9 1.2-1.1 0-2.2-.4-2.9-1.2L45 50.8l-.7.4c-2.2 1.4-4.7 2.4-7.3 3l-.8.2v3.4c0 2.3-1.9 4.2-4.2 4.2-2.3 0-4.2-1.9-4.2-4.2v-3.4l-.8-.2c-2.6-.6-5-1.6-7.3-3l-.7-.4-2.4 2.4c-.8.8-1.8 1.2-2.9 1.2-1.1 0-2.2-.4-2.9-1.2-.8-.8-1.2-1.8-1.2-2.9 0-1.1.4-2.2 1.2-2.9l2.4-2.4-.4-.7c-1.4-2.2-2.4-4.7-3-7.3l-.2-.8H6.2C3.9 36.2 2 34.3 2 32c0-2.3 1.9-4.2 4.2-4.2h3.4l.2-.8c.6-2.6 1.6-5 3-7.3l.4-.7-2.4-2.4c-.8-.8-1.2-1.8-1.2-2.9 0-1.1.4-2.2 1.2-2.9.8-.8 1.8-1.2 2.9-1.2 1.1 0 2.2.4 2.9 1.2l2.4 2.4.7-.4c2.2-1.4 4.7-2.4 7.3-3l.8-.2V6.2C27.8 3.9 29.7 2 32 2c2.3 0 4.2 1.9 4.2 4.2v3.4l.8.2c2.6.6 5 1.6 7.3 3l.7.4 2.4-2.4c.8-.8 1.8-1.2 2.9-1.2 1.1 0 2.2.4 2.9 1.2.8.8 1.2 1.8 1.2 2.9 0 1.1-.4 2.2-1.2 2.9L50.8 19l.4.7c1.4 2.2 2.4 4.7 3 7.3l.2.8h3.4c2.3 0 4.2 1.9 4.2 4.2 0 2.3-1.9 4.2-4.2 4.2z"/></g></svg>