<svg xmlns="http://www.w3.org/2000/svg" viewBox="0 0 64 64"><path fill="#FFA000" d="M63 37.5v12c0 3.6-9.6 6.5-19 6.5-3.3 0-6.4-.4-9-1V43c2.6.6 5.7 1 9 1 9.4 0 19-2.9 19-6.5z"/><path fill="#FFA000" d="M63 25.5v12c0 3.6-9.6 6.5-19 6.5-3.3 0-6.4-.4-9-1V31c2.6.6 5.7 1 9 1 9.4 0 19-2.9 19-6.5z"/><path fill="#FFC107" d="M44 19c9.4 0 19 2.9 19 6.5S53.4 32 44 32c-3.3 0-6.4-.4-9-1V20c2.6-.6 5.7-1 9-1z"/><path fill="#FFA000" d="M35 55v1c0 3.6-7.6 6.5-17 6.5S1 59.6 1 56V44c0 3.6 7.6 6.5 17 6.5s17-2.9 17-6.5v11z"/><path fill="#FFA000" d="M35 43v1c0 3.6-7.6 6.5-17 6.5S1 47.6 1 44V32c0 3.6 7.6 6.5 17 6.5s17-2.9 17-6.5v11z"/><path fill="#FFA000" d="M35 31v1c0 3.6-7.6 6.5-17 6.5S1 35.6 1 32V20c0 3.6 7.6 6.5 17 6.5s17-2.9 17-6.5v11z"/><path fill="#FFA000" d="M35 20c0 3.6-7.6 6.5-17 6.5S1 23.6 1 20V8.5C1 12.1 8.6 15 18 15s17-2.9 17-6.5V20z"/><ellipse fill="#FFC107" cx="18" cy="8.5" rx="17" ry="6.5"/><path fill="#2D2D2D" d="M64 25c-.8-4.6-11.9-7-20-7-2.8 0-5.5.3-8 .8V8h-.1c-.6-4.5-9.5-7-17.9-7S.7 3.5.1 8H0v48c0 4.9 9.3 7.5 18 7.5 8.6 0 17.7-2.6 18-7.3 2.5.5 5.2.8 8 .8 8.4 0 20-2.6 20-7.5V25zm-2 .5C62 28 53.7 31 44 31c-2.8 0-5.6-.3-8-.8v-9.4c2.4-.5 5.2-.8 8-.8 9.7 0 18 3 18 5.5zM18 3c9.4 0 16 2.9 16 5.5S27.4 14 18 14 2 11.1 2 8.5 8.6 3 18 3zM2 12.1c3.2 2.6 9.7 3.9 16 3.9s12.8-1.4 16-3.9V20c0 2.6-6.6 5.5-16 5.5S2 22.6 2 20v-7.9zm0 11.5c3.2 2.6 9.7 3.9 16 3.9s12.8-1.4 16-3.9V32c0 2.6-6.6 5.5-16 5.5S2 34.6 2 32v-8.4zm0 12c3.2 2.6 9.7 3.9 16 3.9s12.8-1.4 16-3.9V44c0 2.6-6.6 5.5-16 5.5S2 46.6 2 44v-8.4zm16 25.9c-9.4 0-16-2.9-16-5.5v-8.4c3.2 2.6 9.7 3.9 16 3.9s12.8-1.4 16-3.9V56c0 2.6-6.6 5.5-16 5.5zM44 55c-2.8 0-5.5-.3-8-.8v-10c2.5.5 5.2.8 8 .8 6.3 0 14.3-1.5 18-4.2v8.7C62 52 53.7 55 44 55zm0-12c-2.8 0-5.6-.3-8-.8v-10c2.5.5 5.2.8 8 .8 6.3 0 14.3-1.5 18-4.2v8.7C62 40 53.7 43 44 43z"/></svg>