<svg xmlns="http://www.w3.org/2000/svg" viewBox="0 0 64 64"><path fill="#F9D45F" d="M8 44v-7c0-.5.4-1 1-1h11c.5 0 1 .5 1 1v7c0 .5-.5 1-1 1H9c-.6 0-1-.5-1-1zm5-6h-1v1H9v1h3v1H9v1h3v1h1v-5zm7 3h-3v-1h3v-1h-3v-1h-1v5h1v-1h3v-1z"/><path fill="#EFAF3F" d="M17 41h3v1h-3v1h-1v-5h1v1h3v1h-3zm-8 0h3v-1H9v-1h3v-1h1v5h-1v-1H9z"/><path fill="#8087E0" d="M63 27v23c0 1.1-.9 2-2 2H3c-1.1 0-2-.9-2-2V27h62zM21 44v-7c0-.5-.5-1-1-1H9c-.6 0-1 .5-1 1v7c0 .5.4 1 1 1h11c.5 0 1-.5 1-1zM1 19v-6c0-1.1.9-2 2-2h58c1.1 0 2 .9 2 2v6H1z"/><path fill="#5C5C77" d="M1 19h62v8H1z"/><g fill="#2C2C3D"><path d="M61 53H3c-1.7 0-3-1.3-3-3V13c0-1.7 1.3-3 3-3h58c1.7 0 3 1.3 3 3v37c0 1.7-1.3 3-3 3zM3 12c-.6 0-1 .4-1 1v37c0 .6.4 1 1 1h58c.6 0 1-.4 1-1V13c0-.6-.4-1-1-1H3z"/><path d="M63 20H1c-.6 0-1-.4-1-1s.4-1 1-1h62c.6 0 1 .4 1 1s-.4 1-1 1zm0 8H1c-.6 0-1-.4-1-1s.4-1 1-1h62c.6 0 1 .4 1 1s-.4 1-1 1zm-8 10H33c-.6 0-1-.4-1-1s.4-1 1-1h22c.6 0 1 .4 1 1s-.4 1-1 1zm-9 5H33c-.6 0-1-.4-1-1s.4-1 1-1h13c.6 0 1 .4 1 1s-.4 1-1 1zm-26 3H9c-1.1 0-2-.9-2-2v-7c0-1.1.9-2 2-2h11c1.1 0 2 .9 2 2v7c0 1.1-.9 2-2 2zm0-2v1-1zM9 37v7h11v-7H9z"/></g></svg>