<svg xmlns="http://www.w3.org/2000/svg" viewBox="-49 141 512 512"><path d="M284.092 564.149a7.506 7.506 0 0 0 5.095 1.986c2.035 0 4.064-.82 5.55-2.437l24.146-26.284a22.643 22.643 0 0 0 7.889 1.412c12.545 0 22.752-10.207 22.752-22.752 0-9.905-6.365-18.348-15.218-21.465v-51.438a7.533 7.533 0 0 0-7.534-7.534 7.533 7.533 0 0 0-7.534 7.534v51.438c-8.854 3.117-15.218 11.559-15.218 21.465 0 4.279 1.189 8.285 3.252 11.707l-23.63 25.722a7.535 7.535 0 0 0 .45 10.646zm42.68-55.76c4.237 0 7.684 3.447 7.684 7.684 0 4.238-3.447 7.684-7.684 7.684s-7.684-3.447-7.684-7.684c-.001-4.236 3.447-7.684 7.684-7.684z"/><path d="M431.349 428.844V290.195a7.511 7.511 0 0 0 .259-1.932v-81.545a7.533 7.533 0 0 0-7.534-7.534h-47.07V171.96c0-16.484-13.411-29.895-29.894-29.895-16.484 0-29.894 13.411-29.894 29.895v27.226H65.652V171.96c0-16.484-13.411-29.895-29.894-29.895S5.864 155.477 5.864 171.96v27.226h-47.33A7.533 7.533 0 0 0-49 206.72v364.129a7.533 7.533 0 0 0 7.534 7.534h247.705c22.657 43.656 68.29 73.554 120.779 73.554 74.981 0 135.982-61.002 135.982-135.981 0-33.118-11.904-63.502-31.651-87.112zM332.285 171.96c0-8.176 6.652-14.827 14.826-14.827 8.176 0 14.826 6.652 14.826 14.827v58.909c0 1.022-.104 2.02-.301 2.984-1.385 6.75-7.372 11.843-14.525 11.843-8.176 0-14.826-6.652-14.826-14.827V171.96zm-311.353 0c0-8.176 6.651-14.827 14.826-14.827s14.826 6.652 14.826 14.827v58.909c0 8.176-6.652 14.827-14.826 14.827s-14.826-6.652-14.826-14.827V171.96zM5.864 214.253v16.616c0 16.484 13.41 29.895 29.894 29.895s29.894-13.411 29.894-29.895v-16.616h251.566v16.616c0 16.484 13.411 29.895 29.894 29.895 16.484 0 29.894-13.411 29.894-29.895v-16.616h39.278v66.477H-33.673v-66.477H5.864zm193.649 349.061H-33.933V295.797h450.215v117.584a136.051 136.051 0 0 0-33.251-21.329c-.449-.204-.903-.398-1.355-.597-.458-.201-.914-.406-1.374-.602-.805-.344-1.615-.676-2.428-1.005l-.31-.127a134.798 134.798 0 0 0-20.91-6.486v-44.268a7.533 7.533 0 0 0-7.534-7.534h-48.54a7.533 7.533 0 0 0-7.534 7.534v45.302C234.45 399.394 191.037 452.7 191.037 515.954c0 1.117.016 2.231.042 3.343.006.255.017.509.025.763.026.888.058 1.776.101 2.661.01.212.023.424.035.636.051.972.114 1.943.185 2.911l.021.28c.967 12.642 3.66 24.944 8.067 36.766zm108.601-183.342V346.5h33.473v33.472h-33.473zm18.904 256.896c-62.497 0-114.072-47.661-120.286-108.546l-.008-.087c-.096-.957-.182-1.919-.257-2.882-.016-.207-.027-.416-.042-.623a121.63 121.63 0 0 1-.155-2.428c-.023-.458-.038-.917-.056-1.376-.024-.585-.051-1.168-.067-1.754-.027-1.07-.043-2.143-.043-3.217 0-66.672 54.243-120.915 120.915-120.915 1.075 0 2.148.015 3.219.043.187.005.373.016.56.021.896.028 1.792.061 2.685.108.142.007.281.019.423.027.948.054 1.895.116 2.841.192.068.006.137.013.206.018a120.834 120.834 0 0 1 39.973 10.376c.432.197.859.401 1.289.603.441.206.883.411 1.322.622.771.374 1.539.755 2.301 1.145.075.038.151.075.226.114 39.075 20.062 65.871 60.783 65.871 107.643-.002 66.674-54.244 120.916-120.917 120.916z"/><path d="M381.833 586.41c-15.791 12.303-34.744 18.807-54.814 18.807-49.22 0-89.263-40.043-89.263-89.263 0-19.587 6.222-38.175 17.993-53.754a7.534 7.534 0 0 0-12.022-9.083c-13.764 18.217-21.039 39.946-21.039 62.838 0 57.528 46.802 104.33 104.33 104.33 23.457 0 45.614-7.603 64.075-21.989a7.533 7.533 0 0 0 1.312-10.572 7.528 7.528 0 0 0-10.572-1.314zm-54.815-174.787c-23.868 0-46.331 7.846-64.962 22.687a7.535 7.535 0 0 0 9.389 11.784c15.935-12.696 35.152-19.405 55.573-19.405 49.22 0 89.264 40.043 89.264 89.263 0 20.447-6.726 39.684-19.451 55.631a7.534 7.534 0 0 0 11.776 9.397c14.878-18.643 22.741-41.13 22.741-65.028.001-57.526-46.802-104.329-104.33-104.329zm-244.73-80.191h-48.54a7.533 7.533 0 0 0-7.534 7.534v48.539a7.533 7.533 0 0 0 7.534 7.534h48.54a7.533 7.533 0 0 0 7.534-7.534v-48.539a7.534 7.534 0 0 0-7.534-7.534zm-7.534 48.54H41.282V346.5h33.473l-.001 33.472zm96.478-48.54h-48.54a7.533 7.533 0 0 0-7.534 7.534v48.539a7.533 7.533 0 0 0 7.534 7.534h48.54a7.533 7.533 0 0 0 7.534-7.534v-48.539a7.535 7.535 0 0 0-7.534-7.534zm-7.534 48.54h-33.473V346.5h33.473v33.472zm47.938 15.068h48.54a7.533 7.533 0 0 0 7.534-7.534v-48.539a7.533 7.533 0 0 0-7.534-7.534h-48.54a7.533 7.533 0 0 0-7.534 7.534v48.539a7.535 7.535 0 0 0 7.534 7.534zm7.534-48.54h33.473v33.472H219.17V346.5zM82.288 435.639h-48.54a7.533 7.533 0 0 0-7.534 7.534v48.54a7.533 7.533 0 0 0 7.534 7.534h48.54a7.533 7.533 0 0 0 7.534-7.534v-48.54a7.533 7.533 0 0 0-7.534-7.534zm-7.534 48.54H41.282v-33.473h33.473l-.001 33.473zm96.478-48.54h-48.54a7.533 7.533 0 0 0-7.534 7.534v48.54a7.533 7.533 0 0 0 7.534 7.534h48.54a7.533 7.533 0 0 0 7.534-7.534v-48.54a7.534 7.534 0 0 0-7.534-7.534zm-7.534 48.54h-33.473v-33.473h33.473v33.473z"/></svg>