<svg xmlns="http://www.w3.org/2000/svg" viewBox="0 0 64 64"><path fill="#76E2FF" d="M48 15l.2.3-.7.7L32 31 16.5 16l-1.1-1z"/><path fill="#2C2C3D" d="M32 32c-.3 0-.5-.1-.7-.3l-31-30C0 1.4-.1 1 0 .6.2.2.5 0 1 0h62c.4 0 .8.2.9.6.2.4.1.8-.2 1.1l-31 30c-.2.2-.5.3-.7.3zM3.4 2L32 29.6 60.5 2H3.4z"/><path fill="#2C2C3D" d="M32 64c-.6 0-1-.4-1-1V31c0-.6.4-1 1-1s1 .4 1 1v32c0 .6-.4 1-1 1z"/><path fill="#2C2C3D" d="M43.8 64H20.2c-.6 0-1-.4-1-1s.4-1 1-1h23.5c.6 0 1 .4 1 1s-.4 1-.9 1zM15 14h33v2H15z"/></svg>