<svg xmlns="http://www.w3.org/2000/svg" viewBox="0 0 64 64"><path fill="#FFBF40" d="M51 5c6.6 0 12 5.4 12 12s-5.4 12-12 12c-3.1 0-5.9-1.2-8-3.1l-.3-.2L50 17H39c0-6.6 5.4-12 12-12z"/><path fill="#B185E0" d="M27 44.6L16.7 32.2l.3-.2h20l.3.2z"/><g fill="#2C2C3D"><path d="M27 45.6c-.3 0-.6-.1-.8-.4l-23-27.6c-.2-.3-.3-.7-.1-1.1.2-.3.5-.5.9-.5h46c.4 0 .7.2.9.6.2.4.1.8-.1 1.1l-23 27.6c-.2.2-.5.3-.8.3zM6.1 18L27 43l20.9-25H6.1z"/><path d="M27 64c-.6 0-1-.4-1-1V44c0-.6.4-1 1-1s1 .4 1 1v19c0 .6-.4 1-1 1z"/><path d="M37 64H17c-.6 0-1-.4-1-1s.4-1 1-1h20c.6 0 1 .4 1 1s-.4 1-1 1zm14-34c-3.2 0-6.3-1.2-8.7-3.3-.4-.4-.4-1-.1-1.4.4-.4 1-.4 1.4-.1 2 1.8 4.6 2.8 7.3 2.8 6.1 0 11-4.9 11-11S57.1 6 51 6s-11 4.9-11 11c0 .6-.4 1-1 1s-1-.4-1-1c0-7.2 5.8-13 13-13s13 5.8 13 13-5.8 13-13 13zM17 18c-.4 0-.8-.2-.9-.6L10.3 2H1c-.6 0-1-.4-1-1s.4-1 1-1h10c.4 0 .8.3.9.6l6 16c.2.5-.1 1.1-.6 1.3-.1.1-.2.1-.3.1zm20 15H17c-.6 0-1-.4-1-1s.4-1 1-1h20c.6 0 1 .4 1 1s-.4 1-1 1z"/></g></svg>