<svg xmlns="http://www.w3.org/2000/svg" viewBox="0 0 64 64"><path fill="#DFE7EA" d="M26 24.9c-1.2.5-2.5.7-3.9.7-1 0-2-.1-2.9-.4-1.3-.3-2.5-.9-3.5-1.7C14 22.2 13 20.3 13 18h18c0 3.3-2 5.8-5 6.9z"/><path fill="#FB3" d="M22.1 25.6c1.4 0 2.7-.2 3.9-.7v.1l.3 9h-7.5l.2-8 .2-.8c.9.3 1.9.4 2.9.4z"/><path fill="#DFE7EA" d="M50 9v30.6h-6.6c-3.1-.7-5.4-3.4-5.4-6.6V15c0-8 4.2-12.2 12-14v8z"/><path fill="#FC724C" d="M50 39.7V63c-4.4 0-7.6-3.6-7.6-8l1-15.4H50v.1zM26.3 34l.7 24.3c0 2.6-2 4.7-4.5 4.7-1.2 0-2.4-.5-3.2-1.4-.8-.8-1.3-2-1.3-3.3l.8-24.3h7.5z"/><g fill="#2C2C3D"><path d="M50 64c-4.8 0-8.6-4-8.6-9l.9-14.7c-3.1-1-5.3-4-5.3-7.3V15c0-8.2 4.2-13.1 12.8-15 .3-.1.6 0 .8.2.3.2.4.5.4.8v62c0 .6-.4 1-1 1zM49 2.3C42.1 4.2 39 8.1 39 15v18c0 2.7 1.9 5 4.6 5.6.5.1.8.5.8 1l-1 15.4c0 3.6 2.4 6.4 5.6 6.9V2.3zM22.5 64c-1.5 0-2.9-.6-3.9-1.7-1-1-1.6-2.5-1.6-4L18 26c0-.6.5-1 1-1 .6 0 1 .5 1 1l-1 32.3c0 .9.4 1.9 1 2.6.7.7 1.5 1.1 2.5 1.1 1.9 0 3.5-1.7 3.5-3.7L25 25c0-.6.4-1 1-1 .5 0 1 .4 1 1l1 33.3c0 3.2-2.5 5.7-5.5 5.7z"/><path d="M22.1 26.6c-1.1 0-2.1-.1-3.1-.4-1.4-.4-2.8-1-3.9-1.9-2-1.6-3.1-3.8-3.1-6.3V1c0-.6.4-1 1-1s1 .4 1 1v17c0 1.9.8 3.5 2.3 4.7.9.7 2 1.2 3.1 1.5 2 .5 4.3.4 6.2-.3 2.7-1 4.4-3.2 4.4-5.9V1c0-.6.4-1 1-1s1 .4 1 1v17c0 3.6-2.1 6.5-5.7 7.8-1.3.5-2.7.8-4.2.8z"/><path d="M19 18c-.6 0-1-.4-1-1V1c0-.6.4-1 1-1s1 .4 1 1v16c0 .6-.4 1-1 1zm6 0c-.6 0-1-.4-1-1V1c0-.6.4-1 1-1s1 .4 1 1v16c0 .6-.4 1-1 1zm25 22.6h-6.6c-.6 0-1-.4-1-1s.4-1 1-1H50c.6 0 1 .4 1 1s-.4 1-1 1zM26 35h-7c-.6 0-1-.4-1-1s.4-1 1-1h7c.6 0 1 .4 1 1s-.4 1-1 1z"/><path d="M31 19H13c-.6 0-1-.4-1-1s.4-1 1-1h18c.6 0 1 .4 1 1s-.4 1-1 1z"/></g></svg>