<svg xmlns="http://www.w3.org/2000/svg" viewBox="0 0 64 64"><path fill="#FFF" d="M62.8 31.4c.3.4.3.9 0 1.3C60.1 35.8 46.6 50 32 50S3.9 35.7 1.2 32.6c-.3-.4-.3-.9 0-1.3C3.9 28.3 17.4 14 32 14s28.1 14.2 30.8 17.4zM45 32c0-7.2-5.8-13-13-13s-13 5.8-13 13 5.8 13 13 13 13-5.8 13-13z"/><path fill="#6DC3F7" d="M32 19c7.2 0 13 5.8 13 13s-5.8 13-13 13-13-5.8-13-13 5.8-13 13-13zm8 8.5c0-1.9-1.6-3.5-3.5-3.5-1.1 0-2 .5-2.7 1.2-.6-.1-1.2-.2-1.8-.2-3.9 0-7 3.1-7 7s3.1 7 7 7 7-3.1 7-7c0-.6-.1-1.2-.2-1.8.7-.7 1.2-1.6 1.2-2.7z"/><path fill="#FFF" d="M38.8 30.2c-.6.5-1.4.8-2.2.8-1.9 0-3.5-1.6-3.5-3.5 0-.9.3-1.6.8-2.3.6-.8 1.6-1.2 2.7-1.2 1.9 0 3.5 1.6 3.5 3.5-.1 1.1-.6 2-1.3 2.7z"/><path fill="#3F97E0" d="M38.8 30.2c.2.6.2 1.2.2 1.8 0 3.9-3.1 7-7 7s-7-3.1-7-7 3.1-7 7-7c.6 0 1.2.1 1.8.2-.5.6-.8 1.4-.8 2.3 0 1.9 1.6 3.5 3.5 3.5.8 0 1.7-.3 2.3-.8z"/><g fill="#2C2C3D"><path d="M32 51C15.7 51 1.1 34 .5 33.3c-.6-.7-.6-1.8 0-2.6C1.1 30 15.7 13 32 13c16.2 0 30.9 17 31.5 17.7.6.8.6 1.8 0 2.6C62.9 34 48.2 51 32 51zm0-36C16.7 15 2.6 31.3 2 32c.6.7 14.7 17 30 17s29.4-16.3 30-17c-.6-.7-14.7-17-30-17z"/><path d="M32 46c-7.7 0-14-6.3-14-14s6.3-14 14-14 14 6.3 14 14-6.3 14-14 14zm0-26c-6.6 0-12 5.4-12 12s5.4 12 12 12 12-5.4 12-12-5.4-12-12-12z"/><path d="M32 40c-4.4 0-8-3.6-8-8s3.6-8 8-8c.7 0 1.4.1 2.1.3.5.1.8.7.7 1.2-.1.5-.7.8-1.2.7-.5-.1-1-.2-1.6-.2-3.3 0-6 2.7-6 6s2.7 6 6 6 6-2.7 6-6c0-.5-.1-1-.2-1.6v-.3c0-.6.4-1 1-1 .5 0 .9.3 1 .8.2.7.3 1.3.3 2C40 36.4 36.4 40 32 40z"/><path d="M36.5 32C34 32 32 30 32 27.5c0-1.1.4-2.1 1.1-2.9.8-1 2.1-1.6 3.4-1.6 2.5 0 4.5 2 4.5 4.5 0 1.3-.6 2.6-1.6 3.4-.8.7-1.8 1.1-2.9 1.1zm0-7c-.7 0-1.4.3-1.9.9-.4.5-.6 1-.6 1.6 0 1.4 1.1 2.5 2.5 2.5.6 0 1.2-.2 1.6-.6.6-.5.9-1.2.9-1.9 0-1.4-1.1-2.5-2.5-2.5z"/></g></svg>