<svg xmlns="http://www.w3.org/2000/svg" viewBox="0 0 64 64"><path fill="#B6C8CE" d="M30.5 20.6h2.8C48.2 21.2 60 33.5 60 48.5H4c0-14.9 11.7-27.1 26.5-27.9z"/><path fill="#6C7D82" d="M60.9 52.7H3l-2-4.2h62z"/><path fill="#B6C8CE" d="M31.8 11.4c1.7 0 3.1 1.4 3.1 3.1 0 1.2-.6 2.2-1.6 2.7-.5.3-1 .4-1.5.4s-.9-.1-1.3-.3c-1.1-.5-1.8-1.6-1.8-2.8 0-1.7 1.4-3.1 3.1-3.1z"/><path fill="#6C7D82" d="M33.3 20.5h-2.8v-3.2c.4.2.9.3 1.3.3.6 0 1.1-.1 1.5-.4v3.3z"/><g fill="#2C2C3D"><path d="M60 49.5c-.6 0-1-.4-1-1 0-14.4-11.3-26.3-25.7-27-.9-.1-1.8-.1-2.7 0C16.2 22.3 5 34.2 5 48.5c0 .6-.4 1-1 1s-1-.4-1-1c0-15.4 12-28.1 27.4-28.9 1-.1 2-.1 3 0C48.9 20.3 61 33 61 48.5c0 .6-.4 1-1 1z"/><path d="M60.9 53.7H3c-.4 0-.7-.2-.9-.6L.1 49c-.1-.4-.1-.7.1-1 .2-.3.5-.5.8-.5h62c.3 0 .7.2.9.5.2.3.2.7 0 1l-2.1 4.1c-.2.3-.5.6-.9.6zm-57.3-2h56.6l1.1-2.1H2.6l1 2.1zM52.5 42c-.4 0-.8-.3-1-.7-2-6-6.7-10.6-12.8-12.4-.5-.2-.8-.7-.7-1.2.2-.5.7-.8 1.2-.7 6.7 1.9 12 7 14.1 13.7.2.5-.1 1.1-.6 1.3h-.2zM62 14.6H48.5c-.6 0-1-.4-1-1s.4-1 1-1H62c.6 0 1 .4 1 1s-.4 1-1 1zm0 6H52c-.6 0-1-.4-1-1s.4-1 1-1h10c.6 0 1 .4 1 1s-.4 1-1 1zm0 6h-4.7c-.6 0-1-.4-1-1s.4-1 1-1H62c.6 0 1 .4 1 1s-.4 1-1 1zm-30.2-8c-.6 0-1.2-.1-1.7-.4-1.5-.7-2.4-2.1-2.4-3.7 0-2.3 1.8-4.1 4.1-4.1s4.1 1.9 4.1 4.1c0 1.5-.8 2.8-2.1 3.6-.6.3-1.3.5-2 .5zm0-6.3c-1.2 0-2.1 1-2.1 2.1 0 .8.5 1.6 1.2 1.9.6.3 1.4.2 1.9-.1.7-.4 1.1-1.1 1.1-1.8 0-1.1-.9-2.1-2.1-2.1z"/><path d="M30.5 21.6c-.6 0-1-.4-1-1v-3.2c0-.6.4-1 1-1s1 .4 1 1v3.2c0 .5-.5 1-1 1zm2.8-.1c-.6 0-1-.4-1-1v-3.3c0-.6.4-1 1-1s1 .4 1 1v3.3c0 .6-.4 1-1 1zm1.7 6.6h-.1c-.8-.1-1.6-.1-2.4-.1-.6 0-1-.4-1-1s.4-1 1-1c.9 0 1.7 0 2.6.1.5.1.9.6.9 1.1-.1.6-.5.9-1 .9z"/></g></svg>