<svg xmlns="http://www.w3.org/2000/svg" viewBox="0 0 64 64"><path fill="#F45858" d="M63 14v13H39V14h9zM39 27h19v36H39z"/><path fill="#FFE76E" d="M25 27h14v36H25zm14-13v13H25V14h7z"/><path fill="#F45858" d="M6 27h19v36H6zm19-13v13H1V14h15z"/><g fill="#2C2C3D"><path d="M63 28H1c-.6 0-1-.4-1-1V14c0-.6.4-1 1-1h15c.6 0 1 .4 1 1s-.4 1-1 1H2v11h60V15H48c-.6 0-1-.4-1-1s.4-1 1-1h15c.6 0 1 .4 1 1v13c0 .6-.4 1-1 1z"/><path d="M58 64H6c-.6 0-1-.4-1-1V27c0-.6.4-1 1-1s1 .4 1 1v35h50V27c0-.6.4-1 1-1s1 .4 1 1v36c0 .6-.4 1-1 1zM48 15H32c-.4 0-.8-.2-.9-.6-.2-.4-.1-.8.2-1.1L43.2 2l.1-.1C44.6.7 46.2 0 48 0c3.9 0 7 3.4 7 7.5S51.9 15 48 15zm-13.5-2H48c2.8 0 5-2.5 5-5.5S50.8 2 48 2c-1.2 0-2.3.4-3.2 1.2l-.1.1L34.5 13z"/><path d="M32 15H16c-3.9 0-7-3.4-7-7.5S12.1 0 16 0c1.8 0 3.4.7 4.7 1.9l.1.1 11.8 11.2c.3.2.4.5.4.8 0 .6-.4 1-1 1zM16 2c-2.8 0-5 2.5-5 5.5s2.2 5.5 5 5.5h13.5L19.3 3.3l-.1-.1c-.9-.8-2-1.2-3.2-1.2z"/><path d="M25 28c-.6 0-1-.4-1-1V14c0-.6.4-1 1-1s1 .4 1 1v13c0 .6-.4 1-1 1zm14 0c-.6 0-1-.4-1-1V14c0-.6.4-1 1-1s1 .4 1 1v13c0 .6-.4 1-1 1z"/><path d="M25 64c-.6 0-1-.4-1-1V27c0-.6.4-1 1-1s1 .4 1 1v36c0 .6-.4 1-1 1zm14 0c-.6 0-1-.4-1-1V27c0-.6.4-1 1-1s1 .4 1 1v36c0 .6-.4 1-1 1z"/></g></svg>