<svg xmlns="http://www.w3.org/2000/svg" viewBox="0 0 64 64"><path fill="#31C3A6" d="M49.4 9.3c3.7 4.5 5.4 10.2 5 15.7H54c-2.3-.1-4.7-.7-7.1-1.6 2.5-5 3.4-10 2.5-14.1z"/><path fill="#31C3A6" d="M54 25h.4c-.3 5.2-2.5 10.4-6.5 14.4L40.5 32c2.7-2.7 4.8-5.7 6.4-8.7 2.4 1 4.8 1.5 7.1 1.7z"/><path fill="#49A3DF" d="M49.3 9.3c1 4.1.1 9.1-2.5 14-3.1-1.3-6.1-3.3-8.8-5.9-2.7-2.7-4.6-5.7-5.9-8.8 4.9-2.5 9.9-3.4 14-2.5l.1-.1c.5.4 1 .8 1.5 1.3.1.1.2.1.2.2.6.6 1.1 1.2 1.4 1.8z"/><path fill="#EF3A59" d="M48 63H18c0-1.7.7-3.2 1.8-4.2 1.1-1.1 2.6-1.8 4.2-1.8h18c3.3 0 6 2.7 6 6z"/><path fill="#49A3DF" d="M40.5 32l7.4 7.4c-4 4-9.2 6.2-14.4 6.5v-.4c-.1-2.3-.7-4.7-1.6-7.1 2.9-1.6 5.9-3.7 8.6-6.4zm-2.4-14.6c2.7 2.7 5.7 4.7 8.8 5.9-1.5 3-3.7 6-6.4 8.7l-17-17c2.7-2.7 5.7-4.9 8.7-6.4 1.3 3.1 3.3 6.1 5.9 8.8z"/><path fill="#31C3A6" d="M46.2 6.1c-4.1-.9-9.1 0-14 2.5-1-2.4-1.5-4.8-1.6-7.1v-.4c5.4-.4 11.1 1.3 15.6 5zM23.5 15l17 17c-2.7 2.7-5.7 4.9-8.7 6.4-1.3-3.1-3.3-6.1-5.9-8.8-2.7-2.7-5.7-4.7-8.8-5.9 1.5-3 3.7-6 6.4-8.7z"/><path fill="#31C3A6" d="M33.5 45.5v.4c-5.5.4-11.2-1.3-15.7-5l.1-.1c4.1 1 9.1.1 14-2.5.9 2.5 1.4 4.9 1.6 7.2z"/><path fill="#49A3DF" d="M25.9 29.6c2.7 2.7 4.7 5.7 5.9 8.8-4.9 2.5-9.9 3.4-14 2.5l-.1.1c-.6-.5-1.1-1-1.7-1.5l-.6-.6c-.3-.3-.6-.7-.9-1.1l.1-.1c-1-4.1-.1-9.1 2.5-14 3.1 1.3 6.1 3.3 8.8 5.9zm4.6-28.1c.1 2.3.7 4.8 1.6 7.1-3 1.5-6 3.7-8.7 6.4L16 7.6c4-4 9.2-6.2 14.4-6.5l.1.4z"/><path fill="#31C3A6" d="M16.1 7.6l7.4 7.4c-2.7 2.7-4.9 5.7-6.4 8.7-2.4-1-4.8-1.5-7.1-1.6h-.4c.3-5.3 2.5-10.5 6.5-14.5z"/><path fill="#31C3A6" d="M14.6 37.7c-3.7-4.5-5.4-10.2-5-15.7h.4c2.3.1 4.8.7 7.1 1.6-2.5 5-3.4 10-2.5 14.1z"/><path fill="#2C2C3D" d="M52.1 43.6c11.1-11.1 11.1-29.1 0-40.2-.7-.8-1.1-.6-4.4 2.6-.3-.2-.5-.5-.8-.7C42.7 1.9 37.4 0 32 0c-.5 0-1.1 0-1.6.1-5.7.4-11 2.8-15.1 6.8-4 4-6.5 9.4-6.8 15.1-.4 6 1.5 11.8 5.2 16.4.1.1.2.3.3.4-1.8 1.7-2.8 2.8-2.8 2.8-.4.4-.4 1 0 1.4l.6.6c5.4 5.4 12.5 8.3 20.1 8.3V56h-8c-1.9 0-3.6.7-4.9 2-1.3 1.3-2.1 3.1-2.1 5 0 .6.4 1 1 1h30c.6 0 1-.4 1-1v-.2c0-3.8-3.1-6.8-6.9-6.8h-8v-4.2c6.8-.4 13.2-3.3 18.1-8.2zM46.9 62H19.1c.2-1 .7-1.8 1.4-2.5.9-.9 2.2-1.5 3.5-1.5h18c2.4 0 4.4 1.7 4.9 4zM16.2 38.1c-.2-.2-.4-.5-.6-.7-.8-3.6-.1-8 2-12.4 2.7 1.3 5.3 3.1 7.6 5.3 2.2 2.2 4.1 4.8 5.3 7.6-4.4 2.1-8.8 2.8-12.4 2-.4-.4-.9-.7-1.3-1.2l-.6-.6zM16.1 9l6 6c-2.2 2.3-4 4.8-5.5 7.4-2-.7-4-1.2-6-1.4.6-4.4 2.5-8.6 5.5-12zM31 8.2c-2.6 1.4-5.1 3.3-7.4 5.5l-6-6c3.3-3.1 7.6-5 12.1-5.5.1 2 .5 4 1.3 6zm14.9-1.1c.4.3.7.6 1.1 1l.2.2c.4.4.8.9 1.2 1.3.8 3.6.1 8-2 12.4-2.7-1.3-5.3-3.1-7.6-5.3-2.2-2.2-4.1-4.8-5.3-7.6 4.4-2.1 8.8-2.8 12.4-2zM32.3 37c-1.4-2.9-3.3-5.7-5.7-8.1-2.4-2.4-5.1-4.3-8.1-5.7 1.3-2.4 3-4.7 5-6.8L39 32c-2.1 2-4.3 3.6-6.7 5zm-7.4-22c2.1-2 4.4-3.7 6.8-5 1.4 2.9 3.3 5.7 5.7 8.1 2.4 2.4 5.1 4.3 8.1 5.7-1.3 2.4-3 4.7-5 6.8L24.9 15zm6.3 24.8c.6 1.7 1 3.5 1.2 5.2-3.8.1-7.6-.9-10.9-2.7 3-.1 6.4-1 9.7-2.5zm3.2 5c-.2-2-.6-4-1.4-6 2.6-1.4 5.1-3.3 7.4-5.5l6 6c-3.3 3.1-7.5 5-12 5.5zM47.9 38l-6-6c2.2-2.3 4-4.8 5.5-7.4 2 .7 4 1.2 6 1.4-.6 4.4-2.5 8.6-5.5 12zm5.6-14.1c-1.7-.1-3.5-.5-5.2-1.2 1.6-3.4 2.4-6.7 2.5-9.8 1.8 3.4 2.7 7.1 2.7 11zM42.6 4.8c-3.1 0-6.4.9-9.8 2.5-.6-1.8-1-3.5-1.2-5.2h.4c3.7-.1 7.4.9 10.6 2.7zM10.5 23.1c1.7.1 3.5.5 5.2 1.2-1.6 3.4-2.4 6.7-2.5 9.8-1.8-3.4-2.7-7.1-2.7-11zm2.9 19.2c.5-.5 1.2-1.2 2.1-2 .6.6 1.1 1.1 1.7 1.5C21.3 45.1 26.6 47 32 47c.5 0 1.1 0 1.6-.1 5.7-.4 11-2.8 15.1-6.8 4-4 6.5-9.4 6.8-15.1.4-6-1.5-11.8-5.2-16.4-.3-.4-.7-.8-1.1-1.3 1.1-1 1.8-1.7 2.2-2 9.6 10.4 9.4 26.7-.7 36.9-5 5-11.6 7.7-18.7 7.7-7 0-13.6-2.7-18.6-7.6z"/></svg>