<svg xmlns="http://www.w3.org/2000/svg" viewBox="0 0 84 64"><path fill="#686F89" d="M82 22.7l-9.4 9.2-2.3-2.4-16.5-16-2.3-2.3L60.9 2z"/><path fill="#F9DAC5" d="M36.4 19.9l.9-.9c.9-.9 2.2-1.3 3.5-1.3l7.1.6c.7 0 1.3-.2 1.7-.6l4.2-4.1 16.4 16.1-4.6 4.2-5.2 8.3-18-17.5-8.2 8.4c-.5.5-1.2.7-1.9.7-1.2 0-2.4-.6-3.2-1.4-1.3-1.3-1.8-3.6-.4-4.9l7.7-7.6z"/><path fill="#E2BB9F" d="M57.5 48.3c1 1 .9 3.3-.2 4.4-.5.5-1.4.8-2.2.8-1 0-2.1-.3-2.7-.9.7 1.1.6 2.9-.5 3.9-.5.5-1.3.7-2.1.7-1.1 0-2.3-.4-2.9-1l-.9-.8c1.1 1.1 1.1 3.5 0 4.6-.6.6-1.5.9-2.4.9-.9 0-1.8-.3-2.3-.8l-1.6-1.5-.5-.2c.7-1 .4-2.5-.7-3.6-1.2-1.2-3.1-1.4-4-.4L31.7 57l-.1-.1 3.5-3.4c1.3-1.2 1.3-3.3.1-4.5-1.2-1.2-3.3-1.2-4.6.1l-3.2 3.1 4-3.9c.8-.8 1.2-1.8 1.2-2.8 0-.8-.3-1.5-.8-2-1.2-1.2-3.4-1-4.9.4l-.9.9c1.1-1 .9-2.9-.3-4.1-1.2-1.2-3.1-1.3-4.2-.3l-.2.2-.3-.3-7.3-10.2 16.1-15.8 3 2.9c.3.3.6.5.9.7l3.5 1.1-.9.9-7.8 7.6c-1.4 1.4-.9 3.7.4 4.9.8.8 2.1 1.4 3.2 1.4.7 0 1.4-.2 1.9-.7l8.2-8.4 18.1 17.4 1.4 1.3c1.2 1.2 1.2 3.6.1 4.7-.5.5-1.4.8-2.3.8-.6 0-1.4-.2-2-.6z"/><path fill="#F9DAC5" d="M38.5 54.7c1.1 1.1 1.4 2.6.7 3.6l-.3.3-2.7 2.7c-1 1-2.8.8-4-.4-1.2-1.2-1.4-3-.4-4l2.7-2.6c.9-1 2.7-.8 4 .4zM35.2 49c1.2 1.2 1.2 3.2-.1 4.5l-3.5 3.4c-1.3 1.2-3.3 1.3-4.5.1-1.2-1.2-1.2-3.2.1-4.4l.3-.3 3.2-3.1c1.3-1.4 3.3-1.4 4.5-.2z"/><path fill="#384489" d="M32.5 11.8l-2.6 2.5-16.2 15.8-2.4 2.3L2 23.3 23.1 2.6l9.4 9.2zM13 24.8c.9-.9.9-2.2 0-3.1-.9-.8-2.2-.8-3.1 0-.9.9-.9 2.2 0 3.1.8.8 2.2.8 3.1 0z"/><path fill="#F9DAC5" d="M31.9 43.5c.5.5.8 1.3.8 2 0 1-.4 2-1.2 2.8l-4 3.9c-1.4 1.4-3.6 1.6-4.9.4-1.2-1.2-1.1-3.3.4-4.8l3-3 .9-.9c1.6-1.4 3.7-1.6 5-.4z"/><path fill="#F9DAC5" d="M25.7 40.7c1.2 1.2 1.4 3 .3 4.1l-2.9 2.9c-1.1 1-3 .9-4.2-.3-1.2-1.2-1.4-3-.3-4.1l2.7-2.7.2-.2c1.1-1 3-.9 4.2.3z"/><path fill="#2D2D2D" d="M13 21.7c.9.9.9 2.2 0 3.1-.9.8-2.2.8-3.1 0-.9-.9-.9-2.2 0-3.1.8-.8 2.2-.8 3.1 0z"/><path fill="#2D2D2D" d="M82.7 22L61.6 1.3c-.4-.4-1-.4-1.4 0l-9.4 9.2c-.2.2-.3.4-.3.7 0 .3.1.5.3.7l1.6 1.6-3.5 3.4c-.3.2-.6.4-1 .4l-7.1-.5c-1.4-.1-2.7.3-3.8 1.1l-2.8-.9c-.2-.1-.5-.3-.7-.5l-2.2-2.2 1.9-1.8c.2-.2.3-.4.3-.7 0-.3-.1-.5-.3-.7l-9.4-9.2c-.4-.4-1-.4-1.4 0L1.3 22.6c-.2.1-.3.4-.3.7 0 .3.1.5.3.7l9.4 9.2c.2.2.4.3.7.3s.5-.1.7-.3l1.5-1.5 6.4 8.9-2.1 2c-.7.6-1 1.5-1 2.5 0 1.1.5 2.2 1.3 3 .8.7 1.8 1.2 2.8 1.2-.1.4-.2.8-.2 1.2 0 1.1.4 2 1.1 2.7.7.7 1.7 1.1 2.8 1.1.2 0 .4 0 .6-.1 0 .2-.1.3-.1.5 0 1.1.4 2.1 1.2 2.8.8.7 1.8 1.2 2.9 1.2.3 0 .5 0 .8-.1 0 1.1.5 2.1 1.3 2.9l.1.1c.8.8 1.9 1.2 3 1.2.9 0 1.7-.3 2.4-.9l2.5-2.5 1.2 1.2c.7.7 1.8 1.1 3 1.1s2.4-.4 3.1-1.1c.7-.7 1.1-1.7 1.2-2.8.6.2 1.3.3 1.9.3 1.2 0 2.2-.3 2.8-1 .8-.8 1.2-1.8 1.3-2.9.4.1.8.2 1.3.2 1.2 0 2.3-.4 2.9-1 .8-.7 1.2-1.9 1.2-3.1v-.4h.5c1.2 0 2.3-.4 3-1.1.7-.7 1.1-1.8 1.1-2.9 0-1.3-.4-2.4-1.2-3.2l-.8-.8 4.7-7.5 3.8-3.5 1.7 1.7c.2.2.4.3.7.3s.5-.1.7-.3l9.4-9.2c.2-.2.3-.4.3-.7s-.3-.5-.5-.7zm-71.3 9.1l-7.9-7.8L23.1 4l7.9 7.8-19.6 19.3zm7.5 14c0-.3.1-.7.4-1.1l2.9-2.9c.3-.3.7-.4 1.1-.4.6 0 1.2.3 1.6.7l.1.1c.4.4.6 1 .6 1.5 0 .3-.1.7-.4 1.1L22.4 47c-.7.6-2 .5-2.8-.3-.4-.5-.7-1-.7-1.6zm4.4 6.8c-.4-.4-.5-.9-.5-1.3 0-.7.3-1.5.9-2l4-3.9c.6-.6 1.3-.9 2.1-.9.5 0 1 .2 1.4.5.3.3.5.8.5 1.3 0 .7-.3 1.5-.9 2l-4 3.9c-.6.6-1.4.9-2.1.9-.4 0-.9-.1-1.4-.5zm4.5 4.3c-.4-.4-.6-.9-.6-1.4 0-.6.2-1.2.7-1.6l3.5-3.4c.4-.4 1-.7 1.7-.7.6 0 1.1.2 1.5.6l.1.1c.3.4.5.9.5 1.4 0 .6-.2 1.2-.7 1.6L31 56.2c-.9.8-2.4.9-3.2 0zm10.5 1.6c0 .1-.1.1-.2.2l-2.7 2.7c-.3.3-.7.3-1 .3-.6 0-1.2-.3-1.7-.7 0 0-.1 0-.1-.1-.4-.5-.7-1-.7-1.6 0-.3.1-.6.4-1L35 55c.3-.3.7-.3.9-.3.6 0 1.2.3 1.7.7l.1.1c.8.7 1 1.7.6 2.3zm23-10.4c-.6.6-2.3.7-3.2 0-.1 0-.1-.1-.2-.1l-4.6-4.6c-.4-.4-1-.4-1.4 0-.4.4-.4 1 0 1.4l4.6 4.6c.1.1.2.1.2.2 0 0 0 .1.1.1.3.3.4.7.4 1.3 0 .7-.2 1.3-.6 1.7-.3.3-.9.5-1.5.5-.9 0-1.6-.3-1.9-.6-.1-.2-.2-.3-.4-.5L49 47.7c-.4-.4-1-.4-1.4 0-.4.4-.4 1 0 1.4l3.8 3.7c.1.1.1.2.2.2.4.7.4 2-.4 2.7-.2.2-.8.4-1.4.4-1 0-1.9-.3-2.2-.6l-3.1-3.3c-.4-.4-1-.4-1.4 0-.4.4-.4 1 0 1.4l2.1 2.2c0 .1.1.2.2.2.3.3.5.9.5 1.6 0 .7-.2 1.3-.6 1.6-.4.4-1 .6-1.7.6s-1.3-.2-1.6-.5l-1.5-1.5c.3-1.3-.2-2.7-1.2-3.8l-.1-.1c-.7-.6-1.5-1-2.3-1.2.2-.5.3-1.1.3-1.6 0-1.1-.4-2.1-1.2-2.9l-.1-.1c-.7-.6-1.5-1-2.5-1 .2-.5.3-1.1.3-1.6 0-1.1-.4-2-1.1-2.7-.7-.7-1.7-1.1-2.8-1.1-.7 0-1.5.2-2.1.5-.2-.8-.6-1.6-1.2-2.3l-.1-.1c-1.3-1.2-3.4-1.5-4.8-.7l-6.5-9 14.8-14.5 2.3 2.2c.3.3.7.6 1.1.8.1 0 .1.1.2.1l1.9.6-7.5 7.4c-.7.7-1.1 1.7-1.1 2.8 0 1.3.6 2.6 1.5 3.6 1.1 1 2.6 1.7 3.9 1.7 1 0 1.9-.3 2.6-1l7.5-7.7 18.8 18c.4.4.6 1.1.6 1.8.1.6-.1 1.2-.4 1.5zM65 33.1l-.2.2-4.6 7.2L43.1 24s-.1-.1-.2-.1-.1-.1-.2-.1h-.4c-.1 0-.2 0-.3.1h-.1c-.1 0-.1.1-.2.1 0 0-.1 0-.1.1l-8.2 8.4c-.3.3-.7.4-1.2.4-.9 0-1.9-.4-2.6-1.1-.6-.6-.9-1.4-.9-2.2 0-.5.2-1 .5-1.3l.7-.7 7.9-7.8c.7-.7 1.7-1.1 2.7-1l7.1.6c.9.1 1.8-.3 2.5-.9l3.5-3.5 15 14.7-3.6 3.4zm7.6-2.6l-18-17.7-1.6-1.6 7.9-7.8 19.7 19.3-8 7.8z"/></svg>