<svg xmlns="http://www.w3.org/2000/svg" viewBox="0 0 64 64"><path fill="#F94646" d="M63 20.3C63 11.3 56.4 4 47.5 4c-6.8 0-12.3 4.3-14.6 10.3C30.5 8.3 24.3 4 17.5 4 8.6 4 1 11.3 1 20.3v1.2C1 38.3 33.1 60 33.1 60S63 38.3 63 21.5v-1.2z"/><path fill="#2C2C3D" d="M33.1 61c-.2 0-.4-.1-.6-.2C31.3 59.9 0 38.6 0 21.5v-1.2C0 10.9 8 3 17.5 3c6.3 0 12.3 3.6 15.3 8.9 3-5.5 8.5-8.9 14.7-8.9C56.8 3 64 10.6 64 20.3v1.2c0 7.2-5.1 16-15.2 26.2-7.4 7.5-15 13-15 13.1-.2.1-.4.2-.7.2zM17.5 5C9.1 5 2 12 2 20.3v1.2c0 14.8 26.8 34.2 31.1 37.3C37.2 55.7 62 36.3 62 21.5v-1.2C62 11.7 55.6 5 47.5 5c-6.1 0-11.4 3.7-13.7 9.7-.2.4-.5.6-.9.6s-.8-.3-.9-.6C29.7 9 23.8 5 17.5 5z"/></svg>