<svg xmlns="http://www.w3.org/2000/svg" viewBox="0 0 64 64"><path fill="#F94646" d="M63 20.3C63 11.3 55.8 4 46.9 4 40.1 4 34.4 8.3 32 14.3 29.6 8.3 23.9 4 17.1 4 8.2 4 1 11.3 1 20.3v1.2C1 35.1 22.8 41.4 32 60c9.1-18.6 31.1-24.6 31-38.5v-1.2z"/><path fill="#2C2C3D" d="M32 61c-.4 0-.7-.2-.9-.6-4.3-8.6-11.3-14.6-17.6-19.8C6.3 34.5 0 29.2 0 21.5v-1.2C0 10.8 7.7 3 17.1 3 23.4 3 29 6.4 32 11.9 35 6.4 40.6 3 46.9 3 56.3 3 64 10.8 64 20.3v1.2c.1 7.9-6.3 13.2-13.6 19.3-6.3 5.2-13.3 11.1-17.5 19.6-.2.4-.5.6-.9.6zM17.1 5C8.8 5 2 11.9 2 20.3v1.2c0 6.8 6 11.8 12.8 17.6 6 5 12.7 10.7 17.2 18.8 4.4-8 11.1-13.6 17.1-18.6 7-5.8 13-10.9 12.9-17.8v-1.2C62 11.9 55.2 5 46.9 5c-6.2 0-11.7 3.8-14 9.7-.1.4-.5.6-.9.6s-.8-.3-.9-.6C28.8 8.8 23.3 5 17.1 5z"/></svg>