<svg xmlns="http://www.w3.org/2000/svg" viewBox="0 0 64 64"><path fill="#A57E76" d="M54.9 26.1l8.1 8.2-2.9 2.7-5-5L32 8.6 8.9 32l-5 5L1 34.3 32 3l15.9 16.1z"/><path fill="#EFE4D8" d="M27 29h10v-8H27v8zm-3 22.9h7V40H17v11.8h7zm8-43.3L55.1 32H55v25h-6V40H39v17H9V32h-.1L32 8.6z"/><path fill="#A57E76" d="M55 57v4H9v-4h40z"/><path fill="#EFE4D8" d="M55 15v11l-.1.1-7-7 .1-.1v-4z"/><path fill="#98A6B7" d="M48 11h7v4h-7zm-9 29h10v17H39z"/><path fill="#82CCF4" d="M32 21h5v8h-5zm-5 0h5v8h-5zm-3 25h7v5.8h-7zm0-6h7v6h-7zm-7 6h7v5.8h-7zm0-6h7v6h-7z"/><g fill="#2C2C3D"><path d="M9 58c-.6 0-1-.4-1-1V32c0-.6.4-1 1-1s1 .4 1 1v25c0 .6-.4 1-1 1z"/><path d="M9 56h46v2H9z"/><path d="M55 58c-.6 0-1-.4-1-1V32c0-.6.4-1 1-1s1 .4 1 1v25c0 .6-.4 1-1 1z"/><path d="M55 62H9c-.6 0-1-.4-1-1v-4c0-.6.4-1 1-1h46c.6 0 1 .4 1 1v4c0 .6-.4 1-1 1zm-45-2h44v-2H10v2z"/><path d="M48 57V41h-8v16h-2V40c0-.6.4-1 1-1h10c.6 0 1 .4 1 1v17h-2zm-17-4.1H17c-.6 0-1-.4-1-1V40c0-.6.4-1 1-1h14c.6 0 1 .4 1 1v11.8c0 .6-.4 1.1-1 1.1zm-13-2h12V41H18v9.9z"/><path d="M23 40h2v12h-2z"/><path d="M17 45h14v2H17zm39-19h-2V12h-5v7h-2v-8c0-.6.4-1 1-1h7c.6 0 1 .4 1 1v15z"/><path d="M48 14h7v2h-7zM38 29h-2v-7h-8v7h-2v-8c0-.6.4-1 1-1h10c.6 0 1 .4 1 1v8z"/><path d="M31 21h2v8h-2z"/><path d="M39 30H25c-.6 0-1-.4-1-1s.4-1 1-1h14c.6 0 1 .4 1 1s-.4 1-1 1z"/><path d="M60.1 38c-.3 0-.5-.1-.7-.3L32 10 4.6 37.8c-.4.4-1 .4-1.4 0L.3 35.1c-.2-.2-.3-.5-.3-.7s.1-.5.3-.7l31-31.4c.4-.4 1-.4 1.4 0l31 31.4c.2.2.3.5.3.7 0 .3-.1.5-.3.7l-2.9 2.7c-.2.2-.4.2-.7.2zM2.4 34.3l1.4 1.3L31.3 7.9c.4-.4 1-.4 1.4 0l27.4 27.8 1.4-1.3L32 4.4 2.4 34.3zM42 50c-.6 0-1-.4-1-1v-3c0-.6.4-1 1-1s1 .4 1 1v3c0 .6-.4 1-1 1z"/></g></svg>