<svg xmlns="http://www.w3.org/2000/svg" viewBox="0 0 64 64"><path fill="#E15D23" d="M60.7 3.7c3.5 3.5 3.5 9.1 0 12.6L58.1 19 18.6 58.5l-1.8 1.8c-3.5 3.5-9.1 3.5-12.6 0l-.4-.5c-3.5-3.5-3.5-9.2 0-12.6l2-2L45.2 5.7l2.4-2.4c3.5-3.5 9.2-3.5 12.6 0l.5.4z"/><path fill="#F9B84E" d="M59.1 19.9c3.4 3.4 3.4 9 0 12.5L32 59.5c-3.4 3.4-9 3.4-12.4 0l-1-1L58.1 19l1 .9zM45.2 5.7L5.7 45.2l-1.1-1.1c-3.4-3.4-3.4-9 0-12.5l27-27.1c3.4-3.4 9-3.4 12.5 0l1.1 1.2z"/><g fill="#2C2C3D"><path d="M10.5 63.9c-2.7 0-5.2-1-7-2.9l-.5-.5C-.9 56.6-.9 50.3 3 46.4l2-2 42-42C48.9.5 51.4-.5 54-.5s5.2 1 7 2.9l.4.6c1.9 1.9 2.9 4.4 2.9 7s-1 5.2-2.9 7l-2.6 2.6L17.5 61c-1.9 1.9-4.4 2.9-7 2.9zM54 1.6c-2.1 0-4.1.8-5.6 2.3l-44 44C1.3 51 1.3 56 4.4 59.1l.5.5c1.5 1.5 3.5 2.3 5.6 2.3s4.1-.8 5.6-2.3L60 15.7c3.1-3.1 3.1-8.1 0-11.2l-.4-.5c-1.5-1.5-3.5-2.4-5.6-2.4z"/><path d="M25.8 63.1c-2.6 0-5.1-1-6.9-2.9-.4-.4-.4-1 0-1.4s1-.4 1.4 0c3 3 8 3 11 0l27.1-27.1c3-3 3-8 0-11-.4-.4-.4-1 0-1.4s1-.4 1.4 0c1.9 1.9 2.9 4.3 2.9 6.9s-1 5.1-2.9 6.9L32.7 60.2c-1.8 1.8-4.3 2.9-6.9 2.9zm-21.3-18c-.3 0-.5-.1-.7-.3C1.9 42.9.9 40.5.9 37.9c0-2.6 1-5.1 2.9-6.9L30.9 3.8C32.8 2 35.2 1 37.9 1s5.1 1 6.9 2.9c.4.4.4 1 0 1.4s-1 .4-1.4 0c-3-3-8-3-11 0l-27.2 27c-3 3-3 8 0 11 .4.4.4 1 0 1.4-.2.3-.4.4-.7.4zm5.7 10.7c-.6 0-1-.4-1-1 0-3.4 2.8-6.2 6.2-6.2 1.1 0 2.2-.4 3-1.2.8-.8 1.2-1.8 1.2-3 0-1.9.7-3.7 2.1-5.1 1.4-1.4 3.2-2.1 5.1-2.1h1c2.3 0 4.2-1.9 4.2-4.2v-2c0-3.4 2.8-6.2 6.2-6.2h1c2.3 0 4.2-1.9 4.2-4.2v-2.1c0-3.4 2.8-6.2 6.2-6.2 1.1 0 2.2-.4 2.9-1.2.8-.8 1.2-1.8 1.2-3 0-.6.4-1 1-1s1 .4 1 1c0 1.6-.6 3.2-1.8 4.4-1.2 1.2-2.7 1.8-4.4 1.8-2.3 0-4.2 1.9-4.2 4.2v2.1c0 3.4-2.8 6.2-6.2 6.2h-1c-2.3 0-4.2 1.9-4.2 4.2v2c0 3.4-2.8 6.2-6.2 6.2h-1c-1.4 0-2.7.5-3.7 1.5s-1.5 2.3-1.5 3.7c0 1.6-.6 3.2-1.8 4.4s-2.7 1.8-4.4 1.8c-2.3 0-4.2 1.9-4.2 4.2.1.6-.3 1-.9 1z"/></g></svg>