<svg xmlns="http://www.w3.org/2000/svg" viewBox="0 0 64 64"><path fill="#F995B0" d="M49 21v.1c0 1.6-1.3 2.8-2.8 2.8H15.8c-1.6 0-2.8-1.3-2.8-2.8V21c0-1.2.8-2.3 1.9-2.7v-1C14.9 8.4 22.1 1 31 1s16.1 7.4 16.1 16.3v1c1.1.4 1.9 1.5 1.9 2.7z"/><path fill="#F4CBA8" d="M44 24l-3.5 11-9-6.2 7.3-4.8zm-3.5 11l-3.2 10-5.8-3.8z"/><path fill="#F4CBA8" d="M40.5 35l-9 6.2-9.3-6.2 9.3-6.2zm-1.7-11l-7.3 4.8-7-4.8zm-7.3 17.2l5.8 3.8-6.1 5.3-5.6-5v-.1zm-.3 9.1l6.1-5.3-5.8 18-3.3-10z"/><path fill="#F4CBA8" d="M24.5 24l7 4.8-9.3 6.2-3.7-11zm7 17.2l-5.9 4L22.2 35zm-5.9 4.1l5.6 5-3 2.7z"/><g fill="#2C2C3D"><path d="M40.5 36h-.3c-.5-.2-.8-.7-.6-1.3l3.5-11c.2-.5.7-.8 1.3-.6.5.2.8.7.6 1.3l-3.5 11c-.2.4-.6.6-1 .6zM25.6 46.3c-.4 0-.8-.3-.9-.7l-7.1-21.3c-.2-.5.1-1.1.6-1.3.5-.2 1.1.1 1.3.6l7.1 21.2c.2.5-.1 1.1-.6 1.3-.2.1-.3.2-.4.2z"/><path d="M31.5 64c-.4 0-.8-.3-.9-.7l-5.9-17.7c-.2-.5.1-1.1.6-1.3.5-.2 1.1.1 1.3.6l4.9 14.8 4.8-15.1c.2-.5.7-.8 1.3-.6.5.2.8.7.6 1.3l-5.8 18c-.1.4-.5.7-.9.7zm14.7-39H15.8c-2.1 0-3.8-1.7-3.8-3.8V21c0-1.4.7-2.6 1.9-3.3v-.4C13.9 7.8 21.6 0 31 0s17.1 7.8 17.1 17.3v.4c1.2.7 1.9 1.9 1.9 3.3v.1c0 2.2-1.7 3.9-3.8 3.9zM31 2c-8.3 0-15.1 6.9-15.1 15.3v1c0 .4-.2.9-.7 1-.7.3-1.3 1-1.3 1.7v.1c0 1 .8 1.8 1.8 1.8H46c1 0 1.8-.8 1.8-1.8V21c0-.8-.5-1.5-1.3-1.7-.4-.1-.7-.6-.7-1v-1C46.1 8.9 39.3 2 31 2z"/><path d="M34.2 54c-.2 0-.5-.1-.7-.3L24.9 46c-.2-.2-.4-.5-.3-.8 0-.3.2-.6.4-.8L38.7 35 23.9 24.8c-.5-.3-.6-.9-.3-1.4s.9-.6 1.4-.3l16 11c.3.2.4.5.4.8s-.2.6-.4.8l-13.8 9.5 7.7 6.9c.4.4.4 1 .1 1.4-.2.4-.5.5-.8.5z"/><path d="M28.2 54c-.3 0-.6-.1-.8-.3-.4-.4-.3-1 .1-1.4l8.9-7.8 3.1-9.7c.2-.5.7-.8 1.3-.6.5.2.8.7.6 1.3l-3.2 9.9c-.1.2-.2.4-.3.5l-9.1 8c-.2 0-.4.1-.6.1z"/><path d="M37.3 46c-.2 0-.4-.1-.6-.2l-15.1-10c-.3-.2-.4-.5-.4-.8 0-.3.2-.6.4-.8l16.6-11c.5-.3 1.1-.2 1.4.3s.2 1.1-.3 1.4L24 35l13.8 9.1c.5.3.6.9.3 1.4-.2.4-.5.5-.8.5z"/></g></svg>