<svg id="Layer_11" viewBox="0 0 128 128" xmlns="http://www.w3.org/2000/svg"><style>.st0{fill:#fdc20f}.st3{fill:#3bf24c}</style><path class="st0" d="M34.8 40.3c.5 1.6 1.9 2.4 2.1 2.8 3.8 3.2 11.1 4.4 15.1 5.1 6.2 1.1 12.7 1.3 19 .7 6.2-.6 13.4-2.9 18.4-6.7 4.4-3.4 2.9-7.3.3-11.3-6.3-8.6-17.4-9.9-27.3-9.6-6.5.2-13.2 1.2-18.8 4.6-4.7 2.5-10.6 8.2-8.8 14.4z"/><path d="M33.7 39.4c.6 1.4 2.1 1.9 2.3 2.2 4.1 2.4 11.5 2.8 15.6 3.1 6.3.4 12.9 0 19.1-1 6.2-1 13.3-3.6 18-7.3 4.2-3.3 2.4-6.5-.5-9.7-7-6.9-18.2-7-28.2-5.9-6.5.7-13.1 2.2-18.6 5.5-4.3 2.5-9.9 8-7.7 13.1zm58.1 55.9c-.1.3-.1.7-.2 1-2.1 1.8-6.5 5.2-10 6.2-4.4 1.3-20.9 2-29.5 1.3-5.8-.5-12.5-3.7-16.2-5.8 0-.1 0-.1-.1-.2-.5-1.4-.8-3.1-.8-4.9.1 0 .1-.1.1-.1 2.7 1.7 5.6 2.5 8.3 4.1 1.7 1 3.1 2.5 5.1 2.6 1.7.1 4.3-.8 5.6-2.6.9 1.4 18.9 1.7 24 1.2 1.4-.1 2.4-2.9 2.5-3.4 2 1.8 5.2 3.5 7.7 2.4 1.1-.4 2.3-1.1 3.5-1.8z" fill="#f9d069"/><path class="st0" d="M91.5 96.3c-2.7 10.7-14.3 12.5-27.4 11.5-4.8-.4-9.9-.7-14.7-1.7-3.5-.8-7-2.3-10.1-4.3-1.8-1.2-3.1-3.2-3.9-5.3 3.7 2.1 11.5 6.4 17.3 6.9 8.7.8 23.2-.4 27.6-1.6 3.5-.9 9.1-3.7 11.2-5.5z"/><path d="M34.3 71.5c.7.5 3.7.6 4.6 1 2 .9 3.7 3.8 5.9 3.9 2.7.2 5.1-1.9 7.9-1.5 2.3.3 3.8 1.8 5.9 2.8 4.2 2 6.6 0 10.6-1.2 2.5-.8 4.9-.8 7.5-.5 2.6.3 4.3.6 6.7-.4 1-.4 1.9-1.3 3-1.7 1.7-.7 4.7-.8 6.4-.9.3-1.5-.4-5-.7-6.5-1.1.5-3.6 1.4-4.5 1.8-8 3.8-14.7 3.6-22.5.3-.3.5-.7 1-1.2 1.3-3.4 2.4-9.3.5-12.9-.2-5.2-.9-9.2-.8-13.7-3.8-.3-.2-2.1-1.5-2.4-1.7-.6 2-2.2 5.9-.6 7.3z" fill="#f7ea00"/><path class="st3" d="M31.2 51.3c2.7 1.1 6.3 1.8 8.8 3.3 2 1.1 4.9 3.1 7 3.7 2.2.6 3.4-1.3 5-2.7 1.2-1.1 2.1-.4 2.8 1.2.6 1.4 2.3 2.8 2.9 4.1 6.9-1.5 13.7-1 20.6-.6.4-1.5.8-2.9 1.2-4.3.8-2.6 2.5-2.2 4.3-.3 1.4 1.5 3.5 1.6 5.1 2.8 3-1.8 6.2-3.6 9.1-5.8-1.7-1.9-4.4-5-5.9-7.4-3 2.6-6.7 4-9.9 5.5-6.7 3-28.5 1.8-40.1-.7-2.4-.5-5.1-1.4-7.2-3-.7 1.1-2.9 3.2-3.7 4.2z"/><path d="M35 60.2c7.3 4.8 18.2 8.4 26.9 6.2.2-.8.3-2.9.3-3.8-1.7.2-3.3.3-5 .6-1.4.3-2.2.7-3-.5-.5-.8-1.7-2.2-2.2-3-2.7 1.8-4 3.2-7.9 1-2.8-1.5-6.3-3.5-9.2-4.7 0 .8.1 3.6.1 4.2zm56.9.9c-.6-.9-1-.5-1.3-.4-3.3 1.9-6 .2-8.6-1.9-.2.6-.7 1.8-.8 2.5-.3 1.4-1.6 2.1-2.8 2-4.5-.2-8.3-.7-12.8-.6v2.2c6.4 3 12.9 3.5 19.5.7 2.3-1 4.8-2.9 7.2-3.6-.3-.3-.3-.6-.4-.9z" fill="#e50c0c"/><path d="M88 83.8c2.2-1 3.2-4.8 3.5-6.9-2 .4-4.7 1-6.7 2.1-4.6 2.4-8.1-.8-13 .2-4.1.8-7.4 3.3-11.8 2.2-1.9-.5-2.9-1.1-4.6-2-2.9-1.5-6-.8-8.9-.4-4.4.6-6.9-2.2-10.5-3 1.4 4.9 7.4 8.4 12.5 9.6 5 1.2 11 1.6 16 1.5 5.4 0 10.8-.9 16.1-2 2.3-.4 5.3-.3 7.4-1.3z" fill="#be872c"/><path class="st3" d="M55.4 91.9c.6 1 1.3 2 1.8 3 .1.2.5.8.8 1.3.3 0 5.9-.4 8.3-.6 3.4-.3 6.9-.6 10.3-1 .4-1.7.8-3.4 1.7-4.9-4.8 1-9.7 1.5-14.6 1.5-3.2 0-6.4-.1-9.6-.6.6.4 1 .7 1.3 1.3zM93.2 85c-1.4 1.1-3.1 2-5.3 2.7-2.4.8-4.9 1.2-7.3 1.8.1.1 2.3 2.2 3.2 2.9.2.1 1.2.8 1.6 1.3.2-.1 2-1.2 2.6-1.6 2.5-1.6 5-3.3 7.5-5.1-.7-.7-1.5-1.4-2.3-2z"/><path class="st3" d="M49.7 95.9c1-1.1 2-2.3 2.8-3.6.5-.7 1.3-1.7 2-1.9-5-.7-10.1-1.7-14.7-3.6-1.4-.6-2.7-1.3-3.8-2.1-.6.7-1.5 1.7-2.2 2.3 2.1 1.7 3.8 3 5.9 4.2 3 1.6 6.7 3.4 10 4.7z"/><path d="M101.8 49.1c-2.2.1-4.5-3.7-6-5.7.5-.6.9-1.3 1.2-2.1 2-4.6 0-9.4-2.6-13.4-6.4-8.7-16.3-11.8-26.7-12.2-12.2-.5-26.4 1.6-34.6 11.7-3.3 4-5.2 9.3-3.6 14.4.3 1 .8 2 1.4 2.8-1.7 1.9-3.6 3.4-6 4.6-2.2 1.1-1.5 4.4.7 5 1.8.5 3.5 1.1 5.2 1.7 0 1.7-.6 4.2 0 6-.1.1-.1.2-.2.3-1.4 3-2.3 6.5-1.2 9.8.5 1.4 1.3 2.3 2.2 2.9.1 2.7.6 4.9 1.7 6.9l-.1.1c-1.3 1.7-2.9 2.4-4.9 2.8-2.4.4-2.6 3.9-.7 5 1.1.6 2.1 1.2 3.2 1.8-.4 3.5 0 7.2 1.4 10.5 1.7 4 5.9 5.4 9.8 7 6.7 2.8 14.5 3.3 21.7 3.6 6.4.3 13.8-.6 19.9-2.2 3.4-.9 6.9-3.3 9.4-5.7 3.8-3.6 4.4-6.7 3.8-11.6V93c1.3-1 2.6-1.9 3.8-2.8 1.3-.9 2.1-3.1.6-4.3-1.7-1.4-3.4-2.7-5.1-4.1-.1-.1-.1-.1-.2-.1.5-1.6.9-3.1.8-5.3 0-.1-.1-.6-.1-.6 1.6-2.8.9-7.4.1-10.2 1.6-1.9.5-4.5-.4-6.6 2.7-1.4 5.4-2.9 7.6-4.8 1.6-2 .2-5.2-2.1-5.1zm-14.4 7.7c-1.6-.9-3.1-1.9-4.6-3.1-1.7-1.4-3.8-.8-4.6 1.2L77 58.2c-6.8-.3-13.4-.7-20 .5-.6-1-1.2-2-1.7-3.1-.6-1.2-2.6-1.8-3.8-1-1.5 1.1-2.8 2.5-4.9 2-2-.5-4.5-2.5-6.4-3.3-2.5-1.1-5.1-2-7.7-2.9.8-.7 1.6-1.5 2.4-2.4 2 1.2 4.3 2.1 6.5 2.9 12.5 4.4 28.3 5.3 40.7.6 3.1-1.2 6.6-2.5 9.6-4.5 1.4 1.8 2.8 3.8 4.4 5.3-2.7 1.8-5.8 3.2-8.7 4.5zm.6 34.6c-.6.3-2.1 1.2-2.2 1.3-.4-.4-1.3-.9-1.4-1-.8-.6-2.7-2-2.8-2.1 2.1-.5 4.3-1 6.3-1.6 1.9-.5 3.4-1.3 4.6-2.1.7.5 1.3 1.1 2 1.6-2.2 1.3-4.3 2.7-6.5 3.9zm-29.1 3.9c-.3-.4-.7-.8-.8-1-.5-.8-1.1-1.6-1.7-2.3-.3-.4-.6-.7-1-.9 2.9.3 5.9.4 8.8.4 4.5 0 8.9-.5 13.4-1.2-.8 1.1-1.2 2.4-1.6 3.7-3.1.3-6.3.5-9.4.7-2.3.3-7.4.6-7.7.6zm-9.7-.2c-3-1.1-5.9-3.2-8.5-4.6-1.9-1-3.8-2.1-5.7-3.2.6-.5 1.3-1.1 1.8-1.7 1 .7 2.1 1.3 3.4 1.8 4.2 1.7 8.6 2.7 13.1 3.4-.6.2-1.1.6-1.6 1.2-.7 1.1-1.6 2.2-2.5 3.1zm15-9.1c-5.1 0-10.2-.4-15.1-1.6-5.1-1.2-10.3-2.5-11.8-7.4 3.3 1.5 4.9 3.9 9.3 3.3 2.9-.4 5.1-1.6 8-.1 1.7.9 3.3 2 5.2 2.5 4.3 1 7.7-1.6 11.8-2.4 4.9-.9 8.8 2 13.5-.4 2-1.1 3.7-1.6 5.7-2-.3 2-1.2 3.6-3.5 4.6-2.1.9-4.7 1.3-6.9 1.8-5.4 1-10.8 1.7-16.2 1.7zm27.3-18c.3 1.3.4 2.8 0 4.1-1.7.1-3.4.2-5.1.8-1.1.4-2 1.1-3 1.5-2.4.9-4.1.6-6.7.4-2.6-.2-5-.2-7.5.4-4 1-6.5 2.8-10.6 1-2.1-.9-3.6-2.2-5.9-2.5-2.8-.4-5.2 1.4-7.9 1.3-2.2-.1-3.9-2.6-5.9-3.4-.9-.4-2.9-.3-3.6-.8-1.6-1.2-1-3.7-.4-5.3.3.2.6.3.8.5 4.6 2.6 9.7 4.4 14.9 5.2 3.6.6 9.9 1.7 13.3-.4.5-.3.9-.7 1.2-1.2 7.8 2.9 15.1 2.9 23.1-.4 1-.4 2.2-.7 3.3-1.2zm-48-42.3c5.7-3.3 12.4-4.3 18.8-4.6 9.9-.3 21 .9 27.3 9.6 2.6 4 4.1 7.9-.3 11.3-5 3.8-12.2 6.1-18.4 6.7-6.2.6-12.8.4-19-.7-4-.7-11.3-1.8-15.1-5.1-.2-.3-1.6-1.1-2.1-2.8-1.7-6 4.2-11.7 8.8-14.4zm.3 35.8c3.6 2 5.6 1.3 8.1-.4.4.7.9 1.4 1.3 2.1.7 1.1 1.9 1.5 3.1 1.3 1.6-.3 3.1-.6 4.7-.7l-.3 2.4c-8 2-18-2.2-24.7-6.6 0-.6.1-1.1.1-1.7 2.6 1 5.2 2.2 7.7 3.6zm20.4 45.4c-4.7-.1-9.6-.6-14.2-1.4-3.4-.7-6.8-1.9-9.8-3.6-1.8-1-2.7-1.6-3.5-3.5-.5-1.2-.7-2.7-.7-4.2 2.6 1.5 5.3 2.9 8 4.3 1.6.8 3.8 2.4 5.7 2.5 1.7.1 3.2-1.2 4.4-2.7.9 1.2 1.8 2.2 3 2.5 1.8.6 4.4-.1 6.2-.2 4.9-.4 9.8-.7 14.8-1.2 1.3-.1 2.2-.8 2.7-2 .1-.4.3-.8.4-1.2 1.9 1.5 4.1 2.6 6.5 1.7 1.1-.4 2.2-.9 3.4-1.5-2.3 9.6-18.6 10.7-26.9 10.5zm27.1-45c-2.2.6-4.5 2.2-6.7 3-6.1 2.3-12.1 1.9-18.1-.6 0-.3 0-.6.1-.8 4.1 0 8.3.3 12.5.4 1.2 0 2.4-.9 2.7-2 .1-.5.3-1.1.5-1.6 2.5 1.8 5 2.9 8.1 1.3.3-.1.5-.3.8-.4-.1.2 0 .4.1.7z" fill="#231f20"/></svg>