<svg id="Layer_7" viewBox="0 0 128 128" xmlns="http://www.w3.org/2000/svg"><style>.st2{fill:#492a04}</style><path d="M103.8 89.4c-3.1 3.8-7.5 6.5-11.9 9-3.2 1.8-6.4 3.6-9.6 5.3-4.8 2.5-9.8 5-15.3 5.9-6.6 1-13.3-.4-19.4-3.2L82 23.5c.1.1.2.1.3.2 10.7 6.1 21.4 13.7 25 24.6 1.3 3.9 1.6 8.1 1.9 12.2.8 10 1.2 20.9-5.4 28.9z" fill="#d8a339"/><path d="M82.1 23.6l-34.4 82.9c-2.3-1.1-4.6-2.3-6.7-3.7-10.9-7.3-18.8-18.2-21.7-30.2-2.9-12-.8-25 6-35.6 1.6-2.5 3.5-4.9 5.8-6.9 3.1-2.7 6.9-4.7 10.7-6.5 5.9-2.8 12.3-5.4 18.9-5.2 4.1.9 17.3 3.1 21.4 5.2z" fill="#ffca55"/><path class="st2" d="M66.6 106.6c-3.2.8-6.4 1.3-9.6.6-.8-.2-4.1-1.2-7.3-2.2-.6-.2-1.1-.5-1.7-.7l2.2-5.3c2-.3 4.1-.2 5.7-.1 5.2.4 8.3 3.7 10.7 7.7z"/><path d="M50.3 98.9l-2.2 5.3c-1.3-.6-2.6-1.3-3.9-2 .5-.6 1.1-1.2 1.7-1.7 1-.9 2.6-1.4 4.4-1.6zM21.2 52.3c-.9 4.4-1 13.4-1 13.6 1-.5 1.9-1 2.5-1.6 1.8-1.7 2-4.7 2-7 .1-3.2-.6-3.7-3.5-5 .1 0 .1 0 0 0zm14.3 25.4c.3.9.5 1.8.7 2.7 1.9.5 4.1.6 5.9.9 2.4.3 3.2-1.3 4.6-3 2.8-3.4 1.6-6.3.9-9.8-2.8-.4-6-.8-7.9.5-1.9 1.2-4.1 4.3-5.4 6.7.4.6.9 1.3 1.2 2zm11.4-28.3c2.6-1.4 7.6-5 6.9-8.5-.3-1.6-2.1-2.4-3.6-3-3 .9-6 2.4-7.4 5.3-.8 1.6-1.5 3.7-.6 5.2 1.2 1.9 3 2 4.7 1zM65.1 33c-.2.9-.3 1.8-.4 2.7v.2c1.8 1.3 3.7 2.7 5.5 3.2 1.3.3 2.9-.8 4.2-1.6 1.7-1.1 2.5-2.2 2.7-3.8-3.5-2.1-7.3-4.2-11.3-4.3-.3 1.2-.5 2.4-.7 3.6z" fill="#663c04"/><path class="st2" d="M97.2 38.9c-.9.9-1.9 1.7-2.5 2.8-1.3 2.1-1.6 7.1-.2 9.4 1.7 2.9 6.8 1 9.6 1.1.5 0 1 0 1.5.1-1.4-5.3-4.8-9.5-8.4-13.4zM68.6 84.2c2.5 1.6 3.6.9 6.1 0 2.5-.9 5.4-1 7.8-2 3-1.3 3.6-3.1 4.3-6.3 1.6-7.6-2.9-13.7-11-13.5h-.1c-5.9 2.2-8.9 6.8-10.1 13.2-.7 3.3.1 6.7 3 8.6z"/><path d="M108.2 43c-4.9-9.5-15-16.9-24.4-21.7-6.8-3.4-22.9-5.8-23.2-5.8-10.4 0-22.3 5-30.4 11.5-7.8 6.4-12.5 16.7-14.2 26.4-3.5 20.4 6.6 40.4 23.6 51.6.3.2 6.3 4 9.3 4.8 6.5 2.5 13.6 3.5 20.5 2.1 10.3-2.2 21.1-8.8 29.6-14.7 8.6-6 12.6-14.2 13.3-24.6.6-9.4.4-21-4.1-29.6zm-10.8-3c2.9 3.2 5.7 6.6 6.7 10.7-.4 0-.8-.1-1.2-.1-2.3 0-6.4 1.5-7.8-.9-1.1-1.8-.9-5.8.2-7.5.6-.8 1.4-1.5 2.1-2.2zM21.6 53.6c2.1 1.1 2.6 1.4 2.6 4.1 0 1.9-.2 4.3-1.5 5.7-.5.5-1.1.9-1.8 1.3-.1-.2 0-7.6.7-11.1zm35 52.9c-.7-.1-3.6-1-6.3-1.9-1.7-.7-3.3-1.5-4.9-2.3.5-.5.9-1 1.5-1.5 2-1.7 6.2-1.7 8.8-1.5 4.5.4 7.2 3.3 9.3 6.8-2.8.6-5.7 1-8.4.4zm46.9-21.6c-4.7 8.2-15.3 12.7-23.3 16.9-3.1 1.6-6.1 2.9-9.2 3.9-1.4-3-2.6-6.5-5.6-8.2-2.3-1.4-4.8-3.3-7.5-3.7-3-.4-7.5-.4-10.5.3-3.2.8-6.7 5.1-6.8 5.1-9.6-6.9-16.7-17.5-19-29 2-1 4.2-2.1 5.7-3.7 1.9-2 1.9-5 2.1-7.5.3-2.6.6-5.3-1.1-7.5-1.3-1.8-3.7-2.1-5.3-3.5 1.7-5.1 4.3-10 7.9-13.9 6.7-7.5 19.6-12.9 29.6-13 5.5 1.2 11 2.1 16.4 3.6 6.5 1.8 12.7 6.1 17.8 10.6-1.7 2.2-4.1 3.5-4.9 6.4-.8 2.9-.8 6.6.1 9.4.8 2.3 2.6 4.5 4.9 5.3 3.7 1.3 7.7-1.4 11.3.4.1 0 .1 0 .2.1.2 1.2.3 2.5.4 3.7.4 8 1 17-3.2 24.3zM50.4 33.3c-3.9-1.1-11.5 5.2-12.8 10.7-.6 2.8-.4 5.7 1.9 7.7 1.8 1.6 4.9 2.9 7.3 2.4 2.6-.5 5.2-2.7 7.1-4.5 2.1-1.9 3.7-4.4 4-7.2.5-5-3.2-7.9-7.5-9.1zm-3.5 14.8c-1.4.8-2.9.7-3.7-.8-.7-1.2-.1-2.9.5-4.2 1.1-2.3 3.5-3.6 5.9-4.3 1.2.4 2.6 1.1 2.9 2.4.4 2.9-3.6 5.7-5.6 6.9zm41.5 15.8c-3-2.7-7.4-5.7-13-5-8.4 1-13.4 9.6-13.6 18.3-.2 6.8 6.5 13.9 13.4 11.4 3.7-1.3 9.2-1.6 12.4-4 3.3-2.5 3-7 3.3-10.7.2-3.8.4-7.3-2.5-10zm-3.2 11.8c-.5 2.6-1 4.1-3.5 5.2-1.9.8-4.4.9-6.5 1.7-2.1.8-3 1.4-5.1 0-2.5-1.6-3.1-4.4-2.6-7.2 1-5.3 3.5-9.2 8.4-11h.1c6.7-.1 10.5 5 9.2 11.3zM49.3 64c-2.5-1.9-6.9-1-10-.3-2.9.7-4.8 3.7-6.5 5.9-1.4 1.8-3.7 4.2-3.1 6.7.4 1.7 1.5 3 1.9 4.8.3 1.1.3 2 1.3 2.9 2 1.7 7.3 1.8 9.8 2.1 3 .3 4.2-.8 6.1-3 1.8-2.1 3.9-4.2 4.5-7 .7-3.4-.3-9.3-4-12.1zm-3.2 13.7c-1.3 1.5-2 2.9-4.1 2.7-1.6-.2-3.5-.4-5.2-.8-.2-.8-.3-1.6-.6-2.3-.2-.6-.7-1.2-1-1.9 1.1-2.1 3-4.8 4.7-5.8 1.7-1.1 4.5-.7 6.9-.4.7 3 1.8 5.5-.7 8.5zm26.7-34.4c4.5-1.7 9-5.6 8.1-10.9-.5-2.9-4.4-4.3-6.8-5.4-3.1-1.4-6.2-1.9-9.5-1.4-2 1.3-5.2 11.4-2.4 13.7 2.6 2.1 7.3 5.3 10.6 4zm2.7-9.3c-.2 1.1-.8 2-2 2.7-1 .6-2.1 1.4-3 1.2-1.3-.3-2.7-1.4-3.9-2.3v-.2c.1-.7.2-1.3.3-2 .1-.9.3-1.7.4-2.6 2.9.2 5.7 1.7 8.2 3.2z" fill="#231f20"/></svg>