<svg viewBox="0 0 128 128" xmlns="http://www.w3.org/2000/svg"><path d="M89.1 51.8c1.8 1.5-5.2 4.8-11.3 5.5-2.3.3-9.2.4-14.9.5L75 18.5c3.8.2 8.8.5 9.8 1.3 3.2 2.4 6.2 6.5 6.2 6.5s-3.6 24-1.9 25.5z" fill="#b76d02"/><path d="M90.9 100.3c-2.1.2-12.5 10-12.5 10s-23.4-2-31.5-3.2l12.1-36c.4.2 2.1 1 2.9 1.1 10.9 1.1 9-4.6 10.2-4.6s5.3 2.3 5.3 2.3l10.7-1.5c.8 5.4 4.8 31.7 2.8 31.9z" fill="#e20505"/><path d="M60.3 71.8l-10.8 35.3c-1.7-.3-2.8-.5-3.1-.6-1.5-.8-.4-3-.8-8.7-.4-5.7-2.1-26.6-2.1-26.6 8 1.2 7.8-2.2 11.9-2.1 3.4.1 2.7 1.9 4.9 2.7z" fill="#ff1d1d"/><path d="M95.1 63.3l-15.2 7.3-7.5-3.6S62 75 58.6 73.5l5.1-16.7 14.7.4 11.3-3.4 5.4 9.5z" fill="#919191"/><path d="M64.8 57l-5.1 16.7c-.2-.1-.5-.3-.6-.5-2.7-3.2-3.4-5-5-4.6s-7.8 4.3-8.5 3.4c-.7-.8-12.1-7.3-12.1-7.3l10-8.1 21.3.4z" fill="#c1c1c1"/><path d="M76.7 18.4L64.6 57.7c-9.4.1-20-.3-20.4-1-.6-1.2-3.7-34.9-3.7-34.9l18.1-3.1c0-.1 10.3-.6 18.1-.3z" fill="#fca22b"/><path d="M97.1 63.3c0-.9-.3-1.6-.8-2.3-1.6-2.5-5.2-11.1-5.4-12.9-.4-3.3 2.2-20.1 1.9-21.9-.4-2.7-5.6-7.9-6-8.1-6.5-2.8-15.8-2.2-22.7-1.9-8.3.4-23.8 4.5-24.4 4.5-2.4 0 2.4 33.2 2.5 33.7-2.1 3.8-6.4 6.8-10.2 8.6-1.5.7-1.4 3.1 0 3.8 3.2 1.6 6.4 3.3 9.6 4.9v.1c1.2 7.3 1.9 14.6 2.1 22 .1 3.7-.5 7.7-.1 11.4.1 1.6.3 2.4 1.7 3.4 1.8 1.3 27.5 3.4 33.3 3.5.4.1 3-.8 3.2-1.7 1.6-1.6 3.1-3.2 4.8-4.6 1.5-1.3 4.3-2.2 5.5-3.6 1.4-1.6.7-4.1.5-6-.5-3.3-1.2-7.1-1.4-10.5-.4-5.9-2.1-10.8-.6-17 2.5-1.1 6.4-2.3 6.5-5.4zM73.3 20.6c3.1.1 6.9 0 9.9.8-.7 2.9-1.3 5.9-1.9 8.9-2.9 0-5.9 0-8.8.1.2-3.3.5-6.6.8-9.8zm13.4 22.2c-.1.8-.1 1.6-.1 2.3-1.1-.5-2.2-1.2-3.3-1.9.4-2.4.8-4.7 1.2-7.1.2.2.3.4.5.6.6.7 1.2 1.4 1.9 2.1 0 1.4-.1 2.7-.2 4zm-6.3-8.1c-.5 2.4-.9 4.8-1.3 7.3-2.5-.4-5.1-.4-7.6-.4.2-2.3.4-4.5.6-6.8 2.7-.1 5.5-.1 8.3-.1zm-13.3 6.7c-3.3 0-6.5.1-9.8.3 0-2.1.1-4.2.3-6.4 3.3-.2 6.7-.4 10.1-.5-.3 2.3-.4 4.4-.6 6.6zm-14.1.7c-2.7.3-5.3.6-8 1.1-.3-2.2-.5-4.3-.8-6.5 3-.4 6-.7 9-1-.1 2.1-.2 4.2-.2 6.4zm-9.3-9.8c-.3-2.6-.6-5.3-1-7.9 3.7-1.1 7.5-2 11.3-2.6-.2 3.2-.4 6.3-.6 9.5-3.2.3-6.5.6-9.7 1zM46.5 55c0-.1-.6-5.1-.9-7.5 2.5-.4 4.9-.8 7.4-1 .1 3.1.3 6.2.6 9.2-1.8 0-5.4.3-7.1-.7zm11.5.8c-.5-3.2-.7-6.5-.7-9.7 3.2-.2 6.3-.3 9.5-.3-.2 3.3-.4 6.7-.5 10-1.5.1-7 .1-8.3 0zm13.2-9.9c2.4.1 4.9.1 7.3.5-.4 3-.8 6-1 9-2.2.1-4.5.2-6.7.3 0-3.2.1-6.5.4-9.8zm11.4 1.9c1.4.7 2.8 1.6 4.3 2 .1.8.3 1.7.5 2.6-.7 0-1.4 0-2 .2-1.2.3-2.4.8-3.6 1.3.3-2.1.6-4.1.8-6.1zm4.9-16c0 .3-.1.7-.1 1-.5-.6-1.1-1.3-1.8-1.7.4-2.2.9-4.4 1.4-6.5.7.9 1.3 1.9 1.3 3.1 0 .3-.8 3.6-.8 4.1zM68.9 20.5c-.3 3.3-.5 6.6-.8 9.9-3.4.1-6.8.3-10.2.5.2-3.1.6-9.7.6-9.8 1.2-.1 8.2-.6 10.4-.6zm-31 44.4c2.7-1.6 5.1-3.4 6.8-6 3.1 1.5 32.1 1.1 35 .8 2.2-.6 5-2.3 7.3-2.8.5-.1 1.1-.1 1.6-.2.3 1.4.8 2.8 1.7 4 0-.1 1.5 1.9 2 2.5-.8 0-3.7 1.5-3.6 1.4-2.1.9-4.4 2.1-6.6 2.7-2.2.7-2.9 1-5-.3-1.6-1-2.5-2.2-4.5-2.6-1.1-.2-2.5.3-2.7 1.5-.4 2.8-3.3 3.4-5.5 4.3-2.4.9-3 1.5-4.6-.4-1.4-1.6-2-3.4-4.6-3.4-3.3.1-4.1 3.7-7.8 3.1-2-.3-4.7-2.4-6.5-3.3-1.1-.3-2.1-.8-3-1.3zm10.1 40c-.4-5.5.2-11.2-.1-16.7-.3-4.7-.8-9.4-1.5-14.1.7.2 1.4.4 2.1.4 1.7.1 2.8-.4 4.1-1.4.5-.4 1.9-2.1 2.7-1.8.3.1 1.1 2.4 1.3 2.7 2.4 3.3 5.5 1.9 8.7.6 3-1.1 6.3-2.4 7.8-5 1.2.8 2.2 2 3.6 2.7-.5 11.8-.8 23.6.5 35.4-5-.3-27-2.1-29.2-2.8zm40.9-6c-2.4 1.3-5.6 3.7-7.6 5.7-1-10.6-.6-21.4-.2-32 1.7-.4 4.3-1.5 6-2.3-1 7.4 2.9 28 1.8 28.6z" fill="#231f20"/></svg>