<svg id="Layer_1" viewBox="0 0 128 128" xmlns="http://www.w3.org/2000/svg"><style>.st2{fill:#fff066}.st3{fill:#231f20}.st4{fill:#c9b53a}</style><path d="M77.9 22.8l-22.4 84.9c-.5-.1-5.7-2.8-7.8-3.7-5.9-2.4-13.5-4.5-19.6-6.4 1.5-4.6 1.8-9.7.2-14.6-1.8-5.5-5.1-10.6-6-16.5-1.3-8.2 1.8-16 4.2-23.7 1.1-3.5 2.2-11.5 2-15.1 5.6 2.3 37.4-16.8 49.4-4.9z" fill="#7deabd"/><path d="M99.3 84.3c-1.1 4.4.4 9.7 1.7 13.8-5.4.7-11.8 2.4-16.8 4.1-5.4 1.8-11 4.7-16.5 5.8-3.7.7-9.3.3-12.9-.8l22.7-84.8c4.8.2 13.8 7.1 23.3 5.3-.6 3.7 0 12 1 15.8 2.1 8.1 4.8 15.6 3.5 24.1-1 5.7-4.5 11-6 16.7z" fill="#5fb28c"/><path class="st2" d="M69.4 28.6c-3.7 1-5.2 3.5-6 7.2.7 2 1.6 4 2.9 4.8 1-.3 2.2-.7 3.3-1.3 3.5-1.6 7-3.5 10.6-5.3-1.2-.9-2.3-1.8-3.5-2.9-2.1-1.9-4.1-3.3-7.3-2.5zm-18.9 2.1c-1.8.5-3.3 1.6-4.5 3 .4.2.8.4 1.2.7 4.7 2.6 9.2 5.3 14 6-.9-1.9-1.5-3.8-2.3-5.6-1.8-4.1-3.8-5.6-8.4-4.1z"/><path class="st3" d="M109.3 66.6c.7-6.6-.6-13-2.4-19.4-1.4-5-4.6-12-2-17 .1-.2.3-.4.3-.7.4-.8.3-1.6 0-2.2-.3-1-1.2-1.7-2.5-1.6-5.7-.5-11.6-2.2-17.1-3.9-6.5-2-12.1-5.4-19-6-14-1.2-26.6 8.9-40.6 9-1.2 0-1.9.6-2.4 1.4-.5.7-.6 1.7 0 2.7 3 5.1-1 12.8-2.6 17.9-1.9 6.1-3.3 12.3-2.5 18.7.6 5.1 2.4 9.7 4.5 14.3 2.6 6 3.4 10.9.7 17.1-.1.3-.2.7-.2 1-.2 1.2.3 2.6 1.9 3.1 7 2.2 14.3 4.3 21 7.2 6.3 2.7 11.3 4.9 18.5 4.2 5.9-.6 10.9-3.3 16.4-5.2 6.6-2.3 13.7-4.8 20.7-5.2.4.1.7 0 1.1-.1 1.8-.3 2.5-2 2.2-3.5v-.1c0-.1-.1-.2-.1-.3 0-.1 0-.1-.1-.2-2.5-5.7-2.4-10.5-.2-16.2 2-5 3.9-9.7 4.4-15zM67.2 21.2c6.6.8 12.4 4.4 18.7 6.3 1.3.4 2.5.7 3.8 1.1-1.6.6-3.3 1.4-4.9 2.1-2.8-.3-5-3.3-7.1-4.9s-4.3-2.7-7-2.5c-4.2.2-7.5 2.2-9.6 5.2-1-1.4-2.2-2.5-3.9-3-5.6-2-12.2 1-15.7 5.5-1.6-.8-3.2-1.6-4.8-2.3 2.9-.7 5.8-1.6 8.7-2.5 7.1-2.3 14.2-5.9 21.8-5zm-.6 18.2c-1.2-.7-1.9-2.5-2.5-4.2.7-3.1 2-5.3 5.2-6.2 2.8-.8 4.4.5 6.5 2.2 1 .8 2 1.7 3 2.5-3.1 1.6-6.2 3.2-9.2 4.6-1.1.5-2.1.9-3 1.1zm-6.3.3c-4.4-.7-8.4-3.1-12.7-5.5-.4-.2-.7-.4-1.1-.6 1.1-1.2 2.5-2.2 4.1-2.7 4.2-1.3 6 0 7.6 3.7.7 1.7 1.3 3.5 2.1 5.1zm43.4 27.6c-.9 5.9-3.9 11-5.4 16.7-1.1 4.4-.7 8.6.6 12.7-5.3.7-10.6 2.3-15.7 4-5.4 1.8-10.8 4.8-16.3 5.9-4.2.8-8.9.8-12.9-.7-2.1-.8-4-2.1-6.1-3-5.9-2.4-12.1-4.4-18.2-6.3 1.5-4.6 1.9-9.2.3-14-1.8-5.6-4.9-10.5-5.8-16.4-1.3-8.2 1.6-15.8 4-23.5 1.1-3.5 2.2-7.2 2-10.8 5.6 2.2 11 5.1 16.1 8.1 6.5 3.7 12.7 6.8 20.3 5.2.3 0 .6-.1.9-.2 10.8-2.7 20.1-11.3 31.2-13.4-.6 3.7.3 7.6 1.3 11.3 2.2 8.1 5 15.9 3.7 24.4z"/><path class="st4" d="M33.4 70.2c-.4 3.6 2.6 5.8 5.9 4.3 2.8-1.3 4.3-4.6 5.3-7.3.4-1.1.7-2.3 1-3.5-2.3-.9-4.8-1.3-7.1-.2-2.7 1.2-4.8 3.9-5.1 6.7z"/><path class="st3" d="M56.6 48.1c-3.6.4-7.1 2.4-8.7 5.7-1.2 2.4-1.5 5.1-2 7.7-3.3-1.2-6.8-1.3-9.8.8-3.1 2.1-5.4 6-4.8 9.9.2 1.4.9 2.9 2 3.8 6.6 4.9 16.1 5.2 23.1 1.2 5.9-3.4 11.4-9.4 11.7-16.5.3-6.4-4.8-13.4-11.5-12.6zM33.4 70.2c.3-2.9 2.4-5.5 5-6.7 2.3-1.1 4.8-.7 7.1.2-.2 1.2-.5 2.4-1 3.5-1 2.7-2.5 6-5.3 7.3-3.2 1.5-6.2-.7-5.8-4.3zm28.5-.3c-5.4 6.4-14.5 9.5-22.3 6.9 3.7-1.3 5.8-5.4 7.1-8.8.8-2.1 1.3-4.3 1.7-6.5.4-2.3.5-5 1.7-7.1 2.1-3.7 7.5-5.3 11.2-3.1 6.9 4.3 5 13.3.6 18.6z"/><path class="st2" d="M61.9 69.9c4.5-5.3 6.3-14.3-.6-18.6-3.6-2.3-9.1-.6-11.2 3.1-1.2 2.1-1.3 4.7-1.7 7.1-.4 2.2-.9 4.4-1.7 6.5-1.3 3.5-3.4 7.5-7.1 8.8 7.8 2.6 16.8-.5 22.3-6.9zM51 74.4c-.1 0-.2.1-.3.1.1-.1.1-.2.2-.3 0 .1 0 .2.1.2z"/><path class="st4" d="M72.3 96c-3.5.4-5.8-2.6-4.2-5.9 1.3-2.8 4.6-4.3 7.3-5.3 1.1-.4 2.3-.7 3.5-1 .9 2.3 1.3 4.8.2 7.1-1.3 2.6-3.9 4.8-6.8 5.1z"/><path class="st3" d="M82 61.2c-7.2.3-13.1 5.8-16.5 11.7-4 7.1-3.8 16.6 1.2 23.1.8 1.1 2.4 1.8 3.8 2 3.9.6 7.8-1.7 9.9-4.8 2.1-3.1 2-6.5.8-9.8 2.7-.4 5.3-.8 7.7-2 3.3-1.6 5.3-5.1 5.7-8.7.7-6.7-6.4-11.8-12.6-11.5zM68.1 90.1c1.3-2.8 4.6-4.3 7.3-5.3 1.1-.4 2.3-.7 3.5-1 .9 2.3 1.3 4.8.2 7.1-1.2 2.6-3.9 4.7-6.7 5-3.6.4-5.9-2.5-4.3-5.8zm23.2-22c2.3 3.6.6 9.1-3.1 11.2-2.1 1.2-4.7 1.3-7.1 1.7-2.2.4-4.4.9-6.5 1.7-3.5 1.3-7.5 3.4-8.8 7.1-2.6-7.8.5-16.8 6.9-22.3 5.2-4.5 14.3-6.3 18.6.6z"/><path class="st2" d="M65.8 89.8c1.3-3.7 5.4-5.8 8.8-7.1 2.1-.8 4.3-1.3 6.5-1.7 2.3-.4 5-.5 7.1-1.7 3.7-2.1 5.3-7.5 3.1-11.2-4.3-7-13.4-5.1-18.6-.6-6.4 5.4-9.5 14.5-6.9 22.3zm2.5-11.3c-.1.1-.2.1-.3.2 0-.1.1-.2.1-.3.1 0 .1.1.2.1z"/></svg>