<svg viewBox="0 0 128 128" xmlns="http://www.w3.org/2000/svg"><path d="M60.9 20.1l-13.8 12 18.3 6.1s15-2.1 16.4-5.6-13.8-.8-20.9-12.5z" fill="#ff8af9"/><path d="M54.3 37.4h25.9l14.3 3.3s-2.5 8.8-14 9.6S58 45.4 54.3 37.4z" fill="#f74bf7"/><path d="M32.6 40.5l16.5-5s12.2 13.9 18.4 14.7 21.2-.1 23.8-1.7c2.6-1.6 8.5 5.9 8.5 5.9s-12.1 12.3-18 11.5c-5.9-.8-25.2-7-27-7.8-1.8-.8-16.6-8.1-18.3-10.3s-3.9-7.3-3.9-7.3z" fill="#c114c1"/><path d="M26.6 53l9.6-4.5s24.3 14.3 33.5 15.6c9.3 1.3-8.4 2.7-12.6 2.9s-26.6-3.6-30.5-14z" fill="#962f96"/><path d="M24.1 65.9l6.6-4.5s45.7 13.1 65.6 0l6.7 4.5S88.4 83.7 62.5 82.2 24.1 65.9 24.1 65.9z" fill="#720372"/><path d="M93.7 90.9L90 104.4s-16.3 5.5-25.5 6.1c-9.2.7-28-6.1-28-6.1l-1.6-6.2 58.8-7.3z" fill="#f77f7f"/><path d="M98.5 73.2l-4.8 17.7c-10.2 10.8-46.5 15.6-58.8 7.2l-6.8-26.2s15 11.6 36.6 9.8c21.6-1.9 33.8-8.5 33.8-8.5z" fill="#f25a5a"/><path d="M105.2 63.1c-2.1-1.1-4-2.3-5.9-3.6 1.3-1.2 2.6-2.3 4-3.4 1.8-1.3 1.8-4.4-.7-5-3-.7-5.6-1.9-8-3.8 1.6-2.3 2.9-4.8 3.9-7.5.8-2.1-1.5-3.7-3.4-3.4-4.1.7-8.1.3-11.8-1.1.8-1.1 1.5-2.2 2.1-3.5.5-1 2.8-4.4-3.3-4.1-5.5.3-10.8-.7-14.7-5-1.9-2.1-3-4.8-5-6.8-1.4-1.4-4.1-.8-4.6 1.2-1.5 6.4-6.9 10.6-13.5 10.5-2.2-.1-3.2 2.3-2.4 4.1.6 1.3 1.3 2.4 2.1 3.5-3.8 1.5-7.7 1.9-11.8 1.1-1.9-.3-4.2 1.2-3.4 3.4 1 2.7 2.3 5.2 3.9 7.5-2.4 1.8-5 3-8 3.8-2.5.6-2.4 3.7-.7 5 1.6 1.2 3 2.4 4.4 3.8-1.7 1.2-3.5 2.3-5.3 3.2-1.4.7-1.6 2.5-1 3.8.7 1.3 1.5 2.6 2.5 3.7 2.4 11.6 10.3 35.5 11 35.9 4 2.4 12.8 5 13 5 5.1 1.1 10.3 1.7 15.7 1.3 6.5-.4 15.6-2.7 19.8-4.1 4.1-1.4 8.2-2.9 8.6-3.9 4.2-10.6 6.8-21.6 9.3-32.6 1.6-1.6 3.1-3.3 4.1-5.3.7-1.2.4-3-.9-3.7zM85.3 75.4c-7.9 2.8-16.1 3.9-24.5 4-6-.5-12-2.6-17.8-4.3-9.4-2.6-14.7-8.6-14.9-8.8 1.4-.8 2.7-1.7 4-2.7C42.5 69 54 70.2 65.6 70.1c6.1 0 12.7.3 18.7-1.3 4-1.1 7.6-3.2 10.9-5.6 1.5 1.2 3.1 2.2 4.7 3.2-3.5 4.4-9.6 7.2-14.6 9zm-13.2 31.4c1.3-7.6 1.8-15.2 2.2-23 2.5-.4 5.1-.9 7.6-1.6-1.6 8.1-3 16.1-5.7 23.9-1.5.3-2.8.5-4.1.7zm-21.2-.5C48 98.3 46.7 90 45 81.6c2.5.8 5.1 1.5 7.7 2 .3 7.8.9 15.5 2.2 23.2-1.3 0-2.7-.2-4-.5zm-11.7-4.2c-3.3-8.5-5.8-17.3-7.9-26.1 2.5 1.4 5.1 2.6 7.6 3.5h.1v.4c1.8 8.3 3 16.6 5.5 24.6-1.7-.6-3.5-1.4-5.3-2.4zm-3.1-50.6c7.3 6.7 18.2 9.9 27.4 12.2 1.3.3 2.6.6 4 1h-3.8c-10.1 0-20.1-1.2-29.1-5.8-.1-.3-.3-.6-.5-.8-1.1-1.2-2.2-2.3-3.4-3.3 1.9-.9 3.7-2 5.4-3.3zm55.3-9.3c-.7 1.2-1.4 2.3-2.3 3.4-6.1 3.2-13.5 3.8-20 1.6-4.4-1.5-8.3-4.6-11.9-8 7.1 1.9 14.5 2.6 21.5-.1 4 2.1 8.2 3.1 12.7 3.1zM61.1 23.4c1.2 1.7 2.4 3.5 4.1 4.9 3.7 3.1 8 4.5 12.6 4.8l-.7.7c-7.9 3.5-17.3.8-25.4-2.1 4-1.5 7.3-4.5 9.4-8.3zM48.8 39c6 5.5 12.1 11.8 20.1 13.9 7.1 1.9 14.8 1.2 21.4-1.9 1.8 1.5 3.8 2.7 5.9 3.7-1.2 1-2.3 2.1-3.4 3.3-1.2.9-2.4 1.7-3.7 2.4-7 2.6-17.2-.3-24.1-2-9.1-2.2-20.3-5.3-26.8-12.6-1-1.2-1.8-2.4-2.5-3.6 4.5 0 8.9-1 13.1-3.2zm11.7 68.3c-1.4-7.5-1.9-15-2.3-22.6.6.1 8.1.1 10.5-.1-.3 7.6-.9 15.2-2.3 22.7h-5.9zm27.6-5.6c-1.9 1.1-3.7 1.9-5.6 2.6 2.4-7.9 3.6-16 5.4-24.1.4-.2.8-.3 1.3-.5 2-.8 4.2-1.8 6.3-2.9-2.1 8.5-4.4 16.8-7.4 24.9z" fill="#231f20"/></svg>