<svg viewBox="0 0 128 128" xmlns="http://www.w3.org/2000/svg"><path d="M22.6 56.8c-4.6 7.4-.5 15.5 8.3 15.6 7.5.1 14.3-5.5 19.4-10.3 2.2-2 4.1-4.3 5.9-6.7-4.1-4.5-9.1-8-15.5-8.1-6.9 0-14.4 3.6-18.1 9.5z" fill="#c9b53a"/><path d="M97.4 33c-8.4-3-18-2.4-25.2 3.2-5.1 4-8.9 9.5-12.7 14.9-5.9-6.2-13.6-10-22.5-8.8-9.2 1.3-18.4 7.4-21.3 16.5-1 3.3-1.1 7.4.4 10.5 9.2 18 29.7 28.8 49.6 27.5 16.7-1.1 35.1-8.3 43.5-23.7 7.5-13.6 3.9-34.5-11.8-40.1zM22.6 56.8c3.7-6 11.2-9.5 18.2-9.5 6.4.1 11.4 3.6 15.5 8.1-1.8 2.4-3.7 4.7-5.9 6.7-5.2 4.8-12 10.4-19.4 10.3-8.9 0-13-8.2-8.4-15.6zm62.9 29.8c-18.8 8.2-42 5.3-56.4-8.8 9.6 1 18.4-5.6 25.1-11.8 4.1-3.8 7.5-8.1 10.7-12.6 3.3-4.7 6.5-10.3 11.4-13.7 8.5-5.9 22.3-3.7 27.9 5.2 10.6 17.2-3.2 35-18.7 41.7z" fill="#231f20"/><path d="M85.5 86.6C101 79.8 114.8 62 104.2 45c-5.5-8.9-19.4-11.1-27.9-5.2-4.9 3.4-8 8.9-11.4 13.7-3.2 4.5-6.7 8.7-10.7 12.5-6.6 6.2-15.5 12.8-25.1 11.8 14.4 14.1 37.6 17.1 56.4 8.8zm-28.9-1.7h-.7c.2-.2.5-.3.7-.4.1.1 0 .3 0 .4z" fill="#fff066"/></svg>