<svg id="Layer_13" viewBox="0 0 128 128" xmlns="http://www.w3.org/2000/svg"><style>.st4{fill:#231f20}.st5{fill:#008050}.st6{fill:#f26830}.st7{fill:#b9c033}</style><path d="M107.9 53c-3.6 2.8-7.1 5.6-7.8 6.3C98.4 61 67.5 69 44.8 66c-11.1-1.5-19.1-5.4-24.4-8.9-1.7 4.6-2.4 11.4-.2 14 .3 2.6 3.2 3.1 5.7 4.4 4.7 2.4 10.2-3.3 13.7-.1 10.8 9.8 16.7 5.6 18.5 5.2.8-.2 7.4-2.5 8.8-2.2 1.6.4 11 2.2 12.7 1.9 4.5-.8 27.9-9.5 29-19.4.2-1.9 0-6.2-.7-7.9z" fill="#e0a9cf"/><path d="M94.4 41.1c-4.3-2.6-19.6-7.8-22.4-7.6-10.8-.5-32.9-2.6-42.9 11.3-2.3 2.5-6.5 8.7-8.8 14.7 5.3 3.6 13.4 7.5 24.4 8.9 22.8 3 53.7-5 55.3-6.7.8-.8 4.3-3.5 7.8-6.3-2-6.1-8.4-11.3-13.4-14.3zM71.5 57c-6.9 3.5-15.9 2.2-23.4.7-2.8-.5-4.2-4.3-2.7-6.6 1.4-2.2 6.3-4 6.5-4.1 6-3.1 10.6-.9 16.8-.5 4 .4 7.1 8.3 2.8 10.5z" fill="#ffcced"/><path d="M94.8 82.1c-11.8 5.1-31 3.8-45.1 4-8.9.1-20.9-3.1-28.4-5.5 2 2.8 6.2 6.9 8.3 8.1 5.7 3.4 12.1 5.2 18.6 6 7.6.9 15.4.4 23-.3s15.7-1.5 23-3.7c5.3-1.6 9.8-5.1 12.4-10 .5-.9 1.1-4 1.5-5.4-3.7 2.2-8.4 4.7-13.3 6.8z" fill="#e5ac38"/><path d="M108.1 77.1c-3.7 2.2-8.3 4.7-13.2 6.8-11.8 5.1-31 3.8-45.1 4-8.9.1-20.9-3.1-28.4-5.5-.8-1.1-1.2-2.3-1-3.5 1-6 8-1.1 10.8-1.1 2.1 0 11.8.2 13.7 1.4 4 2.6 6.8 5.1 11.8 2.8 3.4-1.6 8.7-5.8 12.1-2.8 3.1.2 4.7 1.9 7.8 3 5.8 2 8.5-1.6 12.8-4.8 2.6-2 14.4-8 16.9-7.1 2.8 1 2.6 4.1 1.8 6.8z" fill="#aa7b26"/><path class="st4" d="M104.3 44.5c-.1-.2-.3-.3-.5-.5-7.5-5.9-15.3-11.2-24.7-13.3-9-2.1-18.3-1.9-27.4-.6-7.9 1.1-15.8 2.9-21.8 8.4C23 45 18.7 52.7 17.3 62.1 16.5 67 15.2 73 15.9 78c.6 4.5 3.5 8.5 6.9 11.3 7 5.9 15.4 8.2 24.3 8.9 17.5 1.3 35 1.2 51.3-6 9.2-4.1 13-10.2 13.7-20.1.7-9.8-.3-20.4-7.8-27.6zm-72.6.1c5.2-5.5 11.3-7.4 18.6-8.7 8.2-1.4 17-1.8 25.2-.3 9.4 1.7 17.1 6.5 24.5 12.4 3.7 3.4 5.6 7.8 6.4 12.5-1 1.8-1.9 3.7-2.9 5.5-1.8 3.4-6.1 2.8-9.6 3.7-3.5.9-5.5 3-8 5.6-2.1 2.1-4.3 4.4-7.6 3.7-2.3-.5-4.5-2.2-6.6-3.2-3-1.3-6-1.8-9.1-.6-2 .8-3.6 2.3-5.4 3.4-3.3 2.1-6.3 1.4-9.4-.5-3.8-2.3-6.9-5.5-11.7-5.2-2.2.2-4.1 1.5-6.3 1.6-3 .1-5.8-2.1-7.8-4.2.1-.8.2-1.5.3-2.3.8-9.1 3-16.6 9.4-23.4zm73 36.3c-1.7 2.8-4.9 4.7-7.8 6-13.3 6.3-28.1 7-42.5 6.2-7.2-.4-14.7-.5-21.3-3.7-3.7-1.9-7.6-4.3-9.9-7.8-.9-1.4-1.4-2.9-1.6-4.3 2.4 1.7 5.2 2.8 8.2 2.8 3-.1 5.4-2 8.5-1.2 3 .8 5.4 3.4 8.2 4.9 4.3 2.2 8.7 2.6 12.9.1 2.7-1.6 4.6-4.2 8.1-3.7 2.6.4 5 2.4 7.5 3.4 4.1 1.7 8.1 1.2 11.6-1.5 1.8-1.3 3.2-3 4.7-4.6 2.1-2.1 4-2.5 6.9-3 3.1-.6 6.5-1.1 8.6-3.4-.2 3.3-.4 6.9-2.1 9.8z"/><path class="st4" d="M45.3 60.2c7.6 3.7 20.3 3.4 27.8-.5 7.2-3.7 5.3-10.7 0-14.7-.2-.2-.5-.4-.8-.6-.3-.2-.6-.3-.9-.4-6.7-2.8-16.1-3.6-22.6-.4-6.3 3.1-11.8 12.5-3.5 16.6zm12.6-12.9c3.8-.1 8.1.2 11.6 1.9 2.3 1.5 4.1 3.3.2 6.1-1.7 1.2-5.5 1.4-7.4 1.6-2.3.2-4.6.3-6.9.1-1.4-.1-6.8-.4-7.8-1.7-4.2-5.4 7.3-8 10.3-8z"/><path class="st5" transform="rotate(-34.871 32.324 55.1)" d="M31.1 51h2.5v8.2h-2.5z"/><path class="st5" transform="rotate(-38.997 53.193 70.213)" d="M49.1 69h8.2v2.5h-8.2z"/><path class="st5" transform="rotate(-79.252 60.41 38.082)" d="M59.5 34.9h1.9v6.3h-1.9z"/><path class="st5" transform="rotate(-64.273 86.35 50.054)" d="M85.1 46h2.5v8.2h-2.5z"/><path class="st6" transform="rotate(-64.273 83.599 62.774)" d="M82.4 58.7h2.5v8.2h-2.5z"/><path class="st6" transform="rotate(-64.273 34.78 66.943)" d="M33.5 62.8H36V71h-2.5z"/><path class="st7" transform="rotate(-42.577 93.454 57.415)" d="M89.4 56.2h8.2v2.5h-8.2z"/><path class="st7" transform="rotate(-42.577 69.683 67.783)" d="M65.6 66.5h8.2V69h-8.2z"/><path class="st7" transform="rotate(-42.577 76.334 41.076)" d="M73.3 40.2h6V42h-6z"/><path class="st6" transform="rotate(-24.687 40.214 44.779)" d="M36.6 43.7h7.3v2.2h-7.3z"/></svg>