<svg viewBox="0 0 128 128" xmlns="http://www.w3.org/2000/svg"><path d="M19.9 36.8l14.8-4.3 3.4 2.1 9.6-2.1 2.6-6.5H67v6.5l7.8-2.2 3.3-8.9 13.4.1 2.8 5.2 9.4 1.8 2.4 29.8S84.7 75.1 64 72.8s-41.5-13-41.5-13l-2.6-23z" fill="#f9ed32"/><path d="M33.6 32.5l-7 29.4 11 5.5zm14.8 1.4l-8.6 32 11 5.5zm2.4-7.3l1.7 41.2 14.9 3.1zm29.3-5.2L69 73.5l37.8-14.2z" fill="#e8d103"/><path d="M108.8 76.2c-.5 13-1.8 27.7-4.8 29.6-5.3 3.5-3.8-5.6-35-5.6s-42.4 6.4-42.4 6.4-2.7-3.2-5.1-9.9c-1.8-5-3.3-11.9-3.3-21 8.2 3.5 21.8 6.8 43.5 6.8 20.9.1 36.3-2.9 47.1-6.3z" fill="#f33"/><path d="M109 70.6c-.1 1.8-.1 3.7-.2 5.6C98 79.6 82.9 85 62 85c-21.8 0-35.5-5.7-43.8-9.2 0-5.2.5-11 1.7-17.6 0 0 13 14.5 46.1 14.5S109.2 56 109.2 56s0 6.4-.2 14.6z" fill="#ea0303"/><path d="M107.6 45.8c-.9-.1-.7-11.5-.7-17.1 0-1.3-.9-2.2-2-2.7-3.4-1.2-6.8-1.9-10.4-2.1-.1-1.1-.3-2.2-.4-3.2-.2-1.3-1.5-1.9-2.7-2-2.7-.3-5.5-.6-8.3-.7-1.9-.1-4.9-.6-6.6.7-1.3 1.1-1.5 3.1-1.9 4.7-.5 2-.9 4-1.3 6-1 0-2 .1-3 .2 0-.9-.1-1.9-.2-2.8-.1-1.6-1.2-2.6-2.8-2.8-6.1-.7-12.2-.8-18.3-.4-1.6.1-2.6 1.2-2.8 2.8-.2 1.5-.5 2.9-.7 4.3-2.6.5-5.2 1.3-7.7 2.3v-1.4c0-1.8-1.8-3.2-3.5-2.7-5.3 1.6-10.4 3.5-15.4 5.8-1.2.6-1.4 2-1.3 3.1.5 3.2 1.1 6.4 1.8 9.6-14.2 4.5.2 57.6 2.2 60.4 4.3 5.9 11.6-1.2 16.5-2.7 15.4-4.8 38.2-4.5 51.9.2 5.4 1.9 12.9 9.1 16.6.9 3.8-7.7 15.1-58.9 1-60.4zM95.7 29.5c2 .2 3.8.6 5.7 1.1.1 9.1.4 18.3 1.7 27.3-3.3 2.5-8.1 4.8-11.7 6.3 1.5-8.4 4.1-31.9 4.3-34.7zm-15.4-6.3c2.7-.3 5.8.1 8.7.6 0 .3 0 .7.1 1l.3 5.4c.1 2.5.3 5.1.2 7.6-.9 9.1-3.8 28.1-3.7 28.5-.2.1-.5.1-.7.2-.8-11.6-.9-23.2-.2-34.8.1-1.5-1.3-2.8-2.8-2.8-1.1 0-2.1 0-3.2.1.3-1.9.6-4 1.3-5.8zm-9.1 45.9c-.5-6.9-.7-13.8-.9-20.7-.2-4.5.1-9 .2-13.5 2.9-.2 5.9-.3 8.8-.4-.5 10.9.4 33.1.5 33.2-2.9.7-5.7 1.1-8.6 1.4zM51.5 28.8c4.5-.2 8.9-.1 13.4.3.2 6.4-.4 12.9-.2 19.3.3 7 .4 14 1 21h-1.4c-3.1 0-6.2-.1-9.3-.5-1.1-12.2-1.4-24.3-.8-36.5.1-1.4-1.3-2.9-2.8-2.8.1.1.1-.5.1-.8zm-2.8 6.9c-.4 10.9-.1 21.7.8 32.5-2.6-.5-5.2-1.1-7.7-1.9-2-9.2-3.1-18.5-3.5-27.9.3 0 10.2-2.7 10.4-2.7zM29.5 61c0-.3-4.7-15-5.9-22.4 3-1.3 6-2.5 9-3.5.3 9.7 1.3 19.4 3.1 28.9-1.6-.6-5.6-2.6-6.2-3zm73.5 39c-.5 1.9-.6 4-3.2 3.7-1.5-.2-3.8-2.2-5.3-2.8-3-1.2-6-2-9.2-2.5-7-1.1-14.2-.9-21.3-.9-6.6 0-13.2-.2-19.8.7-3.2.4-6.3 1.1-9.3 2.2-2 .7-7.1 4.5-9 2.8-.6-.6-1.3-4.6-1.5-5.4l-1.2-5.4c-.9-4.6-1.6-9.2-2-13.9-.4-5.5-.5-11-.2-16.4 1.8 1.5 3.9 2.7 5.7 3.7 10.9 6.2 23.6 9.1 36 9.2 12.6.1 25.4-2.5 36.8-8 2.5-1.2 5.3-3.2 7.6-5.5.5 12.9-.8 26-4.1 38.5z" fill="#231f20"/></svg>