<svg id="Layer_1" viewBox="0 0 128 128" xmlns="http://www.w3.org/2000/svg"><style>.st0{fill:#c67926}</style><path class="st0" d="M106.2 66.3C96 73 19.3 81.7 19.3 81.7v-2.9C39.5 73.6 80 63.4 87.1 55.4c5.7-6.4 9.5-13 10.5-19.6 1.9 1.1 5.5 2.3 6.3 3.2 4.1 4.8 12.4 20.7 2.3 27.3z"/><path d="M99.7 36c-1 6.6-5 13.7-10.7 20.1-7.1 8-48.6 19.3-68.8 24.4L52.7 39l19.2-15c-.1 0 18.8 6.9 27.8 12z" fill="#dd9c4e"/><path class="st0" d="M21.5 85.7s31.7 9.5 48.3 8.7c16.7-.8 29.5-6.2 34.2-8.7s1.8 12.2-10 15-43.5 3.8-51.5 2.2c-8-1.7-16.7-3.8-18.7-8.3s-2.3-8.9-2.3-8.9z"/><path d="M106.1 75.3c-1.9 6-6.3 14.3-19.3 17.2-25.2 5.4-63.5-6-65.3-6.9-1.3-.6-.4-3.2 0-4.2 13.6 2.6 37.7 6.1 50.8 4.3 11.7-1.6 24.8-6.2 33.8-10.4z" fill="#f2ee5a"/><path d="M106.8 76.7c-9 4.1-22.1 8.7-33.8 10.3-13.1 1.8-38.2-2.4-51.8-5 .1-.3.3-.6.3-.6s62.3-7.4 69.3-8.7 16.7-6.5 16.7-6.5 1 4.9-.7 10.5z" fill="#fcfc95"/><path d="M90.5 27.9c-3.1-1.5-15-7.7-18.2-6.9-6.8 1.6-14 9.1-18.8 13.9-13.8 13.8-24 30.7-37.3 44.9-.1.1-1.3 2.2-.4 3.3 3 4.2 3.9 9.8 7.5 13.6 4.6 5 14.4 7.5 20.9 8.7 13.3 2.4 27.7 2.2 41.1.5 7.4-1 13.7-3.6 19.4-8.7 2.5-2.3 3.4-5.5 4.2-8.8 2.2-9 3.9-30.3 3.9-31 1.7-15.5-9.9-23.3-22.3-29.5zm-6.8 2.7c2 .9 4.2 1.8 6.4 2.9-.4.3-1.4 2.6-1.7 3.4-2.8-.5-6.1-1.1-6.7-1.2.5-1.5 1.9-4.9 2-5.1zm2.6 11.5c-.6 1.6-1.2 3.2-1.8 4.7-3.3-.1-6.2-.1-7.7-.1.8-1.9 1.7-3.9 2.5-5.8.7.1 4.1.7 7 1.2zm-3.7 10.2c-.8 2.5-1.6 5.1-2.3 7.7-4.3.1-8.7.2-9.5.2 1.2-2.7 2.4-5.3 3.5-8 1.9 0 4.9 0 8.3.1zM70.4 28.1c3.3-2.1 5.5-1 8.4.4 0 0 0 .1-.1.1L76 34.9c-3-.4-6.1-.7-9.1-1l-1.9-2c1.7-1.3 3.5-2.7 5.4-3.8zm-5.1 11.2c2.8.2 5.6.5 8.4.8-.9 2.2-1.9 4.3-2.8 6.5h-8.3c1-2.5 1.8-4.9 2.7-7.3zM68.5 52c-1.3 2.9-2.6 5.8-3.8 8.7-2.7.3-5.3.5-8 .8 1.3-3.1 2.6-6.3 3.9-9.4 2.6-.1 5.2-.1 7.9-.1zm-11-13.4c.4.2 1.8.4 2.1.4-.9 2.6-1.9 5.1-2.8 7.7-2.3 0-4.6.1-6.9.2 2.4-2.9 4.9-5.7 7.6-8.3zm-2.9 13.6c-1.3 3.3-2.7 6.6-4.1 9.9-2.4.2-8 .8-8.5.9 1-3.1 3.3-10.5 3.4-10.5.1 0 6.3-.2 9.2-.3zm45.9 41.2c-5.1 4.8-11.2 6.6-17.9 7.3-11.8 1.3-24.4 1.5-36.1-.4-6-1-15.1-3-19.5-7.5-1-1.1-1.8-2.4-2.5-3.8 3.7 1.6 7.4 2.9 11.3 4.1 10.1 3.1 20 5.2 30.7 5 6-.1 12.1-.7 18.1-1.6 5.2-.7 10.6-1.5 15-4.7 1.3-.9 2.5-2 3.5-3.2-.6 1.8-1.3 3.5-2.6 4.8zm-6.6-4.7c-8.3 3.7-19.6 3.8-28.6 3.9-8 .1-15.6-1.2-23.2-3.4-3.6-1-7.2-2.1-10.8-3.4-1.1-.4-3.8-1.2-6.3-2.1 17-2 33.9-4 50.9-6 9.4-1.1 21.1-1.5 28.8-6.8-1.2 7.3-3.9 14.7-10.8 17.8zm2-19.5c-7.2 2-15.1 2.3-22.5 3.2-16.2 1.9-32.4 3.9-48.6 5.8 2.6-3.1 5.1-6.2 7.6-9.4.6.1 1.2.2 1.8.2-.3.9-.5 1.8-.8 2.6-1 3.4 4.3 4.9 5.3 1.5.4-1.5.9-3 1.3-4.5 2.6-.2 5.2-.5 7.7-.7-.1.3-.2.5-.4.8-.9 1-.9 2.8.1 3.7 0 0 .1 0 .1.1 1.2 1.1 3.5 1.1 4.3-.6v-.1c.3-.4.5-.8.6-1.2l1.5-3.3c2.7-.3 5.3-.5 8-.8 0 .1-.1.2-.1.2-1.4 3.2 3.3 6 4.7 2.8.5-1.2 1.1-2.4 1.6-3.6 1.2-.1 6-.2 10.7-.4-.1.4-.2.7-.2 1.1-.7 3.5 4.6 4.9 5.3 1.5l.6-2.7c2.4-.1 4.4-.1 5.1-.2 3.5-.3 3.5-5.8 0-5.5-.4 0-1.9.1-3.8.1.7-2.5 1.5-5 2.3-7.5 3.9.1 7.5.2 9.5.3 3.5.2 3.5-5.3 0-5.5-1.5-.1-4.3-.1-7.5-.2.5-1.4 1-2.7 1.5-4.1 2.1-.4 3-3.1 1.8-4.5.3-.7.9-2.4 1-2.5 5.8 3.3 11 7.5 12.3 13.3 2.3 9.1-1.6 17.5-10.8 20.1z" fill="#231f20"/></svg>