<svg viewBox="0 0 695.7 695.7" xmlns="http://www.w3.org/2000/svg"><circle cx="347.9" cy="362.8" fill="#634E42" r="257.5"/><path d="M269.1 117.5C165.4 150.8 90.4 248 90.4 362.8c0 90.1 46.3 169.3 116.3 215.3 103.7-33.3 178.8-130.5 178.8-245.2-.1-90.1-46.4-169.3-116.4-215.4z" fill="#422918" opacity=".4"/><path fill="#634E42" d="M308.3 126.8l39.6-51.4 39.5 51.4z"/><path d="M367.3 178.3c0 10.8-8.7 19.5-19.5 19.5s-19.5-8.7-19.5-19.5 8.7-37.4 19.5-37.4 19.5 26.7 19.5 37.4zm-77 2.9c-7.6 7.6-20 7.6-27.6 0-7.6-7.6-7.6-20 0-27.6 7.6-7.6 32.6-20.3 40.2-12.6s-5 32.6-12.6 40.2zm118 0c7.6 7.6 20 7.6 27.6 0 7.6-7.6 7.6-20 0-27.6-7.6-7.6-32.6-20.3-40.2-12.6s5 32.6 12.6 40.2z" fill="#422918"/></svg>