<svg viewBox="0 0 695.7 695.7" xmlns="http://www.w3.org/2000/svg"><path d="M434.4 278.1c-3.7 3.7-17.7 12.8-20.7 9.7-3-3 6.1-17.1 9.7-20.7 3.7-3.7 9.1-4.2 12.1-1.1s2.5 8.5-1.1 12.1zm26.7 80c-5.2 0-21.6-3.5-21.6-7.8s16.4-7.8 21.6-7.8c5.2 0 9.4 3.5 9.4 7.8s-4.3 7.8-9.4 7.8zM450.6 460c-3.7-3.7-12.8-17.7-9.7-20.7 3-3 17.1 6.1 20.7 9.7 3.7 3.7 4.2 9.1 1.1 12.1-3 3-8.4 2.5-12.1-1.1z" fill="#1D1D1B"/><path d="M347.9 605.4c-142 0-257.5-115.5-257.5-257.5S205.9 90.4 347.9 90.4s257.5 115.5 257.5 257.5-115.6 257.5-257.5 257.5z" fill="#E8CB00"/><path d="M347.9 584.4c-130.4 0-236.6-106.1-236.6-236.6s106.1-236.6 236.6-236.6 236.6 106.1 236.6 236.6-106.2 236.6-236.6 236.6z" fill="#99C21C"/><path d="M347.9 121.9c124.6 0 226 101.4 226 226s-101.4 226-226 226-226-101.4-226-226 101.4-226 226-226m0-21.2c-136.5 0-247.2 110.7-247.2 247.2S211.4 595 347.9 595 595 484.4 595 347.9 484.4 100.7 347.9 100.7z" fill="#85B227"/><path d="M414.7 536.3c-3.6 0-7.1-1.6-9.4-4.6-12.7-16.5-23.7-34.1-32.6-49.9-3.8 12.2-8.1 23.2-13 33.3-2 4.1-6.1 6.7-10.7 6.7s-8.7-2.6-10.7-6.7c-6.2-12.8-11.4-26.8-15.9-42.9-8.7 12.7-17.1 23.4-25.8 32.9-2.3 2.5-5.5 3.9-8.8 3.9-1.6 0-3.2-.3-4.7-1-4.6-2-7.5-6.7-7.2-11.7.7-9.7 1.9-19.9 3.9-30.9-19.8 12.6-38 21.9-55.9 28.8-1.4.5-2.8.8-4.2.8-3.1 0-6.1-1.2-8.4-3.5-3.3-3.3-4.4-8.3-2.7-12.6 6.1-15.9 14.1-31.9 24.7-49.3-18.5 4.6-35.1 7.6-50.7 9.2-.4 0-.8.1-1.2.1-4.7 0-9-2.8-10.9-7.1-2.1-4.7-.8-10.3 3.1-13.7 15.1-13.2 31.3-24.6 46.5-34.3-22.4-5.1-41.5-11.2-58.8-18.9-4.3-1.9-7-6.2-7-10.8s2.8-8.9 7-10.8c18-8.1 38.1-14.4 61.9-19.6-4.1-3.2-7.9-6.3-11.5-9.5-3.7-3.3-5-8.5-3.2-13.1 1.7-4.6 6.1-7.7 11.1-7.7h.6c7.4 0 15.1.4 23.4 1.2-15.7-23.3-27-44.5-35-65.4-1.7-4.4-.6-9.3 2.7-12.6 2.3-2.3 5.3-3.5 8.4-3.5 1.4 0 2.9.3 4.2.8 18.1 6.9 36.5 16.4 56.5 29.2-4.8-21.6-7.8-40.6-9.2-58.5-.4-5.2 2.7-10.1 7.6-12 1.4-.5 2.8-.8 4.3-.8 3.6 0 7.1 1.6 9.4 4.6 10.4 13.5 19.6 27.7 27.5 41.2 4.9-19.5 10.8-36.2 18.1-51.3 2-4.1 6.1-6.7 10.7-6.7s8.7 2.6 10.7 6.7c8.8 18.4 15.7 39.1 21.1 63.8 6.4-8.6 12.6-16.3 18.9-23.2 2.3-2.5 5.5-3.9 8.8-3.9 1.6 0 3.2.3 4.7 1 4.6 2 7.5 6.7 7.2 11.7-.6 8.8-1.7 17.9-3.3 27.7 20.3-13 38.8-22.6 57-29.6 1.4-.5 2.8-.8 4.3-.8 3.1 0 6.1 1.2 8.4 3.5 3.3 3.3 4.4 8.3 2.7 12.6-6.7 17.5-15.8 35.3-28.1 54.7 11.7-2.4 22.2-4.1 32.6-5.2.4 0 .8-.1 1.2-.1 4.7 0 9 2.8 10.9 7.1 2.1 4.7.8 10.3-3.1 13.7-9.1 7.9-19.1 15.6-30.8 23.7 22.7 4.8 42.2 10.7 59.7 18l.8.4c6.9 3.1 9 9 8.7 13.5-.8 10.9-11.8 15-36.6 21.7-1.4.4-2.5.7-3.2.9-7.8 2.3-15.9 4.4-24.4 6.3 5.7 4.2 10.8 8.3 15.6 12.5 3.7 3.3 5 8.5 3.2 13.1-1.7 4.6-6.2 7.7-11.1 7.7-9.2 0-18.8-.6-29.2-1.8 15.1 22.7 26.1 43.4 33.9 63.6 1.7 4.4.6 9.3-2.7 12.6-2.3 2.3-5.3 3.5-8.4 3.5-1.4 0-2.9-.3-4.3-.8-18.1-6.9-36.5-16.5-56.6-29.3 4.9 21.7 7.8 40.5 9.2 58.6.4 5.2-2.7 10.1-7.6 12-1.4.5-2.8.8-4.3.8z" fill="#85B227"/><path d="M347.9 413c-35.9 0-65.2-29.2-65.2-65.2s29.2-65.2 65.2-65.2 65.2 29.2 65.2 65.2-29.3 65.2-65.2 65.2z" fill="#F2E400"/><path d="M347.9 295.9c28.6 0 51.9 23.3 51.9 51.9 0 28.6-23.3 51.9-51.9 51.9S296 376.4 296 347.8c-.1-28.6 23.2-51.9 51.9-51.9m0-26.5c-43.3 0-78.4 35.1-78.4 78.4s35.1 78.4 78.4 78.4 78.4-35.1 78.4-78.4-35.1-78.4-78.4-78.4z" fill="#DDDB00"/><path d="M359 240.5c0 5.2-3.5 21.6-7.8 21.6s-7.8-16.4-7.8-21.6 3.5-9.4 7.8-9.4 7.8 4.2 7.8 9.4zm-15.6 219.7c0-5.2 3.5-21.6 7.8-21.6s7.8 16.4 7.8 21.6c0 5.2-3.5 9.4-7.8 9.4s-7.8-4.3-7.8-9.4zm106.2-60.4c-4.8-2-18.6-11.5-16.9-15.5 1.7-4 18.1-.9 22.9 1.1 4.8 2 7.3 6.8 5.6 10.8-1.6 4-6.8 5.6-11.6 3.6zm-3-128.5c-3.7 3.7-17.7 12.8-20.7 9.7-3-3 6.1-17.1 9.7-20.7 3.7-3.7 9.1-4.2 12.1-1.1 3.1 3 2.6 8.4-1.1 12.1zM268 422.5c3.7-3.7 17.7-12.8 20.7-9.7 3 3-6.1 17.1-9.7 20.7-3.7 3.7-9.1 4.2-12.1 1.1-3-3-2.5-8.5 1.1-12.1z" fill="#1D1D1B"/><path d="M268 422.5c3.7-3.7 17.7-12.8 20.7-9.7 3 3-6.1 17.1-9.7 20.7-3.7 3.7-9.1 4.2-12.1 1.1-3-3-2.5-8.5 1.1-12.1zm-26.7-80c5.2 0 21.6 3.5 21.6 7.8s-16.4 7.8-21.6 7.8c-5.2 0-9.4-3.5-9.4-7.8s4.3-7.8 9.4-7.8zm19-94.4c3.7 3.7 12.8 17.7 9.7 20.7-3 3-17.1-6.1-20.7-9.7-3.7-3.7-4.2-9.1-1.1-12.1s8.5-2.6 12.1 1.1z" fill="#1D1D1B"/></svg>