<svg viewBox="0 0 695.7 695.7" xmlns="http://www.w3.org/2000/svg"><path d="M661.8 176.7c0-47.7-140.6-86.3-313.9-86.3s-314 38.6-314 86.3c0 3.2.4 6.1 1.7 9.2L52.1 268c0 1.9.3 3.8.7 5.6-.5 1.9-.7 3.7-.7 5.6 0 .6 0 1.3.1 1.9 0 .2 0 .4.1.6 0 .4.1.9.2 1.3 0 .2.1.5.1.7l.3 1.2c.1.2.1.5.2.7.1.5.3 1 .5 1.5.1.3.2.6.3.8.2.4.3.8.5 1.2.1.3.3.6.4.9.1.3.3.6.5.9.2.3.4.7.5 1 .2.3.3.5.5.8.2.4.4.7.7 1.1.1.1.2.3.3.4.6.8 1.2 1.7 1.8 2.5.1.1.2.2.3.4.3.4.7.8 1.1 1.2l.4.4c.4.4.8.8 1.2 1.3l.3.3c1.4 1.5 3 2.9 4.8 4.4L106 515.4c0 6.7 3.6 13.1 10.2 19.2 8.4 39.4 108.9 70.5 231.7 70.5 122.8 0 223.3-31.1 231.7-70.5 6.6-6.1 10.2-12.5 10.2-19.2l38.9-210.5c1.7-1.4 3.3-2.9 4.8-4.4l.3-.3c.4-.4.8-.8 1.2-1.3.1-.2.3-.3.4-.5.4-.4.7-.8 1.1-1.2.1-.1.2-.3.3-.4l1.8-2.4c.1-.2.2-.3.3-.5.2-.3.4-.7.7-1 .2-.3.3-.5.5-.8.2-.3.4-.6.5-1 .2-.3.3-.6.5-.9.1-.3.3-.6.4-.9.2-.4.4-.8.5-1.3.1-.3.2-.5.3-.8.2-.5.4-1.1.5-1.6.1-.2.1-.5.2-.7l.3-1.2c0-.2.1-.5.1-.7.1-.4.1-.9.2-1.3 0-.2 0-.4.1-.6.1-.6.1-1.3.1-1.9 0-1.9-.3-3.8-.7-5.6.5-1.9.7-3.7.7-5.6l16.3-81.9c1-3.1 1.7-6.2 1.7-9.4z" fill="#FFF"/><path d="M564.2 501.8c-33.8-28.2-117.9-48.2-216.3-48.2s-182.5 20-216.3 48.2h-18.7l2.8 27.7c0 41.9 104 75.9 232.3 75.9s232.3-34 232.3-75.9l2.8-27.7h-18.9z" fill="#F3F4F5"/><path d="M643.6 279.6c0-44.9-132.4-81.3-295.7-81.3S52.1 234.7 52.1 279.6c0 8.9 5.3 17.5 15 25.6L106 515.7c0 36.7 108.3 66.5 241.9 66.5s241.9-29.8 241.9-66.5l38.9-210.5c9.6-8.1 14.9-16.7 14.9-25.6z" fill="#F9F9F9"/><path d="M543.6 188.5v30.4c-52.1-12.7-120.7-20.4-195.7-20.4-75.1 0-143.6 7.7-195.7 20.4v-30.4h-116l16 91.3c0 44.9 132.4 81.3 295.7 81.3s295.7-36.4 295.7-81.3l15.9-91.3H543.6z" fill="#F3F4F5"/><ellipse cx="347.9" cy="177" fill="#F9F9F9" rx="313.9" ry="86.3"/><path d="M347.9 252.4c-82.9 0-160.7-8.8-219.1-24.9-61.9-17-83.9-37.3-83.9-50.5 0-13.3 22-33.5 83.9-50.5 58.4-16.1 136.2-24.9 219.1-24.9s160.7 8.8 219.1 24.9c61.9 17 83.9 37.3 83.9 50.5 0 13.3-22 33.5-83.9 50.5-58.4 16-136.2 24.9-219.1 24.9z" fill="#E7E7E8"/><path d="M570.8 194.8c-59.4-16.3-138.6-25.3-222.9-25.3-84.3 0-163.5 9-222.9 25.3-17.1 4.7-32 9.9-44.5 15.4 2.3 1.1 4.7 2.2 7.2 3.3 11.2-4.6 24.2-9 38.8-13 58.9-16.2 137.6-25.1 221.4-25.1s162.4 8.9 221.4 25.1c14.6 4 27.6 8.4 38.8 13 2.5-1.1 5-2.2 7.2-3.3-12.5-5.5-27.5-10.7-44.5-15.4z" fill="#F9F9F9"/><path d="M347.8 568.3c-94.5 0-183.1-18.2-243.1-49.9l-1.4-.7-.3-1.6c-.3-1.4-.4-2.7-.4-4L68.1 325.9l5.9 2.8c65.9 31.6 165.7 49.7 273.7 49.7s207.8-18.1 273.7-49.7l5.9-2.8L593 512.1c0 1.4-.2 2.7-.4 4.1l-.3 1.6-1.4.7c-60 31.6-148.6 49.8-243.1 49.8z" fill="#E6E6E6"/><path d="M68.8 326.8l5.1 2.4c66 31.6 165.8 49.8 273.9 49.8 108.1 0 207.9-18.1 273.9-49.8l5.1-2.4L592.5 512v.2c0 1.3-.2 2.6-.4 3.9l-.3 1.3-1.2.6c-59.9 31.7-148.4 49.8-242.9 49.8-94.4 0-182.9-18.2-242.9-49.8l-1.2-.6-.3-1.3c-.3-1.3-.4-2.6-.4-3.9v-.2L68.8 326.8m559.3-1.8l-6.8 3.3C555.4 359.9 455.7 378 347.8 378s-207.6-18.1-273.5-49.7l-6.8-3.3L102 512.2c0 1.3.2 2.7.4 4.1l.4 1.8 1.6.9c60.1 31.7 148.7 49.9 243.3 49.9 94.6 0 183.3-18.2 243.3-49.9l1.6-.9.4-1.8c.3-1.4.4-2.7.4-4.1L628.1 325z" fill="#F9F9F9"/><path fill="#F3F4F5" d="M67.5 325l2.9-1.9.7 3.7z"/></svg>