<svg viewBox="0 0 695.7 695.7" xmlns="http://www.w3.org/2000/svg"><path d="M594.9 217.9c0 1 .1 2.7.1 4.4 0 136.5-110.7 246.9-247.2 246.9S100.7 358.9 100.7 222.4c0-1.7 0-3.5.1-4.5H90.4c0 1-.1 2.7-.1 4.4 0 142 115.5 257.2 257.5 257.2s257.5-115.1 257.5-257c0-1.7 0-3.5-.1-4.5h-10.3z" fill="#006837"/><path d="M541.2 229.3c-.8 10.9-11.8 14.7-36.6 21.4-1.4.4-2.5.5-3.2.7-7.8 2.3-15.9 4.3-24.4 6.3 5.7 4.2 10.8 8.3 15.6 12.5 3.7 3.3 5 8.5 3.2 13.1-1.7 4.6-6.2 7.7-11.1 7.7-9.2 0-18.8-.6-29.2-1.8 15.1 22.7 26.1 43.4 33.9 63.6 1.7 4.4.6 9.3-2.7 12.6-2.3 2.3-5.3 3.5-8.4 3.5-1.4 0-2.9-.3-4.3-.8-18.1-6.9-36.5-16.5-56.6-29.3 4.9 21.7 7.8 40.5 9.2 58.6.4 5.2-2.7 10.1-7.6 12-1.4.5-2.8.8-4.3.8-3.6 0-7.1-1.6-9.4-4.6-12.7-16.5-23.7-34.1-32.6-49.9-3.8 12.2-8.1 23.2-13 33.3-2 4.1-6.1 6.7-10.7 6.7s-8.7-2.6-10.7-6.7c-6.2-12.8-11.4-26.8-15.9-42.9-8.7 12.7-17.1 23.4-25.8 32.9-2.3 2.5-5.5 3.9-8.8 3.9-1.6 0-3.2-.3-4.7-1-4.6-2-7.5-6.7-7.2-11.7.7-9.7 1.9-19.9 3.9-30.9-19.8 12.6-38 21.9-55.9 28.8-1.4.5-2.8.8-4.2.8-3.1 0-6.1-1.2-8.4-3.5-3.3-3.3-4.4-8.3-2.7-12.6 6.1-15.9 14.1-31.9 24.7-49.3-18.5 4.6-35.1 7.6-50.7 9.2-.4 0-.8.1-1.2.1-4.7 0-9-2.8-10.9-7.1-2.1-4.7-.8-10.3 3.1-13.7 15.1-13.2 31.3-24.6 46.5-34.3-22.4-5.1-41.5-11.2-58.8-18.9-4.3-1.9-7-6.2-7-10.8s2.8-8.3 7-10.2c.2-.1.4.3.6.3H122c0 1-.1 2.7-.1 4.4 0 124.6 101.4 225.7 226 225.7s226-100.9 226-225.5c0-1.7 0-3.5-.1-4.5h-38.5c4.7 2.7 6.2 7.2 5.9 11.1z" fill="#ED1C24"/><path d="M584.4 222.2c0 130.4-106.1 236.3-236.6 236.3-130.4 0-236.6-105.7-236.6-236.1 0-1.7 0-3.5.1-4.5h-10.6c0 1-.1 2.7-.1 4.4 0 136.5 110.7 246.9 247.2 246.9S595 358.9 595 222.4c0-1.7 0-3.5-.1-4.5h-10.6c.1 1 .1 2.7.1 4.3z" fill="#8CC63F"/><path d="M347.9 458.2c130.4 0 236.6-105.5 236.6-235.9 0-1.7 0-3.4-.1-4.4h-10.6c0 1 .1 2.7.1 4.4 0 124.6-101.4 225.7-226 225.7s-226-100.9-226-225.5c0-1.7 0-3.5.1-4.5h-10.6c0 1-.1 2.7-.1 4.4 0 130.3 106.1 235.8 236.6 235.8z" fill="#D9E021"/><path d="M535.2 216.9h-71.5c3.9 1 6.7 3.8 6.7 7.4 0 4.3-4.2 7.7-9.4 7.7s-21.6-3.4-21.6-7.7c0-3.5 11.1-6.4 17.9-7.4H245.2v14.7c-2 .2-2.8.3-3.7.3-5.2 0-9.4-3.4-9.4-7.7 0-3.5 2.8-6.4 6.7-7.4h-76.6c-.2 0-.4.1-.6.2-4.3 1.9-7 6.1-7 10.8s2.8 8.9 7 10.8c17.2 7.7 36.3 13.9 58.8 18.9-15.2 9.7-31.5 21.1-46.5 34.3-3.9 3.4-5.1 8.9-3.1 13.7 1.9 4.4 6.2 7.1 10.9 7.1.4 0 .8 0 1.2-.1 15.6-1.6 32.2-4.6 50.7-9.2-10.6 17.4-18.6 33.5-24.7 49.3-1.7 4.4-.6 9.3 2.7 12.6 2.3 2.3 5.3 3.5 8.4 3.5 1.4 0 2.9-.3 4.2-.8 17.9-6.9 36.1-16.2 55.9-28.8-2 11-3.3 21.2-3.9 30.9-.3 5 2.5 9.7 7.2 11.7 1.5.6 3.1 1 4.7 1 3.3 0 6.5-1.4 8.8-3.9 8.7-9.5 17.1-20.3 25.8-32.9 4.5 16.1 9.7 30.1 15.9 42.9 2 4.1 6.1 6.7 10.7 6.7s8.7-2.6 10.7-6.7c4.9-10.2 9.2-21.1 13-33.3 9 15.8 19.9 33.4 32.6 49.9 2.3 3 5.8 4.6 9.4 4.6 1.4 0 2.9-.3 4.3-.8 4.9-1.9 8-6.8 7.6-12-1.5-18.1-4.4-36.9-9.2-58.6 20.1 12.9 38.5 22.4 56.6 29.3 1.4.5 2.8.8 4.3.8 3.1 0 6.1-1.2 8.4-3.5 3.3-3.3 4.4-8.3 2.7-12.6-7.8-20.2-18.7-40.9-33.9-63.6 10.4 1.2 20 1.8 29.2 1.8 4.9 0 9.4-3.1 11.1-7.7 1.7-4.6.5-9.8-3.2-13.1-4.8-4.2-9.9-8.4-15.6-12.5 8.5-1.9 16.6-4 24.4-6.3.7-.2 1.8-.5 3.2-.9 24.8-6.7 35.8-10.7 36.6-21.6 0-3.8-1.5-8.8-6.3-11.8zm-184 126.4c-4.3 0-7.8-4.2-7.8-9.4s3.5-21.6 7.8-21.6 7.8 16.4 7.8 21.6c0 5.2-3.5 9.4-7.8 9.4zm110.5-20.6c3.7 3.7 4.2 9.1 1.1 12.1-3 3-8.5 2.5-12.1-1.1C447 330 437.9 316 441 313c2.9-3 17 6.1 20.7 9.7zm-.5-52.7c-1.7 4-7 5.6-11.8 3.6-2.9-1.2-9.2-5.1-13.2-8.9v-8.4c6-.6 15.7 1.4 19.2 2.9 4.8 2 7.5 6.8 5.8 10.8z" fill="#ED1C24"/><path d="M439.5 224.2c0 4.3 16.4 7.7 21.6 7.7s9.4-3.4 9.4-7.7c0-3.5-2.8-6.4-6.7-7.4h-6.3c-6.9 1.1-18 3.9-18 7.4z" fill="#1D1D1B"/><path d="M457.4 216.9h6.3c-.8 0-1.7-.3-2.6-.3-1-.1-2.2.3-3.7.3z" fill="#85B227"/><path d="M440.9 313c-3 3 6.1 17.1 9.7 20.7 3.7 3.7 9.1 4.2 12.1 1.1 3-3 2.5-8.5-1.1-12.1-3.6-3.6-17.7-12.7-20.7-9.7zm-89.7 30.3c4.3 0 7.8-4.2 7.8-9.4s-3.5-21.6-7.8-21.6-7.8 16.4-7.8 21.6c0 5.2 3.5 9.4 7.8 9.4zm70 63c4.3 0 7.8-4.2 7.8-9.4s-3.5-21.6-7.8-21.6-7.8 16.4-7.8 21.6c0 5.2 3.5 9.4 7.8 9.4zm28.4-132.7c4.8 2 10 .4 11.6-3.6s-.9-8.8-5.6-10.8-21.2-5.1-22.9-1.1 12.1 13.5 16.9 15.5zm-210.9-56.7h6.3c-1.5 0-2.7-.3-3.7-.3-.9-.1-1.7.3-2.6.3zm40.3 90.4c3.7-3.7 12.8-17.7 9.7-20.7s-17.1 6.1-20.7 9.7c-3.7 3.7-4.2 9.1-1.1 12.1 3 3 8.5 2.5 12.1-1.1zm11 87.8c2.2-4.7 6-21 2.1-22.8s-14 11.5-16.2 16.2c-2.2 4.7-.8 9.9 3.1 11.8 3.9 1.8 8.8-.5 11-5.2zm-110-87.8c3.7-3.7 12.8-17.7 9.7-20.7s-17.1 6.1-20.7 9.7c-3.7 3.7-4.2 9.1-1.1 12.1 3 3 8.5 2.5 12.1-1.1z" fill="#1D1D1B"/><path d="M232 224.2c0 4.3 4.2 7.7 9.4 7.7s21.6-3.4 21.6-7.7c0-3.5-11.1-6.4-17.9-7.4h-6.3c-4 1.1-6.8 3.9-6.8 7.4z" fill="#1D1D1B"/></svg>