<svg viewBox="0 0 695.7 695.7" xmlns="http://www.w3.org/2000/svg" xmlns:xlink="http://www.w3.org/1999/xlink"><pattern height="161.9" id="a" overflow="visible" patternUnits="userSpaceOnUse" viewBox="15.2 -161.9 161.9 161.9" width="161.9" x="-2551.3" y="-36.1"><path fill="none" d="M15.2-161.9h162V0h-162z"/><path d="M178-26.2c0 4.4-3.6 8-8 8s-8-3.6-8-8 3.6-8 8-8 8 3.6 8 8z" fill="#BF0D0D"/><path d="M172.9-28c0 1.6-1.3 6.5-2.9 6.5-1.6 0-2.9-4.9-2.9-6.5s1.3-2.9 2.9-2.9c1.6 0 2.9 1.3 2.9 2.9z" fill="#FFEC00"/><path d="M151.4-42.3c0 4.4-3.6 8-8 8s-8-3.6-8-8 3.6-8 8-8 8 3.6 8 8z" fill="#BF0D0D"/><path d="M146.3-44c0 1.6-1.3 6.5-2.9 6.5-1.6 0-2.9-4.9-2.9-6.5 0-1.6 1.3-2.9 2.9-2.9 1.6-.1 2.9 1.2 2.9 2.9z" fill="#FFEC00"/><path d="M151.4-10.1c0 4.4-3.6 8-8 8s-8-3.6-8-8 3.6-8 8-8 8 3.5 8 8z" fill="#BF0D0D"/><path d="M146.3-11.9c0 1.6-1.3 6.5-2.9 6.5-1.6 0-2.9-4.9-2.9-6.5s1.3-2.9 2.9-2.9c1.6 0 2.9 1.3 2.9 2.9z" fill="#FFEC00"/><path d="M124-26.2c0 4.4-3.6 8-8 8s-8-3.6-8-8 3.6-8 8-8 8 3.6 8 8z" fill="#BF0D0D"/><path d="M118.9-28c0 1.6-1.3 6.5-2.9 6.5-1.6 0-2.9-4.9-2.9-6.5s1.3-2.9 2.9-2.9c1.6 0 2.9 1.3 2.9 2.9z" fill="#FFEC00"/><path d="M97.5-42.3c0 4.4-3.6 8-8 8s-8-3.6-8-8 3.6-8 8-8 8 3.6 8 8z" fill="#BF0D0D"/><path d="M92.3-44c0 1.6-1.3 6.5-2.9 6.5s-2.9-4.9-2.9-6.5c0-1.6 1.3-2.9 2.9-2.9s2.9 1.2 2.9 2.9z" fill="#FFEC00"/><path d="M97.5-10.1c0 4.4-3.6 8-8 8s-8-3.6-8-8 3.6-8 8-8c4.4-.1 8 3.5 8 8z" fill="#BF0D0D"/><path d="M92.3-11.9c0 1.6-1.3 6.5-2.9 6.5-1.6 0-2.9-4.9-2.9-6.5s1.3-2.9 2.9-2.9c1.6 0 2.9 1.3 2.9 2.9z" fill="#FFEC00"/><path d="M70-26.2c0 4.4-3.6 8-8 8s-8-3.6-8-8 3.6-8 8-8 8 3.6 8 8z" fill="#BF0D0D"/><path d="M64.9-28c0 1.6-1.3 6.5-2.9 6.5s-2.9-4.9-2.9-6.5 1.3-2.9 2.9-2.9 2.9 1.3 2.9 2.9z" fill="#FFEC00"/><path d="M43.5-42.3c0 4.4-3.6 8-8 8s-8-3.6-8-8 3.6-8 8-8 8 3.6 8 8z" fill="#BF0D0D"/><path d="M38.4-44c0 1.6-1.3 6.5-2.9 6.5-1.6 0-2.9-4.9-2.9-6.5 0-1.6 1.3-2.9 2.9-2.9 1.6-.1 2.9 1.2 2.9 2.9z" fill="#FFEC00"/><path d="M43.5-10.1c0 4.4-3.6 8-8 8s-8-3.6-8-8 3.6-8 8-8 8 3.5 8 8z" fill="#BF0D0D"/><path d="M38.4-11.9c0 1.6-1.3 6.5-2.9 6.5-1.6 0-2.9-4.9-2.9-6.5s1.3-2.9 2.9-2.9c1.6 0 2.9 1.3 2.9 2.9z" fill="#FFEC00"/><path d="M16.1-26.2c0 4.4-3.6 8-8 8s-8-3.6-8-8 3.6-8 8-8 8 3.6 8 8zm153.3-70c0 4.4-3.6 8-8 8s-8-3.6-8-8 3.6-8 8-8 8 3.5 8 8z" fill="#BF0D0D"/><path d="M164.3-98c0 1.6-1.3 6.5-2.9 6.5s-2.9-4.9-2.9-6.5 1.3-2.9 2.9-2.9 2.9 1.3 2.9 2.9z" fill="#FFEC00"/><path d="M169.4-64.1c0 4.4-3.6 8-8 8s-8-3.6-8-8 3.6-8 8-8 8 3.6 8 8z" fill="#BF0D0D"/><path d="M164.3-65.9c0 1.6-1.3 6.5-2.9 6.5-1.6 0-2.9-4.9-2.9-6.5 0-1.6 1.3-2.9 2.9-2.9 1.6 0 2.9 1.3 2.9 2.9z" fill="#FFEC00"/><path d="M142-80.2c0 4.4-3.6 8-8 8s-8-3.6-8-8 3.6-8 8-8 8 3.6 8 8z" fill="#BF0D0D"/><path d="M136.9-82c0 1.6-1.3 6.5-2.9 6.5-1.6 0-2.9-4.9-2.9-6.5s1.3-2.9 2.9-2.9c1.6 0 2.9 1.3 2.9 2.9z" fill="#FFEC00"/><path d="M115.5-96.2c0 4.4-3.6 8-8 8s-8-3.6-8-8 3.6-8 8-8c4.4-.1 8 3.5 8 8z" fill="#BF0D0D"/><path d="M110.3-98c0 1.6-1.3 6.5-2.9 6.5-1.6 0-2.9-4.9-2.9-6.5s1.3-2.9 2.9-2.9c1.6 0 2.9 1.3 2.9 2.9z" fill="#FFEC00"/><path d="M115.5-64.1c0 4.4-3.6 8-8 8s-8-3.6-8-8 3.6-8 8-8 8 3.6 8 8z" fill="#BF0D0D"/><path d="M110.3-65.9c0 1.6-1.3 6.5-2.9 6.5s-2.9-4.9-2.9-6.5c0-1.6 1.3-2.9 2.9-2.9s2.9 1.3 2.9 2.9z" fill="#FFEC00"/><path d="M88-80.2c0 4.4-3.6 8-8 8s-8-3.6-8-8 3.6-8 8-8 8 3.6 8 8z" fill="#BF0D0D"/><path d="M82.9-82c0 1.6-1.3 6.5-2.9 6.5-1.6 0-2.9-4.9-2.9-6.5s1.3-2.9 2.9-2.9c1.6 0 2.9 1.3 2.9 2.9z" fill="#FFEC00"/><path d="M61.5-96.2c0 4.4-3.6 8-8 8s-8-3.6-8-8 3.6-8 8-8 8 3.5 8 8z" fill="#BF0D0D"/><path d="M56.4-98c0 1.6-1.3 6.5-2.9 6.5-1.6 0-2.9-4.9-2.9-6.5s1.3-2.9 2.9-2.9c1.6 0 2.9 1.3 2.9 2.9z" fill="#FFEC00"/><path d="M61.5-64.1c0 4.4-3.6 8-8 8s-8-3.6-8-8 3.6-8 8-8 8 3.6 8 8z" fill="#BF0D0D"/><path d="M56.4-65.9c0 1.6-1.3 6.5-2.9 6.5-1.6 0-2.9-4.9-2.9-6.5 0-1.6 1.3-2.9 2.9-2.9 1.6 0 2.9 1.3 2.9 2.9z" fill="#FFEC00"/><path d="M34.1-80.2c0 4.4-3.6 8-8 8s-8-3.6-8-8 3.6-8 8-8 8 3.6 8 8z" fill="#BF0D0D"/><path d="M28.9-82c0 1.6-1.3 6.5-2.9 6.5s-2.9-4.9-2.9-6.5 1.3-2.9 2.9-2.9 2.9 1.3 2.9 2.9z" fill="#FFEC00"/><path d="M187.4-150.2c0 4.4-3.6 8-8 8s-8-3.6-8-8 3.6-8 8-8 8 3.6 8 8z" fill="#BF0D0D"/><path d="M182.3-152c0 1.6-1.3 6.5-2.9 6.5-1.6 0-2.9-4.9-2.9-6.5 0-1.6 1.3-2.9 2.9-2.9 1.6 0 2.9 1.3 2.9 2.9z" fill="#FFEC00"/><path d="M187.4-118.1c0 4.4-3.6 8-8 8s-8-3.6-8-8 3.6-8 8-8 8 3.6 8 8z" fill="#BF0D0D"/><path d="M182.3-119.9c0 1.6-1.3 6.5-2.9 6.5-1.6 0-2.9-4.9-2.9-6.5s1.3-2.9 2.9-2.9c1.6 0 2.9 1.3 2.9 2.9z" fill="#FFEC00"/><path d="M160-134.1c0 4.4-3.6 8-8 8s-8-3.6-8-8 3.6-8 8-8c4.4-.1 8 3.5 8 8z" fill="#BF0D0D"/><path d="M154.9-135.9c0 1.6-1.3 6.5-2.9 6.5-1.6 0-2.9-4.9-2.9-6.5 0-1.6 1.3-2.9 2.9-2.9 1.6 0 2.9 1.3 2.9 2.9z" fill="#FFEC00"/><g><path d="M133.5-150.2c0 4.4-3.6 8-8 8s-8-3.6-8-8 3.6-8 8-8 8 3.6 8 8z" fill="#BF0D0D"/><path d="M128.3-152c0 1.6-1.3 6.5-2.9 6.5s-2.9-4.9-2.9-6.5c0-1.6 1.3-2.9 2.9-2.9s2.9 1.3 2.9 2.9z" fill="#FFEC00"/><path d="M133.5-118.1c0 4.4-3.6 8-8 8s-8-3.6-8-8 3.6-8 8-8 8 3.6 8 8z" fill="#BF0D0D"/><path d="M128.3-119.9c0 1.6-1.3 6.5-2.9 6.5s-2.9-4.9-2.9-6.5 1.3-2.9 2.9-2.9 2.9 1.3 2.9 2.9z" fill="#FFEC00"/><path d="M106-134.1c0 4.4-3.6 8-8 8s-8-3.6-8-8 3.6-8 8-8 8 3.5 8 8z" fill="#BF0D0D"/><path d="M100.9-135.9c0 1.6-1.3 6.5-2.9 6.5s-2.9-4.9-2.9-6.5c0-1.6 1.3-2.9 2.9-2.9s2.9 1.3 2.9 2.9z" fill="#FFEC00"/></g><g><path d="M79.5-150.2c0 4.4-3.6 8-8 8s-8-3.6-8-8 3.6-8 8-8 8 3.6 8 8z" fill="#BF0D0D"/><path d="M74.4-152c0 1.6-1.3 6.5-2.9 6.5-1.6 0-2.9-4.9-2.9-6.5 0-1.6 1.3-2.9 2.9-2.9 1.5 0 2.9 1.3 2.9 2.9z" fill="#FFEC00"/><path d="M79.5-118.1c0 4.4-3.6 8-8 8s-8-3.6-8-8 3.6-8 8-8 8 3.6 8 8z" fill="#BF0D0D"/><path d="M74.4-119.9c0 1.6-1.3 6.5-2.9 6.5s-2.9-4.9-2.9-6.5 1.3-2.9 2.9-2.9 2.9 1.3 2.9 2.9z" fill="#FFEC00"/><path d="M52.1-134.1c0 4.4-3.6 8-8 8s-8-3.6-8-8 3.6-8 8-8 8 3.5 8 8z" fill="#BF0D0D"/><path d="M46.9-135.9c0 1.6-1.3 6.5-2.9 6.5s-2.9-4.9-2.9-6.5c0-1.6 1.3-2.9 2.9-2.9s2.9 1.3 2.9 2.9z" fill="#FFEC00"/></g><g><path d="M25.5-150.2c0 4.4-3.6 8-8 8s-8-3.6-8-8 3.6-8 8-8 8 3.6 8 8z" fill="#BF0D0D"/><path d="M20.4-152c0 1.6-1.3 6.5-2.9 6.5s-2.9-4.9-2.9-6.5c0-1.6 1.3-2.9 2.9-2.9s2.9 1.3 2.9 2.9z" fill="#FFEC00"/><path d="M25.5-118.1c0 4.4-3.6 8-8 8s-8-3.6-8-8 3.6-8 8-8 8 3.6 8 8z" fill="#BF0D0D"/><path d="M20.4-119.9c0 1.6-1.3 6.5-2.9 6.5s-2.9-4.9-2.9-6.5 1.3-2.9 2.9-2.9 2.9 1.3 2.9 2.9z" fill="#FFEC00"/></g></pattern><path d="M346.1 674.7c-62.6 0-124.4-37.5-174.2-105.6C126 506.3 98.6 427.8 98.6 359c0-63.1 23.9-110.3 71.1-140.4 41.7-26.6 101.1-40.1 176.4-40.1s134.7 13.5 176.4 40.1c47.2 30.1 71.1 77.4 71.1 140.4 0 68.7-27.4 147.2-73.3 210.1-49.8 68.1-111.6 105.6-174.2 105.6z" fill="#E20613"/><path d="M346.1 186.7c73.8 0 131.6 13.1 172 38.8 45.3 28.9 67.3 72.6 67.3 133.5 0 67-26.8 143.7-71.7 205.2-22.7 31-49.2 56.6-76.8 74-29.6 18.7-60.2 28.2-90.8 28.2s-61.1-9.5-90.8-28.2c-27.6-17.4-54.1-43-76.8-74-44.9-61.5-71.7-138.2-71.7-205.2 0-60.9 22-104.6 67.3-133.5 40.4-25.7 98.3-38.8 172-38.8m0-16.4c-141.2 0-255.7 47.5-255.7 188.8S204.9 683 346.1 683s255.7-182.6 255.7-323.9-114.5-188.8-255.7-188.8z" fill="#BD1622"/><path d="M349.6 170.3c-10.1 0-20.1.3-29.9.8C394 249.5 439.5 355.4 439.5 472c0 74.7-18.7 145-51.7 206.5C511 649.7 605.4 487.3 605.4 359c0-141.2-114.5-188.7-255.8-188.7z" fill="#BD1622" opacity=".5"/><pattern id="b" patternTransform="translate(15555.121 10947.99) scale(2.7414)" xlink:href="#a"/><path d="M601.9 359c0 141.2-114.5 323.9-255.7 323.9S90.4 500.3 90.4 359s114.5-188.8 255.7-188.8S601.9 217.8 601.9 359z" fill="url(#b)"/><path d="M346.1 186.7c73.8 0 131.6 13.1 172 38.8 45.3 28.9 67.3 72.6 67.3 133.5 0 67-26.8 143.7-71.7 205.2-22.7 31-49.2 56.6-76.8 74-29.6 18.7-60.2 28.2-90.8 28.2s-61.1-9.5-90.8-28.2c-27.6-17.4-54.1-43-76.8-74-44.9-61.5-71.7-138.2-71.7-205.2 0-60.9 22-104.6 67.3-133.5 40.4-25.7 98.3-38.8 172-38.8m0-16.4c-141.2 0-255.7 47.5-255.7 188.8S204.9 683 346.1 683s255.7-182.6 255.7-323.9-114.5-188.8-255.7-188.8z" fill="#BD1622"/><path d="M489.2 96.3c-40.3.7-77.1 16.1-105.1 41.1-2.9 39.4-21.9 73-48.8 90.7 76.6-2.9 139.8-58.6 153.9-131.8z" fill="#93C01F"/><path d="M384.1 137.3c-26.2 23.3-44.9 54.9-51.8 90.8 1 0 2-.1 3-.1 26.9-17.6 45.9-51.2 48.8-90.7z" fill="#89B21D"/><path d="M334.6 225.3c49.2-63.7 46.8-151.9-2.7-212.6C308 42.3 295.7 77.6 294.2 113c27 30.7 41.8 70.9 40.4 112.3z" fill="#93C01F"/><path d="M332.5 228.1c.7-.9 1.4-1.9 2.1-2.8 1.4-41.4-13.4-81.7-40.4-112.3-1.6 41 11.4 82.2 38.3 115.1z" fill="#89B21D"/><path d="M332.2 228.1c-11.8-61.1-65-107.4-129.2-108.5 11.8 61.1 64.9 107.4 129.2 108.5z" fill="#93C01F"/><path d="M270 290.4c34.8-3.7 61.3-31.4 64.7-65.1-34.7 3.8-61.3 31.5-64.7 65.1z" fill="#89B21D"/></svg>