<svg viewBox="0 0 695.7 695.7" xmlns="http://www.w3.org/2000/svg"><path d="M569.8 319.7c-1.6 1-2.1.5-1.3-1-13.6-45.8-106.8-81.2-219.9-81.2-115.8 0-210.8 37.2-220.7 84.6.1.1 0 .2-.1.1l-26.5 19.7 104.9 259.7c13.5 34.3 71.5 60.1 140.9 60.1 68.1 0 125-24.8 140-58l.3.1 106.8-264-24.4-20.1z" fill="#FFF"/><path d="M347.3 670.8c-69 0-127.9-24.4-146.7-60.1h-.3L198 605 90.4 338.8l29.6-22.1c14.5-50.6 111.5-88.3 228.8-88.3 115.2 0 209.9 35.5 227.7 84.9l29 23.6-112 276.9-1.1-.2c-20.6 34.1-78.7 57.2-145.1 57.2zm-134.9-78.3l2.3 5.8c12.2 31 69.1 54.4 132.5 54.4 62.6 0 118-22.2 131.7-52.7l2.8-6.3h.1l101.6-251.1-16.3-13.3h-3.9l-3-4.7c-.6-.9-1.4-2.9-1.2-5.5-13.5-36-94.5-72.5-210.4-72.5-105 0-197.8 32.9-210.9 73.9l.8 1.2-5.2 9.5h-2.5L112.5 345l99.9 247.5z" fill="#B2B2B4"/><path d="M443.4 154.7c1.7-7 2.7-14.3 2.7-21.8 0-51.5-42.8-93.2-95.6-93.2-1.7 0-3.3.2-5 .2 2.5 8 3.9 16.5 3.9 25.4 0 75.5-224.7 62.8-224.7 212.6 0 75.2 99.9 136.3 223.1 136.3S571 353.1 571 277.8c0-54.4-52.2-101.3-127.6-123.1z" fill="#FFE000"/><path d="M347.9 423.2c-128 0-232.2-65.2-232.2-145.3 0-93.6 81.1-127.4 146.2-154.6 42.1-17.6 78.5-32.7 78.5-58 0-7.7-1.2-15.3-3.5-22.6l-3.6-11.2 13.2-.7c1.3-.1 2.7-.2 4-.2 57.7 0 104.7 45.9 104.7 102.3 0 5.1-.4 10.3-1.3 15.5 78.1 24.8 126.2 74 126.2 129.4 0 80.2-104.2 145.4-232.2 145.4zM357.1 49c1 5.4 1.4 10.8 1.4 16.3 0 37.4-41.5 54.7-89.6 74.8-63.3 26.4-135 56.3-135 137.8 0 70.1 96 127.2 214 127.2s214-57 214-127.2c0-48.2-47.5-93.1-121.1-114.4l-8.4-2.4 2.1-8.5c1.6-6.7 2.5-13.3 2.5-19.6 0-44.4-35.3-80.7-79.9-84z" fill="#BCA84E"/><path d="M346.5 24.9s1.2.1 3.3.3c1.9.2 6.6.6 11 1.4 9.2 1.6 22.3 5.3 36 13.3 13.7 7.9 27.8 20.5 37.8 37.2 5 8.3 8.9 17.6 11.4 27.4 2.4 9.8 3.3 20.1 2.6 30.2-.2 2.8-.4 4.6-.8 7.4-.3 2.6-.8 5.1-1.3 7.5-1.1 4.8-2.3 9.6-4.1 14.2-3.3 9.2-7.9 17.7-13.2 25.1-10.7 15-24.5 25.6-37.4 31.8-13 6.3-24.8 8.4-32.9 9.1-4.1.4-7.3.4-9.5.3-2.2-.1-3.4-.1-3.4-.1s1.2-.1 3.3-.3c2.2-.2 5.4-.5 9.3-1.3 7.9-1.4 19.2-4.8 30.8-12 11.6-7.1 23.3-18.3 31.6-32.8 4.1-7.2 7.4-15.2 9.5-23.5 1.1-4.2 1.8-8.4 2.3-12.7.2-2.2.4-4.3.4-6.4.1-1.9.1-4.8 0-6.6-.3-8.6-1.9-16.9-4.7-24.7-2.8-7.8-6.7-14.9-11.4-21.1C408 76 396 67.4 384.9 62.4c-11.1-5-21.1-6.7-28-7.1-3.7-.3-5.4-.2-7.9-.2-2.2.1-3.4.1-3.4.1-8.4.2-15.3-6.4-15.5-14.8-.1-8.4 6.5-15.3 14.9-15.5h1.5z" fill="#BCA84E"/><path d="M349.8 446.8s4.3-.3 11.9-.7c3.8-.2 8.4-.4 13.6-1.1 5.2-.7 11.1-1 17.5-2.1 6.4-1.2 13.3-1.9 20.5-3.6 7.2-1.5 14.8-3.1 22.5-5.4 7.8-1.9 15.6-4.7 23.6-7.3 4-1.3 7.9-3 11.9-4.5s7.9-3.1 11.8-4.9c3.9-1.8 7.8-3.5 11.6-5.3 3.7-2 7.5-3.9 11.2-5.8 3.8-1.8 7.2-4.2 10.7-6.2 3.5-2.1 7-4.1 10.2-6.4 3.3-2.2 6.5-4.4 9.6-6.6 3-2.3 5.9-4.6 8.8-6.8 5.7-4.4 10.6-9.2 15.2-13.4 4.3-4.6 8.5-8.4 11.6-12.4 3.2-3.9 6.2-7.1 8.2-10.1 4.1-5.9 6.5-9.2 6.5-9.2l14.9 10.4s-2.9 3.5-7.9 9.7c-2.4 3.1-5.9 6.4-9.7 10.5-3.7 4.1-8.5 7.9-13.4 12.5-5.2 4.2-10.8 8.9-17.1 13.1-3.2 2.1-6.4 4.3-9.7 6.6-3.4 2-6.9 4.1-10.5 6.2-3.5 2.2-7.3 4.1-11.1 6-3.8 1.9-7.5 4.1-11.5 5.7-4 1.7-7.9 3.5-11.9 5.3-4 1.6-8.2 3.1-12.3 4.7-4.1 1.6-8.2 3-12.4 4.2-4.2 1.3-8.3 2.7-12.4 3.8-8.3 2.1-16.5 4.4-24.5 5.8-8 1.8-15.8 2.9-23.2 4-7.4 1.3-14.4 1.5-20.9 2.3-6.5.7-12.5.7-17.7 1-5.3.3-9.9.2-13.6.2-7.6-.2-12-.2-12-.2z" fill="#B2B2B4"/></svg>