<svg viewBox="0 0 695.7 695.7" xmlns="http://www.w3.org/2000/svg"><g fill="#009540"><path d="M605.4 492.7c-57.6-46.4-138.8-44.8-194.3.5 57.6 46.5 138.8 44.8 194.3-.5z"/><path d="M549.2 629.9c-7.9-73.6-66.5-129.8-137.8-137 8 73.5 66.5 129.8 137.8 137z"/></g><g fill="#009540"><path d="M269.4 492.7c57.6-46.4 138.8-44.8 194.3.5-57.6 46.5-138.8 44.8-194.3-.5z"/><path d="M325.5 629.9c7.9-73.6 66.5-129.8 137.8-137-8 73.5-66.5 129.8-137.8 137z"/></g><circle cx="339" cy="314.5" fill="#A3897A" r="248.7"/><path d="M339 511.3c-108.5 0-196.8-88.3-196.8-196.8S230.5 117.7 339 117.7 535.8 206 535.8 314.5 447.6 511.3 339 511.3z" fill="#FFF"/><path d="M339 150.6c90.4 0 163.9 73.5 163.9 163.9S429.4 478.4 339 478.4s-163.9-73.5-163.9-163.9S248.7 150.6 339 150.6m0-65.8c-126.9 0-229.7 102.8-229.7 229.7S212.2 544.2 339 544.2c126.9 0 229.7-102.8 229.7-229.7S465.9 84.8 339 84.8z" fill="#CABA9F"/><path fill="#A3897A" d="M465.9 517.6l-2 53.2-46.3-26.4z"/><path d="M340.9 150c-16.1 0-31.7 2.4-46.4 6.8C362 177 411.3 239.9 411.3 314.5S362 452 294.6 472.1c14.7 4.4 30.2 6.8 46.4 6.8 90.1 0 163.1-73.6 163.1-164.4S431 150 340.9 150z" fill="#F5F5F5"/><path fill="#CABA9F" d="M377.2 136.2L339 198.7l-38.1-62.5zM142.4 293.1l78.9 55.1-24.5 93.1z"/></svg>