<svg viewBox="0 0 128 128" xmlns="http://www.w3.org/2000/svg"><path d="M93.3 32.6c-2.6.8-5.1.8-7.6.6 0 0-44.4 56.3-52.2 56.4-.1.5.1 2.2 0 2.7-.3 2.1 1.9 4.7 4 3.1.3-.3.8-.6 1.3-1h.5c5.3-.3 10.7-.6 16-.9 3.3-.2 7.3 0 10.2-2.1 2.6-1.9 3.3-4.8 3.4-7.8.1-5.2.5-9.9 3-14.7 1.1-2.1 2.6-4.5 4.7-5.9 2.3-1.5 5-.9 7.6-.8 3.1.1 6.2-.2 8.6-2.3s2.5-4.9 2-7.9c-1-5.9-.3-10.6 2-16.1.8-1.9-1.6-3.8-3.5-3.3z" fill="#aa7100"/><path d="M86.7 54.3c-5.3 4.7-16 4.5-19.7 7.8-3.7 3.3-5.2 16.5-11.8 23.5-3.8 4-13.5 5-21.2 5.1.5-1.9-5.4-19.6-.2-25.8 4.6-5.4 30.5-6.4 32.1-9.5 1.8-3.6.1-7.9-.3-11.6-.6-5.5 1.5-9.3 6.9-10.8 4.5-1.2 8.9-.2 13.3.1 1.5 7.9 4.5 18.1.9 21.2z" fill="#fca100"/><path d="M97.7 38.5c.8-3.1 2.8-7.8-1.2-9.5-1.8-.8-3.7.1-5.5.5-4 .9-7.6-1-11.6-1.6-13.6-2.1-19.9 11-16.6 22.6.5 9.7-11.5 6.7-17.6 6.5-6.5-.3-11.8 2.9-14.9 8.5-2.9 5.2-3.9 11.9-1.7 17.5.8 2.1 1.7 3.5 1.8 5.8 0 1.6-.3 3.2-.3 4.8 0 2.4.2 5.1 2.1 6.6.9.7 2.3 1.2 3.3.4 5.2-3.8 12.3-1.7 18.3-1.9 5.7-.2 11.6-2 15.4-6.5 4.1-4.9 3.6-10 3.3-16-.2-4 .6-7.9 4.5-9.9 3.2-1.6 7.3-.6 10.7-1.3 4.6-.9 8.2-3.9 9.8-8.4 2.2-6.2-1.5-12.1.2-18.1zm-5.3 8c.7 3.4 1.1 7.2-1.1 10.2-2.6 3.7-6.9 2.9-10.8 3.2-5 .4-9.5 2.7-11.9 7.3-3.2 5.9.4 12.2-1.6 18.1-4.2 12.9-21.5 5.1-31.6 9.1-.3-2.4.7-6.2.5-7.7-.3-2.9-2.1-5.1-2.8-7.9 1.3.3 2.4.8 3.6 1.5 3.1 1.8 5.8-3 2.8-4.7-1.9-1.1-6.3-2.3-6.4-2.4.2-1.3.6-2.5 1.1-3.7.2.1 4.4 1.5 6 2.5 3 1.8 5.8-2.9 2.8-4.7-1.7-1-3.5-2-5.3-2.5 1.5-1.3 3.2-2.1 5.3-2.4.2.4 4.6 3.2 6.1 4.6 1.1 1 2.6.9 3.9 0 2.5-1.8-.2-4-.2-4.1 2.7.2 5.3.1 8.3-1.2 5.1-2.1 7.6-6.1 7.2-11.6v-.5c.5.2.9.4 1.3.7 1.1 1 2.9 1.1 3.9 0s1.1-2.8 0-3.9c-1.7-1.6-3.8-2.4-6.1-2.5 0-.8.1-1.6.2-2.4.1 0 3.1.7 3.8 1.1 1.3.6 3 .4 3.8-1 .7-1.2.4-3.1-1-3.8-1.2-.6-2.8-1.3-4.4-1.7 1-1.2 2.3-2.2 4-2.7.1.3 3.5 3.4 4.9 4.9 1 1.1 2.9 1.1 3.9 0 1.1-1.1 1-2.7 0-3.9-.1-.2-.3-.3-.5-.5 1.7.5 3.3 1 5.1 1.2 1.3.1 2.6.2 4-.1.6-.1 1.9-.8 2.7-.9-1 .4-1.7 3.8-1.9 5-.7 2.6-.1 5 .4 7.4z" fill="#231f20"/></svg>