<svg id="Layer_10" viewBox="0 0 128 128" xmlns="http://www.w3.org/2000/svg"><style>.st4{fill:#b75615}.st5{fill:#176b00}.st6{fill:#dd0}</style><path d="M39.5 78.6c-1.3 2.6-2.4 5.6-4.3 7.6 10.5 10.4 33.1 8.9 45 2.3 2-1.1 4.4-3.3 6.5-4.6-5.5-10.2-9.1-20.7-12.4-31.9-1.9-6.3-3.9-12.5-6-18.7-1-2.9-1.8-5.9-3-8.7-.1-.3-1.3-4.3-1.4-4.2-.3 1.3-.9 3.6-1 4-3.1 12.9-8.7 24.9-14.3 36.9-2.9 6.1-6.1 11.4-9.1 17.3z" fill="#f9c467"/><path d="M76.4 33.3c-.9-2-4.3-8.3-7.4-10.9 2.9 6.6 3.7 13.7 6 20.5 4.5 13.3 7.6 26.8 14.8 39.1.3-.1 2.3-.2 2.6-.3-4.6-10.6-6.5-21.4-10-32.4-1.7-5.3-3.8-11-6-16z" fill="#f4a321"/><path d="M102 89.3l-35 20.9c-3.8-.9-21.5-4.2-25.1-5.9-3.5-1.7-8-2.9-11.2-5.4-2-1.6-4.1-4.1-3.7-7.8.3-3.4 4.6-4.7 7-4.2 7.7 9.4 18.7 9.3 29 8.5 6.2-.5 12.1-1.6 17.7-4.6 4.7-2.5 14.2-10.1 19-5.1 1.4 1.3 2.1 2.5 2.3 3.6z" fill="#996200"/><path d="M98.5 96c-3.2 3.5-6.3 6.5-10.3 8.5-7.3 3.6-15.3 5.3-23.1 5.3-4.1 0-32.7-9.6-28.7-8.8 17.2 3.9 45.5 4.6 62.4-13.8 1.6-1.7 2 6.3-.3 8.8z" fill="#774f00"/><circle class="st4" cx="63.8" cy="48" r="3.8"/><circle class="st4" cx="49.8" cy="79" r="3.8"/><circle class="st4" cx="69" cy="67" r="3.8"/><path class="st5" transform="rotate(32.648 54.965 65.452)" d="M53 61.5h3.9v7.9H53z"/><path class="st5" transform="rotate(132.276 63.393 75.9)" d="M61.5 72h3.9v7.9h-3.9z"/><path class="st5" transform="rotate(132.276 64.556 37.626)" d="M63.2 35h2.6v5.3h-2.6z"/><circle class="st6" cx="58.2" cy="86.2" r="2.8"/><circle class="st6" cx="76" cy="77.3" r="2.8"/><circle class="st6" cx="63.4" cy="58.5" r="2.8"/><path d="M96.8 80.3c-5.7-13.6-9-27.9-14.2-41.7-2.8-7.3-8.8-26.9-19.6-21.9h-.4c-4.5-.2-4.6 6-5.3 9.1-1.7 6.8-3.9 13.4-6.5 19.9-2.7 6.8-5.8 13.4-9 19.9-2.6 5.3-5.5 15.2-11.1 17.9-.1.1-.2.1-.4.2-3.1.6-5.7 2.7-7 6.1-2.4 6.6 2.9 10.3 8 13.3 12.7 7.7 28.1 10.6 42.8 8.4 7.2-1.1 15.2-3.2 21.1-7.7 3.7-2.9 9.8-7.1 9.9-12.4.1-4.5-3.8-9.8-8.3-11.1zM75.5 35.4c2 4.8 3.7 9.6 5.2 14.6C83.8 60.3 87 70.5 91 80.5l-.9.3C83.8 69.3 80.9 56.5 76.9 44c-2-6.3-3.9-12.9-6.4-19.1 2.3 3.4 4.2 8.6 5 10.5zM49.9 61.6c5.3-11.4 10-23.1 13-35.3.1-.4.6-2.5.9-3.8h.2c.3 1.4 1 3.8 1.1 4.1 1.2 2.7 1.9 5.5 2.9 8.2 2 5.9 3.9 11.8 5.7 17.7 3.2 10.6 6.2 21.2 11.5 31-2 1.3-4 2.7-5.8 3.7-11.3 6.2-32 8.1-42-1.8 1.7-2 3-4.4 4.2-6.8 2.8-5.7 5.6-11.3 8.3-17zm45.9 34.5c-3 2.7-6 5-9.7 6.6-6.9 2.8-14.4 4.1-21.8 4.1-7.5-.1-14.9-1.5-21.8-4.3-3.3-1.3-6.6-3-9.6-5-1.9-1.2-4.8-2.4-4.5-5.3.3-2.6 2.8-3.6 5-3.1 7.2 7.3 19.2 8.8 29 8.2 5.8-.4 11.6-1.6 16.9-4 4.4-2 13.2-10.6 17.7-6.7 4 3.4 2.1 6.7-1.2 9.5z" fill="#231f20"/></svg>