<svg height="524.424" overflow="visible" width="489.597" xmlns="http://www.w3.org/2000/svg"><path d="M153.025 61.73h148.621c25.152 0 45.545 20.087 45.545 44.866v353.018c0 24.779-20.393 44.866-45.545 44.866H153.025c-25.154 0-45.545-20.087-45.545-44.866V106.596c0-24.779 20.391-44.866 45.545-44.866z" fill="#A8A8A8" opacity=".39"/><path d="M176.747 40.823h148.62c25.154 0 45.545 20.088 45.545 44.865v353.019c0 24.778-20.391 44.865-45.545 44.865h-148.62c-25.154 0-45.545-20.087-45.545-44.865V85.688c0-24.778 20.391-44.865 45.545-44.865z" fill="#FFF" stroke="#000" stroke-linejoin="round" stroke-width="15"/><path fill="#D6D1D1" stroke="#000" stroke-linejoin="round" stroke-width="15" d="M163.662 82.638h172.292v351.74H163.662z"/><path fill="#A8A8A8" stroke="#000" stroke-linejoin="round" stroke-width="9" d="M185.017 148.34h35.484v38.535h-35.484z"/><path fill="#FFF" stroke="#000" stroke-linejoin="round" stroke-width="9" d="M233.846 149.328h35.483v38.534h-35.483zm-48.829 54.777h35.484v38.536h-35.484z"/><path fill="#A8A8A8" stroke="#000" stroke-linejoin="round" stroke-width="9" d="M234.744 256.585h35.483v38.536h-35.483z"/><path fill="none" stroke="#000" stroke-linejoin="round" stroke-width="9" d="M166.159 367.965h162.303v66.413H166.159z"/><ellipse cx="248.809" cy="401.172" fill="none" rx="13.733" ry="13.529" stroke="#000" stroke-linejoin="round" stroke-width="9"/><path fill="none" stroke="#000" stroke-linejoin="round" stroke-width="9" d="M288.511 388.135h24.971v24.597h-24.971zm-81.664-1.097v28.134l-28.551-15.63z"/><path fill="#FFF" stroke="#000" stroke-linejoin="round" stroke-width="9" d="M285.087 148.34h35.482v38.535h-35.482zm-49.913 54.29h35.484v38.536h-35.484z"/><path fill="none" stroke="#000" stroke-linejoin="round" stroke-width="8" d="M167.07 86.031h164.771v45.63H167.07zm127.34 21.718v17.501m22.306-33.763v33.446m-10.74-23.628v23.143"/></svg>