<svg xmlns="http://www.w3.org/2000/svg" viewBox="0 0 64 64"><path fill="#CCDBE2" d="M63 39.1v8c0 1.7-1.3 3-3 3H4c-1.7 0-3-1.3-3-3v-8h62zm-29 5.5c0-1.1-.9-2-2-2s-2 .9-2 2 .9 2 2 2 2-.9 2-2z"/><path fill="#58677A" d="M63 4v35.1H1V4c0-1.7 1.3-3 3-3h56c1.7 0 3 1.3 3 3zm-4.1 31V5H5v30h53.9z"/><path fill="#B1DAE5" d="M5 5h53.9v30H5z"/><path fill="#CCDBE2" d="M40.8 58.3L44 63H20l3.2-4.7c.6-.8.9-1.8.9-2.8v-5.4H40v5.4c-.1 1 .2 1.9.8 2.8z"/><path fill="#58677A" d="M32 42.6c1.1 0 2 .9 2 2s-.9 2-2 2-2-.9-2-2 .9-2 2-2z"/><g fill="#2C2C3D"><path d="M60 51.1H4c-2.2 0-4-1.8-4-4V4c0-2.2 1.8-4 4-4h56c2.2 0 4 1.8 4 4v43.1c0 2.2-1.8 4-4 4zM4 2c-1.1 0-2 .9-2 2v43.1c0 1.1.9 2 2 2h56c1.1 0 2-.9 2-2V4c0-1.1-.9-2-2-2H4z"/><path d="M32 47.6c-1.7 0-3-1.3-3-3s1.3-3 3-3 3 1.3 3 3-1.3 3-3 3zm0-4c-.6 0-1 .4-1 1s.4 1 1 1 1-.4 1-1-.4-1-1-1zm31-3.5H1c-.6 0-1-.4-1-1s.4-1 1-1h62c.6 0 1 .4 1 1s-.4 1-1 1zM44 64H20c-.4 0-.7-.2-.9-.5-.2-.3-.2-.7.1-1l3.2-4.7c.4-.7.7-1.4.7-2.2v-5c0-.6.4-1 1-1s1 .4 1 1v5c0 1.2-.4 2.4-1 3.4l-2.2 3h20.2L40 58.8c-.7-1-1-2.2-1-3.4v-5c0-.6.4-1 1-1s1 .4 1 1v5c0 .8.2 1.6.7 2.2l3.2 4.7c.2.3.2.7.1 1-.3.5-.6.7-1 .7zm14.9-28H5c-.6 0-1-.4-1-1V5c0-.6.4-1 1-1h53.9c.6 0 1 .4 1 1v30c0 .6-.5 1-1 1zM6 34h51.9V6H6v28z"/><path d="M34 58H24c-.6 0-1-.4-1-1s.4-1 1-1h10c.6 0 1 .4 1 1s-.4 1-1 1z"/></g></svg>