<svg xmlns="http://www.w3.org/2000/svg" viewBox="0 0 64 64"><path fill="#4FCCFC" d="M63 10v44h-1L45.9 39l-7.5 8-15-17L2 54H1V10h62zM52 23c0-3.3-2.7-6-6-6s-6 2.7-6 6 2.7 6 6 6 6-2.7 6-6z"/><path fill="#3EB778" d="M62 54H2l21.4-24 15 17 7.5-8z"/><path fill="#FFD833" d="M46 17c3.3 0 6 2.7 6 6s-2.7 6-6 6-6-2.7-6-6 2.7-6 6-6z"/><g fill="#2C2C3D"><path d="M63 9H1c-.6 0-1 .4-1 1v44c0 .6.4 1 1 1h62c.6 0 1-.4 1-1V10c0-.6-.4-1-1-1zm-1 2v41.6L46.6 38.3c-.4-.4-1-.4-1.4 0l-6.7 7.2-14.3-16.2c-.2-.2-.5-.3-.8-.3-.3 0-.6.1-.7.3L2 52.5V11h60zm-2.5 42H4.2l19.2-21.5 14.3 16.2c.2.2.5.3.7.3.3 0 .6-.1.7-.3l6.8-7.3L59.5 53z"/><path d="M46 30c3.9 0 7-3.1 7-7s-3.1-7-7-7-7 3.1-7 7 3.1 7 7 7zm0-12c2.8 0 5 2.2 5 5s-2.2 5-5 5-5-2.2-5-5 2.2-5 5-5z"/></g></svg>