<svg xmlns="http://www.w3.org/2000/svg" viewBox="0 0 64 64"><path fill="#58677A" d="M56 4v56c0 1.7-1.3 3-3 3H11c-1.7 0-3-1.3-3-3V4c0-1.7 1.3-3 3-3h42c1.7 0 3 1.3 3 3zm-4 46V9H12v41h40zm-17.5 6.5c0-1.4-1.1-2.5-2.5-2.5s-2.5 1.1-2.5 2.5S30.6 59 32 59s2.5-1.1 2.5-2.5z"/><path fill="#B1DAE5" d="M12 9h40v41H12z"/><circle fill="#58677A" cx="32" cy="56.5" r="2.5"/><g fill="#2C2C3D"><path d="M53 64H11c-2.2 0-4-1.8-4-4V4c0-2.2 1.8-4 4-4h42c2.2 0 4 1.8 4 4v56c0 2.2-1.8 4-4 4zM11 2c-1.1 0-2 .9-2 2v56c0 1.1.9 2 2 2h42c1.1 0 2-.9 2-2V4c0-1.1-.9-2-2-2H11z"/><path d="M32 60c-1.9 0-3.5-1.6-3.5-3.5S30.1 53 32 53s3.5 1.6 3.5 3.5S33.9 60 32 60zm0-5c-.8 0-1.5.7-1.5 1.5S31.2 58 32 58s1.5-.7 1.5-1.5S32.8 55 32 55zm20-4H12c-.6 0-1-.4-1-1V9c0-.6.4-1 1-1h40c.6 0 1 .4 1 1v41c0 .6-.4 1-1 1zm-39-2h38V10H13v39zM32.5 6h-1c-.6 0-1-.4-1-1s.4-1 1-1h1c.6 0 1 .4 1 1s-.4 1-1 1z"/></g></svg>