<svg xmlns="http://www.w3.org/2000/svg" viewBox="0 0 64 64"><path fill="#FFD655" d="M43 28v33c0 1.1-.9 2-2 2H22c-1.1 0-2-.9-2-2v-5h8.3V29H20v-1c0-2.4 1.2-4.5 3.1-5.8 1.1-.8 2.5-1.2 3.9-1.2h9c1.4 0 2.8.4 3.9 1.2 1.9 1.3 3.1 3.4 3.1 5.8z"/><path fill="#FFBB4D" d="M40 17v5l-.1.2c-1.1-.8-2.5-1.2-3.9-1.2h-9c-1.4 0-2.8.4-3.9 1.2L23 22v-5c0-1.1.9-2 2-2h13c1.1 0 2 .9 2 2zM34 1l.9 14H28l1-14zm-5.7 28v27H20V29h.9z"/><g fill="#2C2C3D"><path d="M41 64H22c-1.7 0-3-1.3-3-3V28c0-2.7 1.3-5.1 3.5-6.6 1.3-.9 2.9-1.4 4.5-1.4h9c1.6 0 3.1.5 4.5 1.4 2.2 1.5 3.5 4 3.5 6.6v33c0 1.7-1.3 3-3 3zM27 22c-1.2 0-2.4.4-3.3 1-1.7 1.2-2.7 3-2.7 5v33c0 .6.4 1 1 1h19c.6 0 1-.4 1-1V28c0-2-1-3.8-2.7-5-1-.7-2.1-1-3.3-1h-9z"/><path d="M40 23c-.6 0-1-.4-1-1v-5c0-.6-.4-1-1-1h-3.1c-.6 0-1-.4-1-1s.4-1 1-1H38c1.7 0 3 1.3 3 3v5c0 .6-.4 1-1 1zm-17 0c-.6 0-1-.4-1-1v-5c0-1.7 1.3-3 3-3h3c.6 0 1 .4 1 1s-.4 1-1 1h-3c-.6 0-1 .4-1 1v5c0 .6-.4 1-1 1zm5.3 34h-7.4c-.6 0-1-.4-1-1s.4-1 1-1h6.4V30h-6.4c-.6 0-1-.4-1-1s.4-1 1-1h7.4c.6 0 1 .4 1 1v27c0 .6-.5 1-1 1z"/><path d="M34.9 16H28c-.3 0-.5-.1-.7-.3-.2-.2-.3-.5-.3-.8l1-14c0-.5.5-.9 1-.9h5c.5 0 1 .4 1 .9l.9 13.8v.3c0 .6-.4 1-1 1zm-5.8-2h4.8l-.8-12H30l-.9 12z"/></g></svg>