<svg xmlns="http://www.w3.org/2000/svg" viewBox="0 0 64 64"><path fill="#67D6A6" d="M23.4 36.4c-1.4.4-2.9.6-4.4.6-9.9 0-18-8.1-18-18S9.1 1 19 1s18 8.1 18 18c0 1.5-.2 3.1-.6 4.5-1.6 6.4-6.6 11.3-13 12.9zM20 15.5c0-2.5-2-4.5-4.5-4.5S11 13 11 15.5s2 4.5 4.5 4.5 4.5-2 4.5-4.5z"/><path fill="#C1CEE0" d="M63 60.4V62c0 .5-.5 1-1 1h-7.3c-.3 0-.5-.1-.7-.3L50 59v-5h-5v-5h-5v-5h-5l-6-6-2 2-3.6-3.6c6.4-1.6 11.4-6.6 13-12.9L40 27l-2 2 24.7 25c.2.2.3.4.3.7v5.7z"/><g fill="#2C2C3D"><path d="M19 38C8.5 38 0 29.5 0 19S8.5 0 19 0s19 8.5 19 19c0 1.6-.2 3.2-.6 4.7v.1c-1.7 6.7-7 12-13.7 13.6-1.5.4-3.1.6-4.7.6zm0-36C9.6 2 2 9.6 2 19s7.6 17 17 17c1.4 0 2.8-.2 4.2-.5 6-1.5 10.7-6.2 12.3-12.2v-.1c.4-1.4.5-2.8.5-4.3C36 9.6 28.4 2 19 2z"/><path d="M15.5 21c-3 0-5.5-2.5-5.5-5.5s2.5-5.5 5.5-5.5 5.5 2.5 5.5 5.5-2.5 5.5-5.5 5.5zm0-9c-1.9 0-3.5 1.6-3.5 3.5s1.6 3.5 3.5 3.5 3.5-1.6 3.5-3.5-1.6-3.5-3.5-3.5zM62 64h-7.3c-.5 0-1-.2-1.4-.6l-4-3.7c-.2-.2-.3-.4-.3-.7v-4h-4c-.6 0-1-.4-1-1v-4h-4c-.6 0-1-.4-1-1v-4h-4c-.3 0-.5-.1-.7-.3L29 39.4l-1.3 1.3c-.2.2-.4.3-.7.3-.3 0-.5-.1-.7-.3l-3.6-3.6c-.4-.4-.4-1 0-1.4.4-.4 1-.4 1.4 0l2.9 2.9 1.3-1.3c.4-.4 1-.4 1.4 0l5.7 5.7H40c.6 0 1 .4 1 1v4h4c.6 0 1 .4 1 1v4h4c.6 0 1 .4 1 1v4.6l3.7 3.4H62v-7.3l-24.7-25c-.4-.4-.4-1 0-1.4l1.3-1.3-2.8-2.8c-.1-.1-.2-.2-.2-.3-.1-.1-.1-.3-.1-.4 0-.6.4-1 1-1 .3 0 .6.1.8.4l3.5 3.4c.2.2.3.4.3.7 0 .3-.1.5-.3.7L39.4 29l24 24.3c.4.4.6.9.6 1.4V62c0 1.1-.9 2-2 2z"/><path d="M63 61.4c-.3 0-.5-.1-.7-.3L40.7 39.5c-.4-.4-.4-1 0-1.4.4-.4 1-.4 1.4 0l21.6 21.6c.4.4.4 1 0 1.4-.2.2-.4.3-.7.3z"/></g></svg>