<svg xmlns="http://www.w3.org/2000/svg" viewBox="0 0 64 64"><path fill="#CCDBE2" d="M59 47h4c0 2.2-.9 4.2-2.3 5.7-1.5 1.4-3.5 2.3-5.7 2.3H9c-4.4 0-8-3.6-8-8h23l1 2h14l1-2h19z"/><path fill="#58677A" d="M59 11v36H40l-1 2H25l-1-2H5V11c0-1.7 1.3-3 3-3h48c1.7 0 3 1.3 3 3zm-4 32V14H9v29h46zM33 11c0-.6-.5-1-1-1s-1 .4-1 1 .5 1 1 1 1-.4 1-1z"/><path fill="#B1DAE5" d="M9 14h46v29H9z"/><circle cx="32" cy="11" r="1"/><g fill="#2C2C3D"><path d="M60 47h-2V11c0-1.1-.9-2-2-2H8c-1.1 0-2 .9-2 2v36H4V11c0-2.2 1.8-4 4-4h48c2.2 0 4 1.8 4 4v36z"/><path d="M55 56H9c-5 0-9-4-9-9v-1h24.6l1 2h12.8l1-2H64v1c0 2.4-.9 4.7-2.6 6.4-1.7 1.7-4 2.6-6.4 2.6zM2.1 48c.5 3.4 3.4 6 6.9 6h46c1.9 0 3.6-.7 5-2 1.1-1.1 1.8-2.5 2-4H40.6l-1 2H24.4l-1-2H2.1zM56 44H8V13h48v31zm-46-2h44V15H10v27z"/></g></svg>