<svg xmlns="http://www.w3.org/2000/svg" viewBox="0 0 64 64"><path fill="#FFF" d="M56 48l.1.1c-2.8 4.2-6.6 7.6-11.2 9.8L40 45l-.1-.2c1.6-1 3-2.3 4.1-3.8l12 7zm-31.9-3.2l-.1.2-5 12.9c-4.5-2.2-8.4-5.7-11.2-9.8L8 48l12-7c1.1 1.5 2.5 2.8 4.1 3.8zM24 19l.1.2c-1.6 1-3 2.3-4.1 3.8L8 16l-.1-.1c2.8-4.2 6.7-7.6 11.2-9.8L24 19zm32.1-3.1l-.1.1-12 7c-1.1-1.5-2.5-2.8-4.1-3.8l.1-.2 5-12.9c4.5 2.2 8.3 5.6 11.1 9.8z"/><path fill="#FF624D" d="M60.4 26c.4 1.9.6 4 .6 6s-.2 4-.6 6c-.8 3.7-2.2 7.1-4.2 10.1L56 48l-12-7c1.9-2.5 3-5.6 3-9s-1.1-6.5-3-9l12-7 .1-.1c2.1 3 3.5 6.4 4.3 10.1zM40 45l5 12.9c-2.2 1.1-4.5 1.9-7 2.5-1.9.4-4 .6-6 .6s-4.1-.2-6-.6c-2.5-.5-4.8-1.3-7-2.5L24 45l.1-.2c2.3 1.4 5 2.2 7.9 2.2s5.6-.8 7.9-2.2l.1.2zM8 16l12 7c-1.9 2.5-3 5.6-3 9s1.1 6.5 3 9L8 48l-.1.1c-2-3-3.5-6.4-4.2-10.1-.5-2-.7-4-.7-6s.2-4 .6-6c.8-3.7 2.2-7.1 4.2-10.1l.2.1zm37-9.9L40 19l-.1.2c-2.3-1.4-5-2.2-7.9-2.2s-5.6.8-7.9 2.2L24 19 19 6.1c2.2-1.1 4.5-1.9 7-2.5 1.9-.4 4-.6 6-.6s4 .2 6 .6c2.4.5 4.8 1.4 7 2.5z"/><g fill="#2C2C3D"><path d="M32 62c-2.1 0-4.2-.2-6.2-.6-2.5-.5-4.9-1.4-7.2-2.5C13.9 56.5 9.9 53 7 48.6c-2.1-3.2-3.6-6.7-4.4-10.5-.4-1.9-.6-4-.6-6.1s.2-4.2.6-6.2c.8-3.7 2.2-7.2 4.4-10.5C9.9 11 13.9 7.5 18.6 5.2c2.3-1.2 4.7-2 7.2-2.5 4-.8 8.4-.9 12.4 0 2.5.5 4.9 1.4 7.2 2.5C50.1 7.5 54.1 11 57 15.4c2.1 3.2 3.6 6.7 4.4 10.4.4 2 .7 4.1.7 6.2 0 2.1-.2 4.2-.6 6.2-.8 3.7-2.2 7.2-4.4 10.5-2.9 4.3-6.9 7.9-11.6 10.2-2.3 1.2-4.7 2-7.2 2.5-2.1.4-4.2.6-6.3.6zm0-58c-2 0-3.9.2-5.8.6-2.4.5-4.6 1.3-6.7 2.4-4.3 2.2-8.1 5.4-10.8 9.5-2 3-3.4 6.3-4.1 9.8C4.2 28.1 4 30 4 32s.2 3.9.6 5.8c.7 3.5 2.1 6.8 4.1 9.8 2.7 4.1 6.4 7.3 10.8 9.5 2.1 1.1 4.4 1.9 6.7 2.4 3.7.8 7.8.8 11.6 0 2.4-.5 4.6-1.3 6.7-2.4 4.3-2.2 8.1-5.4 10.8-9.5 2-3 3.4-6.3 4.1-9.8.4-1.9.6-3.8.6-5.8s-.2-3.9-.6-5.8c-.7-3.5-2.1-6.8-4.1-9.7-2.7-4.1-6.4-7.3-10.8-9.5-2.1-1.1-4.4-1.9-6.7-2.4C35.9 4.2 34 4 32 4z"/><path d="M3.5 27c-.3 0-.7-.2-.8-.5C-1.6 19.8-.6 10.8 5 5.2l.2-.2c5.7-5.7 14.6-6.6 21.4-2.3.4.3.5 1 .2 1.4-.3.5-.9.6-1.4.3-5.9-3.8-13.9-3-18.9 2l-.1.2c-5 5-5.8 12.9-2 18.8.3.5.2 1.1-.3 1.4-.2.1-.4.2-.6.2zm57 0c-.2 0-.4-.1-.5-.2-.5-.3-.6-.9-.3-1.4 3.8-5.9 2.9-13.9-2.1-18.8l-.2-.2c-5-5-12.9-5.8-18.9-2-.5.3-1.1.2-1.4-.3-.2-.5-.1-1.1.4-1.4C44.2-1.6 53.2-.7 58.8 5l.2.2c5.6 5.6 6.6 14.6 2.3 21.3-.2.3-.5.5-.8.5zM17.3 64c-4.4 0-8.9-1.7-12.1-5l-.2-.2c-5.6-5.6-6.6-14.6-2.3-21.3.3-.5.9-.6 1.4-.3.5.3.6.9.3 1.4-3.8 5.9-2.9 13.9 2 18.8l.2.2c5 5 12.9 5.8 18.9 2 .5-.3 1.1-.2 1.4.3.3.5.2 1.1-.3 1.4-2.9 1.8-6.1 2.7-9.3 2.7zm29.4 0a17 17 0 0 1-9.2-2.7c-.5-.3-.6-.9-.3-1.4.3-.5.9-.6 1.4-.3 5.9 3.8 13.9 3 18.9-2l.2-.2c5-5 5.8-12.9 2-18.8-.3-.5-.2-1.1.3-1.4.5-.3 1.1-.2 1.4.3 4.3 6.7 3.3 15.7-2.3 21.3l-.3.2c-3.3 3.3-7.7 5-12.1 5zM32 48c-3 0-5.9-.8-8.4-2.4-1.7-1-3.2-2.4-4.4-4-2.1-2.8-3.2-6.1-3.2-9.6s1.1-6.8 3.2-9.6c1.2-1.6 2.7-3 4.4-4C26.1 16.8 29 16 32 16s5.9.8 8.4 2.4c1.7 1 3.2 2.4 4.4 4 2.1 2.8 3.2 6.1 3.2 9.6s-1.1 6.8-3.2 9.6c-1.2 1.6-2.7 3-4.4 4C37.9 47.2 35 48 32 48zm0-30c-2.6 0-5.1.7-7.3 2.1-1.5.9-2.8 2.1-3.9 3.5C19 26 18 28.9 18 32c0 3.1 1 6 2.8 8.4 1.1 1.4 2.4 2.6 3.9 3.5 2.2 1.4 4.7 2.1 7.3 2.1s5.1-.7 7.3-2.1c1.5-.9 2.8-2.1 3.9-3.5C45 38 46 35.1 46 32c0-3.1-1-6-2.8-8.4-1.1-1.4-2.4-2.6-3.9-3.5-2.2-1.4-4.7-2.1-7.3-2.1z"/><path d="M24 20c-.4 0-.8-.2-.9-.6l-5-12.9c-.2-.5 0-1.1.5-1.3.5-.2 1.1 0 1.3.5v.1l5 13c.2.5-.1 1.1-.6 1.3-.1-.1-.2-.1-.3-.1zm-4 4c-.2 0-.3 0-.5-.1l-12-7c-.5-.3-.6-.9-.4-1.4.3-.5.9-.6 1.4-.4l12 7c.5.3.6.9.4 1.4-.2.3-.6.5-.9.5zm20-4c-.1 0-.2 0-.4-.1-.5-.2-.8-.8-.6-1.3l5-12.9v-.1c.2-.5.8-.7 1.3-.5.5.2.7.8.5 1.3v.1l-5 12.9c0 .4-.4.6-.8.6zm4 4c-.3 0-.7-.2-.9-.5-.3-.5-.1-1.1.4-1.4l12-7c.5-.3 1.1-.1 1.4.4.3.5.1 1.1-.4 1.4l-12 7c-.2.1-.3.1-.5.1zM19 59c-.1 0-.3 0-.4-.1-.5-.2-.7-.8-.5-1.3v-.1l5-12.9c.2-.5.8-.8 1.3-.6.5.2.8.8.6 1.3l-5 12.9v.1c-.2.5-.6.7-1 .7zM8 49c-.3 0-.7-.2-.9-.5-.2-.5-.1-1.1.4-1.4l12-7c.5-.3 1.1-.1 1.4.4.3.5.1 1.1-.4 1.4l-12 7c-.2.1-.3.1-.5.1zm37 10c-.4 0-.7-.2-.9-.6v-.1l-5-13c-.2-.5.1-1.1.6-1.3.5-.2 1.1.1 1.3.6l5 12.9c.2.5 0 1.1-.5 1.3-.3.1-.4.2-.5.2zm11-10c-.2 0-.3 0-.5-.1l-12-7c-.5-.3-.6-.9-.4-1.4.3-.5.9-.6 1.4-.4l12 7c.5.3.6.9.4 1.4-.2.3-.6.5-.9.5z"/></g></svg>