<svg xmlns="http://www.w3.org/2000/svg" viewBox="0 0 64 64"><path fill="#EDDFC8" d="M62.9 28.5c.4 2.3-.6 4.4-2.3 5.5 1.4 1 2.3 2.6 2.3 4.5 0 2.1-1.2 4-3 4.9.6.9 1 2 1 3.1 0 2.7-2 5-4.7 5.4.5 1 .8 2.1.6 3.3-.2 2.8-2.7 4.8-5.5 4.8H25c-3 0-6-2-6-5V33.9l11.9-18.7c.1-.2.1-.4.1-.6L30 3.9s3.8-1.9 7 0c3.7 2.3 5 6.2 5 11 0 1.8-.2 3.7-.4 5.3-.2 1.6-.5 3-.6 3.9h16.3c2.7-.1 5.1 1.7 5.6 4.4z"/><path fill="#758EB3" d="M19 55v4c0 1.1-.9 2-2 2H3c-1.1 0-2-.9-2-2V33c0-1.1.9-2 2-2h14c1.1 0 2 .9 2 2v22z"/><g fill="#2C2C3D"><path d="M17 62H3c-1.7 0-3-1.3-3-3V33c0-1.7 1.3-3 3-3h14c1.7 0 3 1.3 3 3v26c0 1.7-1.3 3-3 3zM3 32c-.6 0-1 .4-1 1v26c0 .6.4 1 1 1h14c.6 0 1-.4 1-1V33c0-.6-.4-1-1-1H3z"/><path d="M51.3 61H25c-3.4 0-7-2.2-7-6 0-.6.4-1 1-1s1 .4 1 1c0 2.5 2.6 4 5 4h26.3c2.4 0 4.4-1.7 4.7-3.9.1-1 0-1.9-.5-2.7-.2-.3-.2-.6 0-.9.1-.3.4-.5.7-.5 2.2-.3 3.8-2.3 3.8-4.4 0-.9-.3-1.8-.8-2.5-.2-.4-.2-.7-.2-1 .1-.3.3-.5.5-.6 1.5-.8 2.4-2.3 2.4-4 0-1.5-.7-2.8-1.9-3.7-.3-.2-.4-.5-.4-.8 0-.3.2-.6.4-.8 1.5-1 2.2-2.8 1.9-4.5-.4-2.1-2.4-3.6-4.6-3.6H41c-.3 0-.5-.1-.7-.3s-.3-.6-.3-.9c0-.5.1-1.2.3-1.9.1-.6.2-1.2.3-2 .2-1.3.4-3.3.4-5.1 0-5-1.5-8.3-4.5-10.1-2-1.2-4.3-.6-5.4-.2l.9 10c0 .4 0 .8-.2 1.1l-12 18.7c-.3.5-.9.6-1.4.3-.5-.3-.6-.9-.3-1.4L30 14.6 29 4c0-.4.2-.8.5-1 .2-.1 4.4-2.2 8 0C41.2 5.3 43 9.2 43 14.9c0 2-.3 4.1-.4 5.4-.1.7-.2 1.4-.3 2 0 .3-.1.5-.1.7h15.2c3.2 0 6 2.2 6.6 5.3.4 2.1-.3 4.2-1.7 5.7 1.2 1.2 1.8 2.8 1.8 4.5 0 2.1-1 4-2.6 5.2.4.9.6 1.8.6 2.8 0 2.7-1.8 5.2-4.3 6.1.3.9.4 1.8.2 2.8-.5 3.2-3.4 5.6-6.7 5.6z"/></g></svg>