<svg xmlns="http://www.w3.org/2000/svg" xmlns:xlink="http://www.w3.org/1999/xlink" viewBox="0 0 32 32"><defs><path id="a" d="M.2.2H32V32H.2z"/></defs><clipPath id="b"><use xlink:href="#a" overflow="visible"/></clipPath><path d="M11.1 15.6c-1.2-1.4-2.8-2.1-4.5-2.1-1.7 0-3.3.7-4.5 2.1-2.4 2.8-2.4 7.3 0 10l4.5 5.1 4.5-5.1c2.4-2.8 2.4-7.3 0-10zm-.8 9.3l-3.7 4.2-3.7-4.2c-2.1-2.4-2.1-6.2 0-8.6 1-1.1 2.3-1.7 3.7-1.7s2.7.6 3.7 1.7c2.1 2.3 2.1 6.2 0 8.6z" clip-path="url(#b)"/><path d="M25.8 13.2l3.4-3.9c1.8-2.1 1.8-5.5 0-7.5-.9-1-2.1-1.6-3.4-1.6-1.3 0-2.5.6-3.4 1.6-1.8 2.1-1.8 5.5 0 7.5l3.4 3.9zM23.1 2.5c.7-.8 1.6-1.2 2.6-1.2s1.9.4 2.6 1.2c1.5 1.7 1.5 4.4 0 6.1l-2.6 3-2.6-3c-1.5-1.7-1.5-4.4 0-6.1zm4.7 26.6c-.3-.1-.6.1-.6.4-.1.3-.2.5-.4.7-.2.2-.1.6.1.7.1.1.2.1.3.1.2 0 .3-.1.4-.2.3-.3.5-.7.6-1.2.1-.2-.1-.4-.4-.5zM16.9 16.6c-.2 0-.5 0-.7-.1-.3-.1-.6 0-.7.3-.1.3 0 .6.3.7.3.1.7.2 1 .2h.2c.3 0 .5-.2.5-.5s-.2-.5-.5-.5h-.1zm-1.3-3.3c.1 0 .2 0 .3-.1.2-.1.5-.2.8-.3.3 0 .5-.3.5-.6s-.3-.5-.6-.5c-.4 0-.8.2-1.2.4-.2.2-.3.5-.2.7.1.3.3.4.4.4zM9.5 30.9h-1c-.3 0-.5.2-.5.5s.2.5.5.5h1.1c.3 0 .5-.2.5-.5-.1-.2-.3-.5-.6-.5zm9.5-9.5h-.1c-.3 0-.5.3-.5.6s.2.5.5.5h1c.3 0 .5-.2.5-.5s-.2-.5-.5-.5c.1-.1-.9-.1-.9-.1zm-.3-8.5h1.1c.3 0 .5-.2.5-.5s-.2-.5-.5-.5h-1.1c-.3 0-.5.2-.5.5s.3.5.5.5zm6.6 8.5c-.3 0-.5.2-.5.5s.2.5.5.5h1.1c.3 0 .5-.2.5-.5s-.2-.5-.5-.5h-1.1zm1.9-4.2c0-.3-.2-.5-.5-.5h-1.1c-.3 0-.5.2-.5.5s.2.5.5.5h1.1c.2 0 .5-.2.5-.5zm-5.1 5.3h1.1c.3 0 .5-.2.5-.5s-.2-.5-.5-.5h-1.1c-.3 0-.5.2-.5.5 0 .2.2.5.5.5zm.9-9.6c.3 0 .5-.2.5-.5s-.2-.5-.5-.5h-1.1c-.3 0-.5.2-.5.5s.2.5.5.5H23zm-3.8 3.7c-.3 0-.5.2-.5.5s.2.5.5.5h1.1c.3 0 .5-.2.5-.5s-.2-.5-.5-.5h-1.1zm4.8.6c0-.3-.2-.5-.5-.5h-1.1c-.3 0-.5.2-.5.5s.2.5.5.5h1.1c.2 0 .5-.2.5-.5zm7.4 1.9c0-.3-.3-.5-.6-.4-.3 0-.5.3-.4.6v.3c0 .2 0 .4-.1.5-.1.3.1.6.4.7h.1c.2 0 .4-.2.5-.4.1-.3.1-.5.1-.8.1-.2.1-.4 0-.5zm-9.2 11.8h-1.1c-.3 0-.5.2-.5.5s.2.5.5.5h1.1c.3 0 .5-.2.5-.5.1-.2-.2-.5-.5-.5zm-3.1 0H18c-.3 0-.5.2-.5.5s.2.5.5.5h1.1c.3 0 .5-.2.5-.5 0-.2-.3-.5-.5-.5zm5.8-4.2c0-.3-.2-.5-.5-.5h-1.1c-.3 0-.5.2-.5.5s.2.5.5.5h1.1c.2 0 .5-.2.5-.5zm-3.2 0c0-.3-.2-.5-.5-.5h-1.1c-.3 0-.5.2-.5.5s.2.5.5.5h1.1c.3 0 .5-.2.5-.5zm3.7 4.2h-1c-.3 0-.5.2-.5.5s.2.5.5.5h1v-.5.6c.3 0 .5-.2.5-.5s-.2-.6-.5-.6zm1.8-2.8c.1 0 .2 0 .3-.1.2-.2.3-.5.1-.7-.3-.3-.6-.6-1-.8-.3-.1-.6 0-.7.2-.1.3 0 .6.2.7.2.1.5.3.6.5.2.2.4.2.5.2zm2.1-6.8c-.2.1-.5.1-.7.1h-.1c-.3 0-.5.2-.5.5s.2.5.5.5h.1c.4 0 .8-.1 1.1-.2.3-.1.4-.4.3-.7-.2-.2-.5-.3-.7-.2zM14.8 16c.3-.1.4-.4.3-.7 0-.1-.1-.3-.1-.5v-.2c0-.3-.2-.6-.5-.6s-.6.2-.6.5v.4c0 .3 0 .6.1.9.1.2.3.4.5.4.2-.1.2-.2.3-.2zm-2.1 14.9h-1.1c-.3 0-.5.2-.5.5s.2.5.5.5h1.1c.3 0 .5-.2.5-.5 0-.2-.2-.5-.5-.5zM18 27c.2 0 .4-.1.5-.3.1-.3 0-.6-.3-.7-.2-.1-.5-.3-.7-.5-.2-.2-.5-.3-.7-.1-.2.2-.3.5-.1.7.3.3.6.6 1 .8.2.1.3.1.3.1zm12-10c-.4-.2-.8-.3-1.2-.4-.3 0-.5.2-.6.5 0 .3.2.5.5.6.3 0 .5.1.8.2.1 0 .2.1.3.1.2 0 .4-.1.5-.3 0-.2 0-.5-.3-.7zM15.9 30.9h-1.1c-.3 0-.5.2-.5.5s.2.5.5.5h1.1c.3 0 .5-.2.5-.5 0-.2-.2-.5-.5-.5zm1.3-6.9c.1-.3.2-.5.3-.7.2-.2.1-.6-.1-.7-.2-.2-.6-.1-.7.1-.3.4-.4.7-.5 1.2-.1.3.1.6.4.6h.1c.2-.1.4-.3.5-.5z"/><path d="M25.9 8.2c1.6 0 2.9-1.3 2.9-2.9 0-1.6-1.3-2.9-2.9-2.9-1.6 0-2.9 1.3-2.9 2.9 0 1.6 1.3 2.9 2.9 2.9zm0-4.8c1 0 1.9.8 1.9 1.9 0 1-.8 1.9-1.9 1.9-1 0-1.9-.8-1.9-1.9 0-1.1.9-1.9 1.9-1.9zM6.6 16.6c-1.8 0-3.2 1.4-3.2 3.2 0 1.8 1.4 3.2 3.2 3.2 1.8 0 3.2-1.4 3.2-3.2-.1-1.7-1.5-3.2-3.2-3.2zm0 5.3c-1.2 0-2.1-1-2.1-2.1 0-1.2.9-2.1 2.1-2.1 1.2 0 2.1 1 2.1 2.1 0 1.2-1 2.1-2.1 2.1z"/></svg>