<svg xmlns="http://www.w3.org/2000/svg" viewBox="0 0 64 64"><path fill="#E84B4B" d="M14.6 33.9C12.4 30.5 11 26.4 11 22c0-11.6 9.4-21 21-21s21 9.4 21 21c0 4.4-1.3 8.5-3.7 11.9L32 63 14.6 33.9zM41 22c0-5-4-9-9-9s-9 4-9 9 4 9 9 9 9-4 9-9z"/><circle fill="#FFD41D" cx="32" cy="22" r="9"/><g fill="#2D2D2D"><path d="M32 64c-.4 0-.7-.2-.9-.5L13.8 34.4C11.3 30.8 10 26.5 10 22 10 9.9 19.9 0 32 0s22 9.9 22 22c0 4.4-1.3 8.7-3.8 12.4L32.9 63.5c-.2.3-.5.5-.9.5zm0-62c-11 0-20 9-20 20 0 4 1.2 7.9 3.5 11.3L32 61l16.5-27.7C50.8 30 52 26.1 52 22c0-11-9-20-20-20z"/><path d="M32 32c-5.5 0-10-4.5-10-10s4.5-10 10-10 10 4.5 10 10-4.5 10-10 10zm0-18c-4.4 0-8 3.6-8 8s3.6 8 8 8 8-3.6 8-8-3.6-8-8-8z"/></g></svg>