<svg xmlns="http://www.w3.org/2000/svg" viewBox="0 0 64 64"><path fill="#E84B4B" d="M52 21c0 14-20 25.1-20 42 0-16.9-20-28-20-42C12 9.9 21 1 32 1s20 8.9 20 20zm-12-1c0-4.4-3.6-8-8-8s-8 3.6-8 8 3.6 8 8 8 8-3.6 8-8z"/><circle fill="#B22424" cx="32" cy="20" r="8"/><g fill="#2D2D2D"><path d="M32 29c-5 0-9-4-9-9s4-9 9-9 9 4 9 9-4 9-9 9zm0-16c-3.9 0-7 3.1-7 7s3.1 7 7 7 7-3.1 7-7-3.1-7-7-7z"/><path d="M32 64c-.6 0-1-.4-1-1 0-8.5-5.3-15.6-10.5-22.4C15.6 34.1 11 28 11 21 11 9.4 20.4 0 32 0s21 9.4 21 21c0 7-4.6 13.1-9.5 19.6C38.3 47.4 33 54.5 33 63c0 .6-.4 1-1 1zm0-62c-10.5 0-19 8.5-19 19 0 6.3 4.4 12.2 9.1 18.4 4 5.3 8.1 10.7 9.9 16.9 1.8-6.2 5.9-11.6 9.9-16.9 4.7-6.2 9.1-12 9.1-18.4 0-10.5-8.5-19-19-19z"/></g></svg>