<svg xmlns="http://www.w3.org/2000/svg" viewBox="0 0 64 64"><path fill="#F9C953" d="M36 45c0-2.2-1.8-4-3.9-4-1.3 0-2.5.7-3.3 1.8-1.6 2.2-.4 4.5 1.2 5.5V53c0 1.1.9 2 2 2 .5 0 1-.2 1.4-.6.4-.4.6-.9.6-1.4v-4.7c1.1-.7 2-1.9 2-3.3zm19-14v27c0 2.8-2.2 5-5 5H14c-2.8 0-5-2.2-5-5V31c0-2.8 2.2-5 5-5h36c2.8 0 5 2.2 5 5z"/><path fill="#BC7D00" d="M30 48.3c-1.6-1.1-2.9-3.3-1.2-5.5.8-1.1 2-1.8 3.3-1.8 2.2 0 3.9 1.8 3.9 4 0 1.4-.9 2.6-2 3.3V53c0 .5-.2 1-.6 1.4-.4.4-.9.6-1.4.6-1.1 0-2-.9-2-2v-4.7z"/><path fill="#C1CEE0" d="M48 16.5V26h-7v-9c0-2.5-1-4.7-2.6-6.4C36.7 9 34.5 8 32 8c-5 0-9 4.1-9 9v9h-7v-9.5C16 8 23.2 1 32 1c4.4 0 8.4 1.7 11.3 4.6 2.9 2.8 4.7 6.6 4.7 10.9z"/><g fill="#2C2C3D"><path d="M50 64H14c-3.3 0-6-2.7-6-6V31c0-3.3 2.7-6 6-6h36c3.3 0 6 2.7 6 6v27c0 3.3-2.7 6-6 6zM14 27c-2.2 0-4 1.8-4 4v27c0 2.2 1.8 4 4 4h36c2.2 0 4-1.8 4-4V31c0-2.2-1.8-4-4-4H14z"/><path d="M48 27c-.6 0-1-.4-1-1v-9.5c0-3.9-1.6-7.5-4.4-10.2C39.8 3.5 36 2 32 2c-8.3 0-15 6.5-15 14.5V26c0 .6-.4 1-1 1s-1-.4-1-1v-9.5C15 7.4 22.6 0 32 0c4.5 0 8.8 1.7 12 4.8 3.2 3.1 5 7.3 5 11.7V26c0 .6-.4 1-1 1z"/><path d="M41 27c-.6 0-1-.4-1-1v-9c0-2.1-.8-4.1-2.3-5.7C36.1 9.8 34.1 9 32 9c-4.4 0-8 3.6-8 8v9c0 .6-.4 1-1 1s-1-.4-1-1v-9c0-5.5 4.5-10 10-10 2.7 0 5.2 1 7.1 2.9C41 11.8 42 14.3 42 17v9c0 .6-.4 1-1 1zm-9 29c-1.7 0-3-1.3-3-3v-4.1c-1-.8-1.7-1.9-1.9-3.1-.2-1.2.1-2.5.9-3.6 1-1.4 2.5-2.2 4.1-2.2 2.8.1 5 2.3 5 5 0 1.4-.8 2.9-2 3.9V53c0 .8-.3 1.6-.9 2.1-.6.6-1.4.9-2.2.9zm.1-14c-.9 0-1.9.5-2.5 1.4-.5.7-.7 1.4-.5 2.1.1.8.7 1.6 1.5 2.1.3.2.5.5.5.8V53c0 .6.4 1 1 1 .3 0 .5-.1.7-.3.2-.2.3-.4.3-.7v-4.6c0-.3.2-.7.5-.8.6-.6 1.4-1.5 1.4-2.6 0-1.7-1.3-3-2.9-3z"/></g></svg>