<svg xmlns="http://www.w3.org/2000/svg" viewBox="0 0 64 64"><path fill="#FFD68D" d="M26 28L1 53V11zm37-17v42L38 28z"/><path fill="#FC6" d="M63 11L38 28l-3.7 2.5c-1.4.9-3.1.9-4.5 0L26 28 1 11h62z"/><path fill="#F2BD5F" d="M63 53H1l25-25 3.7 2.5c1.4.9 3.1.9 4.5 0L38 28l25 25z"/><path fill="#2D2D2D" d="M64 11s0-.1 0 0c0-.2 0-.2-.1-.3 0-.1 0-.1-.1-.2v-.1l-.1-.1c0-.1-.1-.1-.1-.1s-.1-.1-.2-.1-.1-.1-.2-.1H.7c-.1 0-.1 0-.2.1-.1 0-.1.1-.2.1s-.1.1-.1.1l-.1.1v.1c0 .1-.1.1-.1.2V53c0 .1 0 .3.1.4.1.2.3.4.5.5.1.1.3.1.4.1h62c.1 0 .3 0 .4-.1.2-.1.4-.3.5-.5.1-.1.1-.3.1-.4V11zM2 12.9l22.5 15.2L2 50.6V12.9zm31.7 16.8c-1 .7-2.4.7-3.4 0L4.3 12h55.5L33.7 29.7zm-7.5-.4l3 2.1c.9.6 1.8.9 2.8.9s2-.3 2.8-.9l3-2.1L60.6 52H3.4l22.8-22.7zm13.3-1.2L62 12.9v37.7L39.5 28.1z"/></svg>