<svg xmlns="http://www.w3.org/2000/svg" viewBox="0 0 64 64"><path fill="#F2BD5F" d="M63 11v38c0 2.2-1.8 4-4 4H5c-2.2 0-4-1.8-4-4V11l31 21 31-21z"/><path fill="#FC6" d="M63 11L32 32 1 11z"/><path fill="#2D2D2D" d="M64 10.9v-.2c0-.1 0-.1-.1-.2v-.1l-.1-.1c0-.1-.1-.1-.1-.1s-.1-.1-.2-.1-.1-.1-.2-.1H.7c-.1 0-.1 0-.2.1-.1 0-.1.1-.2.1s-.1.1-.1.1l-.1.1v.1c0 .1-.1.1-.1.2V49c0 2.8 2.2 5 5 5h54c2.8 0 5-2.2 5-5V10.9c0 .1 0 0 0 0zM59.7 12L32 30.8 4.3 12h55.4zM59 52H5c-1.7 0-3-1.3-3-3V12.9l29.4 19.9c.2.1.4.2.6.2s.4-.1.6-.2L62 12.9V49c0 1.7-1.3 3-3 3z"/></svg>