<svg xmlns="http://www.w3.org/2000/svg" viewBox="0 0 64 64"><path fill="#BC645B" d="M27.5 3.8c-5.6 5.6-2.9 17.5 6.1 26.6 8.2 8.2 18.7 11.2 24.9 7.5-5.1 4.4-11.7 7.4-18.1 8.3-3.4.5-6.7 1.3-9.8 2.7-3.5 1.6-7.4 1.7-10.6.2-1.2-.5-2.2-1.3-3.2-2.2-.8-.8-1.5-1.7-2-2.7-1.9-3.7-1.7-8.4.6-12.4 1.3-2.2 1.9-4.7 2.2-7.2.8-7.5 4.4-15.3 9.9-20.8z"/><path fill="#FFF" d="M19.9 49l-6.2 6.2c1.9 1.9 1.7 5-.4 6.7-1.5 1.2-3.8 1.3-5.4.1-1.5-1.1-2.1-2.9-1.8-4.5-1.6.2-3.2-.4-4.2-1.9-1.1-1.6-1-3.8.2-5.3 1.7-2.2 4.8-2.3 6.7-.4l5.7-5.7.3-.1c.5 1 1.2 1.9 2 2.7.9.9 2 1.7 3.1 2.2z"/><ellipse transform="rotate(-45.001 44.855 19.146)" fill="#FFF" cx="44.9" cy="19.1" rx="3.5" ry="6.1"/><path fill="#DD97AB" d="M58.5 37.9c-6.1 3.7-16.7.7-24.9-7.5-9-9-11.8-20.9-6.1-26.6S45 .9 54 9.9s11.8 20.9 6.2 26.6c-.5.5-1.1 1-1.7 1.4zm-9.3-14.4c1.3-1.3.5-4.4-1.9-6.8s-5.4-3.2-6.8-1.9c-1.3 1.4-.5 4.4 1.9 6.8s5.4 3.2 6.8 1.9z"/><g fill="#2C2C3D"><path d="M52.3 40.4c-6.3 0-13.5-3.5-19.4-9.4-9.4-9.4-12.2-22-6.1-28C28.9.9 31.9-.2 35.4-.2c6.3 0 13.5 3.5 19.4 9.4 4.5 4.5 7.6 9.8 8.8 15 1.2 5.4.3 10-2.7 12.9-.6.6-1.2 1.1-1.9 1.5-1.9 1.3-4.1 1.8-6.7 1.8zM35.4 1.9c-3 0-5.4.9-7.2 2.6C23 9.7 25.7 21 34.3 29.7c5.5 5.5 12.2 8.8 18 8.8 2.2 0 4.1-.5 5.6-1.4.6-.3 1.1-.7 1.5-1.2 2.5-2.5 3.2-6.4 2.2-11.1-1.1-4.8-4.1-9.8-8.3-14.1-5.5-5.5-12.2-8.8-17.9-8.8z"/><path d="M47.4 25.1c-1.8 0-4-1.1-5.7-2.8-1.3-1.3-2.2-2.8-2.6-4.2-.5-1.6-.2-3.1.7-4 .6-.6 1.5-.9 2.5-.9 1.8 0 4 1.1 5.7 2.8 1.3 1.3 2.2 2.8 2.6 4.2.5 1.6.2 3.1-.7 4-.6.6-1.5.9-2.5.9zm-5.1-9.9c-.5 0-.8.1-1.1.4-.4.4-.5 1.1-.2 2 .3 1.1 1.1 2.3 2.1 3.3 1.4 1.4 3 2.2 4.3 2.2.5 0 .8-.1 1.1-.4.4-.4.5-1.1.2-2-.3-1.1-1.1-2.3-2.1-3.3-1.4-1.3-3.1-2.2-4.3-2.2z"/><path d="M24.9 51.1c-1.9 0-3.7-.4-5.4-1.2-1.3-.6-2.5-1.4-3.5-2.4-.9-.9-1.6-1.9-2.2-2.9-2.1-4-1.9-9.1.6-13.3 1.1-1.9 1.8-4.2 2-6.8.9-7.9 4.7-15.9 10.2-21.5 0-.1.1-.1.1-.2l1.4 1.4-.1.1c-5.3 5.3-8.8 12.9-9.6 20.2-.3 2.9-1.1 5.5-2.3 7.6-2.1 3.6-2.3 8-.6 11.4.5.9 1.1 1.7 1.8 2.4.8.8 1.8 1.5 2.9 2 3 1.4 6.5 1.3 9.8-.2 2.9-1.3 6.2-2.2 10.1-2.8 6.3-.9 12.7-3.8 17.6-8 .6-.5 1.1-1 1.7-1.5l1.4 1.4c-.6.6-1.2 1.2-1.8 1.7-5.1 4.5-11.9 7.6-18.6 8.5-3.7.5-6.8 1.3-9.5 2.6-1.9 1-4 1.5-6 1.5z"/><path d="M10.5 63.9c-1.1 0-2.3-.3-3.2-1-1.4-1-2.2-2.6-2.3-4.3-1.6-.2-3-1-4-2.3-1.4-1.9-1.3-4.6.2-6.5 1-1.2 2.4-2 4-2.1 1.2-.1 2.4.3 3.4 1l5.1-5.1 1.4 1.4-5.7 5.7c-.2.2-.4.3-.7.3-.3 0-.5-.1-.7-.3-.7-.7-1.7-1.1-2.7-1-1 .1-1.9.5-2.5 1.3-.9 1.2-1 2.9-.1 4.1.8 1.1 2 1.6 3.3 1.5.3 0 .6.1.8.3.2.2.3.6.2.9-.3 1.3.3 2.7 1.4 3.5 1.2.9 3 .9 4.2-.1.8-.6 1.3-1.5 1.3-2.6.1-1-.3-2-1-2.7-.4-.4-.4-1 0-1.4l6.4-6.4 1.4 1.4-5.8 5.8c.7 1 1 2.2 1 3.4-.1 1.6-.9 3-2.1 4-.9.8-2.1 1.2-3.3 1.2z"/></g></svg>