<svg xmlns="http://www.w3.org/2000/svg" viewBox="0 0 64 64"><path fill="#FFC533" d="M53 1v8H11V1z"/><path fill="#94A848" d="M51 9v18l-6.7 4.8c-.7-.7-1.5-1.3-2.3-1.8V9h9z"/><path fill="#FFC533" d="M44.3 31.8c3.5 3.3 5.7 8 5.7 13.2 0 10-8.1 18-18 18s-18-8-18-18c0-5.2 2.2-9.9 5.7-13.2.7-.7 1.5-1.3 2.3-1.8 2.9-1.9 6.3-3 10-3s7.1 1.1 10 3c.8.6 1.5 1.2 2.3 1.8zM44 45c0-6.6-5.4-12-12-12s-12 5.4-12 12 5.4 12 12 12 12-5.4 12-12z"/><path fill="#46752A" d="M42 9v21c-2.9-1.9-6.3-3-10-3s-7.1 1.1-10 3V9h20z"/><path fill="#FCEA81" d="M32 33c6.6 0 12 5.4 12 12s-5.4 12-12 12-12-5.4-12-12 5.4-12 12-12zm3.5 12.9l3.5-3.6-4.8-.7L32 37l-2.2 4.6-4.8.7 3.5 3.6-.8 5.1 4.3-2.4 4.3 2.4-.8-5.1z"/><path fill="#F2AC0F" d="M39 42.3l-3.5 3.6.8 5.1-4.3-2.4-4.3 2.4.8-5.1-3.5-3.6 4.8-.7L32 37l2.2 4.6z"/><path fill="#94A848" d="M22 30c-.8.6-1.5 1.2-2.3 1.8L13 27V9h9v21z"/><g fill="#2D2D2D"><path d="M32 32c-7.2 0-13 5.8-13 13s5.8 13 13 13 13-5.8 13-13-5.8-13-13-13zm0 24c-6.1 0-11-4.9-11-11s4.9-11 11-11 11 4.9 11 11-4.9 11-11 11z"/><path d="M53 0H11c-.6 0-1 .4-1 1v8c0 .6.4 1 1 1h1v17c0 .3.2.6.4.8l5.8 4.1c-3.3 3.5-5.2 8.2-5.2 13 0 10.5 8.5 19 19 19s19-8.5 19-19c0-4.9-1.9-9.5-5.2-13l5.8-4.1c.3-.2.4-.5.4-.8V10h1c.6 0 1-.4 1-1V1c0-.6-.4-1-1-1zM14 10h7v19.5c-.5.3-.9.7-1.3 1l-5.7-4V10zm27 18.3c-2.8-1.5-5.8-2.3-9-2.3s-6.2.8-9 2.3V10h18v18.3zM32 62c-9.4 0-17-7.6-17-17 0-4.7 2-9.2 5.4-12.4.7-.6 1.4-1.2 2.1-1.7C25.4 29 28.6 28 32 28s6.6 1 9.4 2.8c.8.5 1.5 1.1 2.1 1.7C47 35.8 49 40.3 49 45c0 9.4-7.6 17-17 17zm18-35.5l-5.7 4.1c-.4-.4-.9-.7-1.3-1V10h7v16.5zM52 8H12V2h40v6z"/></g></svg>