<svg xmlns="http://www.w3.org/2000/svg" viewBox="0 0 64 64"><path fill="#CCDBE2" d="M63 12v36c0 1.1-.9 2-2 2H44V10h17c1.1 0 2 .9 2 2zm-4 29c0-2.8-2.2-5-5-5s-5 2.2-5 5 2.2 5 5 5 5-2.2 5-5z"/><circle fill="#FFF" cx="54" cy="41" r="5"/><path fill="#A0B5BA" d="M50 50h7v4h-7z"/><path fill="#FFF" d="M44 10v40H3c-1.1 0-2-.9-2-2V12c0-1.1.9-2 2-2h41zm-5 32V18c0-1.7-1.4-3-3-3H9c-1.6 0-3 1.3-3 3v24c0 1.7 1.3 3 3 3h27c1.7 0 3-1.3 3-3z"/><path fill="#B1DAE5" d="M39 18v24c0 1.7-1.4 3-3 3H9c-1.6 0-3-1.3-3-3V18c0-1.7 1.3-3 3-3h27c1.7 0 3 1.3 3 3z"/><path fill="#A0B5BA" d="M6 50h7v4H6z"/><g fill="#2C2C3D"><path d="M61 51h-4c-.6 0-1-.4-1-1s.4-1 1-1h4c.6 0 1-.4 1-1V12c0-.6-.4-1-1-1H3c-.6 0-1 .4-1 1v36c0 .6.4 1 1 1h3c.6 0 1 .4 1 1s-.4 1-1 1H3c-1.7 0-3-1.3-3-3V12c0-1.7 1.3-3 3-3h58c1.7 0 3 1.3 3 3v36c0 1.7-1.3 3-3 3z"/><path d="M50 51H13c-.6 0-1-.4-1-1s.4-1 1-1h37c.6 0 1 .4 1 1s-.5 1-1 1z"/><path d="M44 51c-.6 0-1-.4-1-1V10c0-.6.4-1 1-1s1 .4 1 1v40c0 .6-.5 1-1 1zm10-4c-3.3 0-6-2.7-6-6s2.7-6 6-6 6 2.7 6 6-2.7 6-6 6zm0-10c-2.2 0-4 1.8-4 4s1.8 4 4 4 4-1.8 4-4-1.8-4-4-4zm4-20h-9c-.6 0-1-.4-1-1s.4-1 1-1h9c.6 0 1 .4 1 1s-.5 1-1 1zm-6 5h-3c-.6 0-1-.4-1-1s.4-1 1-1h3c.6 0 1 .4 1 1s-.5 1-1 1zm6 0h-3c-.6 0-1-.4-1-1s.4-1 1-1h3c.6 0 1 .4 1 1s-.5 1-1 1zm-6 4h-3c-.6 0-1-.4-1-1s.4-1 1-1h3c.6 0 1 .4 1 1s-.5 1-1 1zm6 0h-3c-.6 0-1-.4-1-1s.4-1 1-1h3c.6 0 1 .4 1 1s-.5 1-1 1zM36 46H9c-2.2 0-4-1.8-4-4V18c0-2.2 1.8-4 4-4h27c2.2 0 4 1.8 4 4v24c0 2.2-1.8 4-4 4zM9 16c-1.1 0-2 .9-2 2v24c0 1.1.9 2 2 2h27c1.1 0 2-.9 2-2V18c0-1.1-.9-2-2-2H9zm4 39H6c-.6 0-1-.4-1-1v-4c0-.6.4-1 1-1h7c.6 0 1 .4 1 1v4c0 .6-.5 1-1 1zm-6-2h5v-2H7v2zm50 2h-7c-.6 0-1-.4-1-1v-4c0-.6.4-1 1-1h7c.6 0 1 .4 1 1v4c0 .6-.5 1-1 1zm-6-2h5v-2h-5v2z"/></g></svg>