<svg xmlns="http://www.w3.org/2000/svg" viewBox="-49 141 512 512"><path d="M383.353 365.45H366.82v-16.533a7.515 7.515 0 1 0-15.03 0v16.533h-17.034v-47.595a7.515 7.515 0 1 0-15.03 0v47.595H94.273v-96.694c0-62.158 50.569-112.726 112.726-112.726s112.726 50.568 112.726 112.726v16.032a7.515 7.515 0 1 0 15.03 0v-16.032c0-70.445-57.311-127.756-127.756-127.756S79.243 198.311 79.243 268.756v96.694H62.209v-16.533a7.515 7.515 0 1 0-15.03 0v16.533H30.646a7.515 7.515 0 1 0 0 15.03h16.533v16.533c0 85.618 67.675 155.719 152.34 159.64-.02.224-.034.452-.034.681v48.914c-24.888 2.084-47.408 14.487-62.629 34.749-2.459 3.274-1.779 8.063 1.495 10.522 3.275 2.46 8.063 1.779 10.523-1.495 13.874-18.469 35.06-29.062 58.126-29.062 23.067 0 44.254 10.594 58.128 29.065 2.654 3.533 7.944 3.983 11.163.956 2.753-2.588 3.121-6.964.855-9.983-15.221-20.265-37.741-32.667-62.631-34.752v-48.914c0-.231-.014-.457-.034-.681 84.665-3.921 152.34-74.022 152.34-159.64V380.48h16.533a7.515 7.515 0 1 0-.001-15.03zm-63.627 15.03v16.533c0 62.158-50.569 112.726-112.726 112.726S94.273 459.171 94.273 397.014V380.48h225.453zm32.064 16.534c0 79.838-64.952 144.79-144.79 144.79S62.21 476.852 62.21 397.014V380.48h17.034v16.533c0 70.445 57.311 127.756 127.756 127.756s127.756-57.311 127.756-127.756V380.48h17.034v16.534z"/><path d="M206.999 237.193c-12.984 0-23.547 10.563-23.547 23.547s10.563 23.547 23.547 23.547 23.547-10.563 23.547-23.547c.001-12.984-10.562-23.547-23.547-23.547zm0 32.064c-4.696 0-8.517-3.821-8.517-8.517s3.821-8.517 8.517-8.517 8.517 3.821 8.517 8.517-3.82 8.517-8.517 8.517zm72.145-32.064c-12.984 0-23.547 10.563-23.547 23.547s10.563 23.547 23.547 23.547 23.547-10.563 23.547-23.547-10.563-23.547-23.547-23.547zm0 32.064c-4.696 0-8.517-3.821-8.517-8.517s3.821-8.517 8.517-8.517 8.517 3.821 8.517 8.517-3.82 8.517-8.517 8.517zm-72.145-96.193c-12.984 0-23.547 10.563-23.547 23.547s10.563 23.547 23.547 23.547 23.547-10.563 23.547-23.547c.001-12.983-10.562-23.547-23.547-23.547zm0 32.065c-4.696 0-8.517-3.821-8.517-8.517s3.821-8.517 8.517-8.517 8.517 3.821 8.517 8.517c.001 4.696-3.82 8.517-8.517 8.517zm0 96.193c-12.984 0-23.547 10.563-23.547 23.547s10.563 23.547 23.547 23.547 23.547-10.563 23.547-23.547c.001-12.984-10.562-23.547-23.547-23.547zm0 32.064c-4.696 0-8.517-3.821-8.517-8.517s3.821-8.517 8.517-8.517 8.517 3.821 8.517 8.517-3.82 8.517-8.517 8.517zm72.145-32.064c-12.984 0-23.547 10.563-23.547 23.547s10.563 23.547 23.547 23.547 23.547-10.563 23.547-23.547-10.563-23.547-23.547-23.547zm0 32.064c-4.696 0-8.517-3.821-8.517-8.517s3.821-8.517 8.517-8.517 8.517 3.821 8.517 8.517-3.82 8.517-8.517 8.517zm-144.289-96.193c-12.984 0-23.547 10.563-23.547 23.547s10.563 23.547 23.547 23.547 23.547-10.563 23.547-23.547-10.563-23.547-23.547-23.547zm0 32.064c-4.696 0-8.517-3.821-8.517-8.517s3.821-8.517 8.517-8.517 8.517 3.821 8.517 8.517-3.821 8.517-8.517 8.517zm0 32.065c-12.984 0-23.547 10.563-23.547 23.547s10.563 23.547 23.547 23.547 23.547-10.563 23.547-23.547-10.563-23.547-23.547-23.547zm0 32.064c-4.696 0-8.517-3.821-8.517-8.517s3.821-8.517 8.517-8.517 8.517 3.821 8.517 8.517-3.821 8.517-8.517 8.517z"/></svg>