<svg xmlns="http://www.w3.org/2000/svg" viewBox="0 0 64 64"><circle fill="#65C96C" cx="32" cy="32" r="12"/><circle fill="#65C96C" cx="11.5" cy="32.5" r="2.5"/><circle fill="#65C96C" cx="52.5" cy="32.5" r="2.5"/><path fill="#CFF28B" d="M63 25v14c-6.6 0-12 5.4-12 12H13c0-6.6-5.4-12-12-12V25c6.6 0 12-5.4 12-12h38c0 6.6 5.4 12 12 12zm-8 7.5c0-1.4-1.1-2.5-2.5-2.5S50 31.1 50 32.5s1.1 2.5 2.5 2.5 2.5-1.1 2.5-2.5zM44 32c0-6.6-5.4-12-12-12s-12 5.4-12 12 5.4 12 12 12 12-5.4 12-12zm-30 .5c0-1.4-1.1-2.5-2.5-2.5S9 31.1 9 32.5s1.1 2.5 2.5 2.5 2.5-1.1 2.5-2.5z"/><path fill="#65C96C" d="M63 39v12H51c0-6.6 5.4-12 12-12zM13 51H1V39c6.6 0 12 5.4 12 12zM1 13h12c0 6.6-5.4 12-12 12V13zm62 0v12c-6.6 0-12-5.4-12-12h12z"/><g fill="#2D2D2D"><path d="M63 12H1c-.6 0-1 .4-1 1v38c0 .6.4 1 1 1h62c.6 0 1-.4 1-1V13c0-.6-.4-1-1-1zM2 25.9c6.4-.5 11.5-5.6 11.9-11.9H50c.5 6.4 5.6 11.5 11.9 11.9V38c-6.4.5-11.5 5.6-11.9 11.9H13.9C13.5 43.6 8.4 38.5 2 38.1V25.9zm60-2c-5.3-.5-9.5-4.7-9.9-9.9H62v9.9zM11.9 14c-.5 5.3-4.7 9.5-9.9 9.9V14h9.9zM2 40.1c5.3.5 9.5 4.7 9.9 9.9H2v-9.9zM52.1 50c.5-5.3 4.7-9.5 9.9-9.9V50h-9.9z"/><path d="M32 45c7.2 0 13-5.8 13-13s-5.8-13-13-13-13 5.8-13 13 5.8 13 13 13zm0-24c6.1 0 11 4.9 11 11s-4.9 11-11 11-11-4.9-11-11 4.9-11 11-11z"/><path d="M31.6 33c.9.2 2.4.7 2.4 1.5s-.9 1.5-2 1.5c-1 0-1.9-.5-2-1.2-.1-.5-.7-.9-1.2-.7-.5.1-.9.7-.7 1.2.3 1.3 1.5 2.3 3 2.6V39c0 .6.4 1 1 1s1-.4 1-1v-1.1c1.7-.4 3-1.7 3-3.4s-1.3-2.9-4-3.5c-2-.5-2-1.2-2-1.5 0-.8.9-1.5 2-1.5 1 0 1.9.5 2 1.2.1.5.7.9 1.2.7.5-.1.9-.7.7-1.2-.3-1.3-1.5-2.3-3-2.6V25c0-.6-.4-1-1-1s-1 .4-1 1v1.1c-1.7.4-3 1.7-3 3.4 0 1.8 1.2 2.9 3.6 3.5zM15 32.5c0-1.9-1.6-3.5-3.5-3.5S8 30.6 8 32.5 9.6 36 11.5 36s3.5-1.6 3.5-3.5zm-5 0c0-.8.7-1.5 1.5-1.5s1.5.7 1.5 1.5-.7 1.5-1.5 1.5-1.5-.7-1.5-1.5zM52.5 36c1.9 0 3.5-1.6 3.5-3.5S54.4 29 52.5 29 49 30.6 49 32.5s1.6 3.5 3.5 3.5zm0-5c.8 0 1.5.7 1.5 1.5s-.7 1.5-1.5 1.5-1.5-.7-1.5-1.5.7-1.5 1.5-1.5z"/></g></svg>