<svg xmlns="http://www.w3.org/2000/svg" viewBox="0 0 64 64"><path fill="#FFF" d="M36.5 27.8v19.5c0 8.7-7 15.8-15.8 15.8S5 56 5 47.2V27.8C5 19 12.1 12 20.8 12c4.4 0 8.3 1.8 11.1 4.6 2.8 2.9 4.6 6.8 4.6 11.2zM23 31v-8c0-.5-.2-1-.6-1.4-.4-.4-.9-.6-1.4-.6-1.1 0-2 .9-2 2v8c0 1.1.9 2 2 2s2-.9 2-2z"/><path fill="#CCDBE2" d="M23 23v8c0 1.1-.9 2-2 2s-2-.9-2-2v-8c0-1.1.9-2 2-2 .5 0 1 .2 1.4.6.4.4.6.9.6 1.4z"/><g fill="#2C2C3D"><path d="M20.8 64C11.5 64 4 56.5 4 47.2V27.8C4 18.5 11.5 11 20.8 11c4.5 0 8.7 1.7 11.8 4.9 3.2 3.2 4.9 7.4 4.9 11.8v19.5C37.5 56.5 30 64 20.8 64zm0-51C12.6 13 6 19.6 6 27.8v19.5C6 55.4 12.6 62 20.8 62s14.8-6.6 14.8-14.8V27.8c0-3.9-1.5-7.6-4.3-10.4-2.9-2.9-6.6-4.4-10.5-4.4z"/><path d="M53 55c-1.9 0-3.6-.7-4.9-2-1.3-1.3-2.1-3.1-2.1-5V8.7C46 5.1 42.7 2 39 2H28.7C25 2 22 5 22 8.7V12c0 .6-.4 1-1 1s-1-.4-1-1V8.7C20 3.9 23.9 0 28.7 0H39c4.9 0 9 4 9 8.7V48c0 1.3.5 2.6 1.5 3.5 1 .9 2.2 1.5 3.5 1.5 2.8 0 5-2.2 5-5V22c0-.6.4-1 1-1s1 .4 1 1v26c0 3.9-3.1 7-7 7zM21 34c-1.7 0-3-1.3-3-3v-8c0-1.7 1.3-3 3-3 .8 0 1.6.3 2.1.9.6.5.9 1.3.9 2.1v8c0 1.7-1.3 3-3 3zm0-12c-.6 0-1 .4-1 1v8c0 .6.4 1 1 1s1-.4 1-1v-8c0-.3-.1-.5-.3-.7-.2-.2-.4-.3-.7-.3z"/></g></svg>