<svg xmlns="http://www.w3.org/2000/svg" viewBox="0 0 64 64"><path fill="#FF5F5F" d="M52 47c0 4.4 2.8 8.1 6.7 9.4-3.4-1.1-10.3-2-18.8-2.3-2.5-.1-5.1-.1-7.9-.1s-5.4 0-8 .2c-8.7.3-15.8 1.2-19 2.4 4.1-1.3 7-5.1 7-9.5v-1.9c5.2-.7 12.2-1.1 20-1.1s14.8.4 20 1.1V47z"/><path fill="#BEBECC" d="M28 5c0-2.2 1.8-4 4-4 1.1 0 2.1.5 2.8 1.2.7.7 1.2 1.7 1.2 2.8v2l-.1.4C34.7 7.1 33.3 7 32 7l-3.9.4L28 7V5zm12 49.2c-.3 4.1-3.8 7.3-8 7.3s-7.6-3.2-8-7.3c2.5-.1 5.2-.2 8-.2s5.4 0 8 .2z"/><path fill="#F7C331" d="M32 61.5V63c-16 0-29-2.8-29-5 0-.5.7-1 2-1.5 3.3-1.2 10.3-2 19-2.4.4 4.2 3.8 7.4 8 7.4z"/><path fill="#F7C331" d="M32 61.5c4.2 0 7.6-3.2 8-7.3 8.5.3 15.4 1.2 18.8 2.3 1.5.5 2.3 1 2.3 1.5 0 2.2-13 5-29 5l-.1-1.5z"/><path fill="#FCDA4F" d="M52 27v18.1c-5.2-.7-12.2-1.1-20-1.1s-14.8.4-20 1.1V27c0-5.5 2.2-10.5 5.9-14.1 2.7-2.7 6.3-4.7 10.2-5.5L32 7c1.3 0 2.7.1 3.9.4C45.1 9.2 52 17.3 52 27z"/><g fill="#2C2C3D"><path d="M36 8c-.6 0-1-.4-1-1V5c0-.8-.3-1.5-.9-2.1-.6-.6-1.3-.9-2.1-.9-1.7 0-3 1.3-3 3v2c0 .6-.4 1-1 1s-1-.4-1-1V5c0-2.8 2.2-5 5-5 1.3 0 2.6.5 3.5 1.5 1 .9 1.5 2.2 1.5 3.5v2c0 .6-.4 1-1 1zm-4 54.5c-4.7 0-8.6-3.6-9-8.3v-.7h2v.6c.3 3.6 3.4 6.4 7 6.4s6.7-2.8 7-6.4v-.6h2v.8c-.4 4.6-4.3 8.2-9 8.2z"/><path d="M32 64c-12.6 0-30-2.1-30-6 0-1.5 2-2.2 2.7-2.4 3.4-1.2 10.5-2.1 19.3-2.4 2.4-.1 5.1-.2 8-.2s5.6.1 8 .2c8.6.3 15.5 1.2 19 2.3 1.3.4 3 1.1 3 2.5 0 3.9-17.4 6-30 6zM4.1 58c1.7 1.5 12.7 4 27.9 4s26.2-2.5 27.9-4c-.2-.1-.6-.4-1.5-.6-3.3-1.1-10.2-1.9-18.5-2.2-2.4-.1-5.1-.2-7.9-.2s-5.5.1-7.9.2c-8.5.3-15.6 1.2-18.7 2.3-.7.2-1.1.4-1.3.5zM52 46.1h-.1C46.5 45.4 39.4 45 32 45s-14.5.4-19.9 1.1c-.5.1-1-.3-1.1-.9-.1-.5.3-1 .9-1.1C17.3 43.4 24.5 43 32 43s14.7.4 20.1 1.1c.5.1.9.6.9 1.1-.1.5-.5.9-1 .9z"/><path d="M5 57.5c-.4 0-.8-.3-1-.7-.2-.5.1-1.1.7-1.3C8.5 54.4 11 51 11 47V27c0-5.6 2.2-10.9 6.2-14.8 3-3 6.7-4.9 10.7-5.8l4-.4c1.6 0 2.9.1 4.2.4C45.9 8.4 53 17 53 27v20c0 3.8 2.4 7.2 6 8.5.1 0 .2.1.2.1l-.3 1-.3.9.3-.9-.4.9c-.1 0-.2-.1-.3-.1C54 55.9 51 51.7 51 47V27c0-9-6.4-16.8-15.3-18.6-1.2-.3-2.4-.4-3.7-.4l-3.8.4c-3.6.7-6.9 2.5-9.6 5.2C15 17.2 13 21.9 13 27v20c0 4.8-3.1 9.1-7.7 10.5H5z"/></g></svg>