<svg xmlns="http://www.w3.org/2000/svg" viewBox="0 0 64 64"><path fill="#F4824A" d="M31 22h.5c2.4 0 4.4-.8 5.2-2l1.3-2.6c.9.5 1.8 1 2.9 1.2 2.9.8 5.9.1 8-.7l.1.4c4.8 4.7 7.8 11.3 7.8 18.6 0 14.3-11.6 25.9-25.9 25.9C16.6 62.8 5 51.2 5 36.9 5 22.6 16.6 11 30.9 11H32v.1c-1.3 5.2-1 9.9-1 9.9v1z"/><path fill="#6DE283" d="M43.4 8.9c5.6 1.5 8.9 7.5 8.9 7.5s-1.3.9-3.4 1.6c-2.2.8-5.1 1.4-8 .7-1-.3-2-.7-2.9-1.2-3.8-2.3-6-6.3-6-6.3s5.8-3.7 11.4-2.3z"/><path fill="#F4824A" d="M38 17.4L36.7 20c-.8 1.2-2.8 2-5.2 2H31v-.9s-.3-4.7 1-9.9c0 0 2.2 4 6 6.2z"/><g fill="#2C2C3D"><path d="M30.9 63.8C16.1 63.8 4 51.8 4 36.9 4 22.1 16.1 10 30.9 10H32c.6 0 1 .5 1 1 0 .6-.5 1-1 1h-1.1C17.2 12 6 23.2 6 36.9s11.2 24.9 24.9 24.9 24.9-11.2 24.9-24.9c0-6.8-2.7-13.1-7.5-17.9-.4-.4-.4-1 0-1.4.4-.4 1-.4 1.4 0 5.2 5.1 8.1 12 8.1 19.3 0 14.9-12 26.9-26.9 26.9z"/><path d="M43.6 20c-1 0-2-.1-3-.4-1.1-.3-2.1-.7-3.2-1.3-4-2.4-6.2-6.5-6.3-6.6-.2-.5-.1-1 .3-1.3.2-.1 4.3-2.7 9.2-2.7 1 0 2 .1 3 .4 6 1.6 9.3 7.7 9.5 8 .2.5.1 1-.3 1.3-.1 0-1.5.9-3.6 1.7-1.9.5-3.8.9-5.6.9zm-10.2-8.5c.8 1.2 2.6 3.6 5.1 5 .9.5 1.7.9 2.6 1.1 2.2.6 4.7.3 7.4-.6 1-.3 1.7-.7 2.3-1-1.1-1.6-3.8-5.1-7.7-6.2-.8-.2-1.6-.3-2.5-.3-3 .1-5.8 1.3-7.2 2z"/><path d="M31 22c-.5 0-1-.4-1-.9 0-.2-.3-4.9 1-10.2v-.1c1.2-4.7 3.4-8.3 6.4-10.6.4-.3 1.1-.3 1.4.2.3.4.3 1.1-.2 1.4C36 3.9 34.1 7 33 11.3v.1c-1.3 4.9-1 9.5-1 9.6 0 .5-.4 1-1 1z"/><path d="M31.5 23h-.7c-2.4-.1-4.5-1.1-5.4-2.4-.3-.5-.2-1.1.3-1.4.5-.3 1.1-.2 1.4.3.4.7 1.8 1.4 3.9 1.5h.5c2.2 0 3.9-.8 4.4-1.5.3-.5.9-.6 1.4-.3.5.3.6.9.3 1.4-1 1.4-3.4 2.4-6.1 2.4z"/></g></svg>