<svg xmlns="http://www.w3.org/2000/svg" viewBox="0 0 64 64"><path fill="#E1E5EA" d="M30.9 50L19 61l5-16z"/><path fill="#FF6A4D" d="M63 3L24 45l-5 16-3-22z"/><path fill="#FFF" d="M30.9 50L24 45 63 3 46 61zM63 3L16 39 1 27z"/><path fill="#2D2D2D" d="M64 3c0-.1 0-.2-.1-.3v-.1c0-.1-.1-.1-.1-.2v-.1c-.1-.1-.2-.1-.2-.2-.1 0-.2-.1-.3-.1h-.5L.8 26c-.3.1-.6.4-.6.8-.1.4.1.7.4.9l14.7 11.8L18 61.1c0 .1 0 .2.1.3 0 0 0 .1.1.1.1.2.3.4.5.4h.4c.1 0 .3 0 .4-.1.1 0 .1-.1.2-.1l.1-.1L31 51.3l14.4 10.5c.2.1.4.2.6.2.1 0 .2 0 .3-.1.3-.1.5-.4.6-.7l17-58c.1 0 .1-.1.1-.2zm-7.2 3.5L16 37.7 3 27.3 56.8 6.5zM19.4 56.4l-2.3-17L54.2 11l-31 33.3c0 .1-.1.1-.1.2 0 0 0 .1-.1.1l-3.6 11.8zm1.7 1.4l3.5-11.1 4.8 3.5-8.3 7.6zm24.3 1.6l-13.6-9.9v-.1c-.1-.2-.3-.2-.5-.3l-5.8-4.2L60.8 6.8 45.4 59.4z"/></svg>