<svg xmlns="http://www.w3.org/2000/svg" viewBox="0 0 64 64"><path fill="#6DE283" d="M29.6 5.2C33.8 8.9 34 15.6 34 15.6s-6.6.7-10.8-3C19 8.9 18.8 2.2 18.8 2.2s6.6-.7 10.8 3z"/><path fill="#C3D659" d="M34.1 16c.4 0 .8.1 1.2.1 5.3.9 9.1 5.9 9.1 11.4v.5c0 3.6 1.4 6.9 3.7 9.6 2.4 2.8 3.8 6.5 3.6 10.5-.2 6.1-4.3 11.4-9.9 13.5-3.1 1.1-5.9 1.1-8.5.4-2.6.7-5.5.8-8.5-.4-5.6-2.1-9.7-7.4-9.9-13.5-.2-4.1 1.3-7.8 3.7-10.6 2.3-2.7 3.8-6.1 3.8-9.7v-.7c.1-6.3 5.4-11.5 11.7-11.1z"/><g fill="#2C2C3D"><path d="M37.2 63.6c-1.2 0-2.5-.2-3.8-.5-3 .8-6 .6-8.9-.5-6.1-2.3-10.3-8.1-10.5-14.4-.2-4.2 1.3-8.2 4-11.3 2.3-2.6 3.5-5.8 3.5-9v-.7c0-7 5.8-12.6 12.7-12.2.4 0 .9.1 1.4.2 5.7 1 9.9 6.2 9.9 12.4v.4c0 3.2 1.2 6.4 3.5 9 2.7 3.1 4.1 7.1 3.9 11.2-.3 6.4-4.4 12.1-10.5 14.4-1.8.6-3.5 1-5.2 1zM33.4 61h.3c1.2.3 2.4.5 3.5.5 1.5 0 3-.3 4.4-.8 5.3-2 9-7 9.2-12.6.2-3.6-1.1-7.1-3.4-9.8-2.6-3-4-6.6-4-10.3v-.5c0-5.1-3.5-9.6-8.3-10.4-.4-.1-.8-.1-1.1-.1h-.6c-5.5 0-10 4.6-10 10.2v.7c0 3.7-1.4 7.3-4 10.3-2.4 2.7-3.6 6.2-3.5 9.9.2 5.6 3.9 10.6 9.2 12.6 2.6 1 5.2 1.1 7.9.3.3.1.3 0 .4 0z"/><path d="M32.8 16.6c-2.4 0-7-.4-10.3-3.3C18 9.4 17.8 2.5 17.8 2.2c0-.5.4-1 .9-1 0 0 .5-.1 1.3-.1 2.4 0 7 .4 10.3 3.3 4.4 4 4.7 10.9 4.7 11.2 0 .5-.4 1-.9 1h-1.3zM19.9 3.2c.2 1.9 1.1 6.1 4 8.6 3 2.6 7.4 2.8 9.1 2.8-.2-1.9-1.1-6.1-4-8.6-3-2.6-7.4-2.8-9.1-2.8z"/><path d="M34 22c-.5 0-1-.4-1-.9 0-.1-.2-2.2.1-5.2.5-5 2.1-11.7 7.2-15.7.4-.3 1.1-.3 1.4.2.3.4.3 1.1-.2 1.4-4.5 3.5-6 9.8-6.5 14.3-.1 2.8 0 4.8 0 4.9 0 .5-.4 1-1 1z"/><path d="M33.8 22.2c-1.8 0-3.4-.6-4-1.7-.3-.5-.2-1.1.3-1.4.5-.3 1.1-.2 1.4.3.2.3 1 .8 2.4.8 1.3 0 2.1-.4 2.3-.8.3-.5.9-.6 1.4-.3.5.3.6.9.3 1.4-.7 1.1-2.3 1.7-4.1 1.7z"/></g></svg>