<svg xmlns="http://www.w3.org/2000/svg" viewBox="0 0 64 64"><path fill="#F9C953" d="M57 10v26c0 15.7-25 27-25 27S7 51.7 7 36V11c8.1 0 19.1-4.1 25-10 5 5.8 16.9 9 25 9zM27 43l20-20-4-4-16 16-4-4-4 4 8 8z"/><path fill="#FFF" d="M47 23L27 43l-8-8 4-4 4 4 16-16z"/><g fill="#2C2C3D"><path d="M32 64c-.1 0-.3 0-.4-.1C30.5 63.4 6 52.1 6 36V11c0-.6.4-1 1-1 8.2 0 18.8-4.3 24.3-9.7.2-.2.5-.3.7-.3.3 0 .5.1.7.3C37.4 5.7 49 9 57 9c.6 0 1 .4 1 1v26c0 6.7-4.5 13.7-12.9 20.2-6.3 4.8-12.4 7.6-12.7 7.7-.1.1-.3.1-.4.1zM8 12v24c0 13.8 20.8 24.3 24 25.9 3.2-1.6 24-12.1 24-25.9V11c-8.2-.2-18.8-3.4-24-8.6-5.8 5.3-15.8 9.3-24 9.6z"/><path d="M27 44c-.3 0-.5-.1-.7-.3l-8-8c-.4-.4-.4-1 0-1.4l4-4c.4-.4 1-.4 1.4 0l3.3 3.3 15.3-15.3c.4-.4 1-.4 1.4 0l4 4c.4.4.4 1 0 1.4l-20 20c-.2.2-.4.3-.7.3zm-6.6-9l6.6 6.6L45.6 23 43 20.4 27.7 35.7c-.4.4-1 .4-1.4 0L23 32.4 20.4 35z"/></g></svg>