<svg xmlns="http://www.w3.org/2000/svg" viewBox="0 0 64 64"><path fill="#FFB43B" d="M23.5 24c1.7 0 3 1.3 3 3s-1.3 3-3 3-3-1.3-3-3 1.3-3 3-3zm18 0c1.7 0 3 1.3 3 3s-1.3 3-3 3-3-1.3-3-3 1.3-3 3-3zM51 10.8l3.5 4.2H47V6zm-38 0L17 6v9H9.5z"/><path fill="#FFB43B" d="M47 6v9H17V6l-4-5h38z"/><path fill="#FF5F5F" d="M13 1l4 5-4 4.8zm28.5 29c1.7 0 3-1.3 3-3s-1.3-3-3-3-3 1.3-3 3 1.3 3 3 3zm-18 0c1.7 0 3-1.3 3-3s-1.3-3-3-3-3 1.3-3 3 1.3 3 3 3zm31-15L57 63H7l2.5-48h45zM51 1v9.8L47 6z"/><g fill="#2C2C3D"><path d="M57 64H7c-.3 0-.5-.1-.7-.3-.2-.2-.3-.5-.3-.8l2.5-48c0-.5.5-.9 1-.9h45c.5 0 1 .4 1 .9L58 62.7v.3c0 .6-.4 1-1 1zM8.1 62H56l-2.4-46H10.4L8.1 62z"/><path d="M23.5 31c-2.2 0-4-1.8-4-4s1.8-4 4-4 4 1.8 4 4-1.8 4-4 4zm0-6c-1.1 0-2 .9-2 2s.9 2 2 2 2-.9 2-2-.9-2-2-2zm18 6c-2.2 0-4-1.8-4-4s1.8-4 4-4 4 1.8 4 4-1.8 4-4 4zm0-6c-1.1 0-2 .9-2 2s.9 2 2 2 2-.9 2-2-.9-2-2-2z"/><path d="M32.6 45c-5.5 0-9.9-4.5-9.9-9.9V30c0-.6.4-1 1-1s1 .4 1 1v5.1c0 4.4 3.6 7.9 7.9 7.9 2.1 0 4.1-.8 5.6-2.3 1.5-1.5 2.3-3.5 2.3-5.6V30c0-.6.4-1 1-1s1 .4 1 1v5.1c0 2.6-1 5.1-2.9 7s-4.4 2.9-7 2.9zM9.5 16c-.2 0-.5-.1-.6-.2-.4-.4-.5-1-.1-1.4l7.5-9c.3-.3.7-.4 1.1-.3.3.1.6.5.6.9v9c0 .6-.4 1-1 1s-1-.4-1-1V8.8l-5.7 6.9c-.2.2-.5.3-.8.3zm45 0c-.3 0-.6-.1-.8-.4L48 8.8V15c0 .6-.4 1-1 1s-1-.4-1-1V6c0-.4.3-.8.7-.9.4-.1.8 0 1.1.3l7.5 9c.4.4.3 1.1-.1 1.4-.2.1-.5.2-.7.2z"/><path d="M14 11h-2V1c0-.4.3-.8.7-.9.4-.1.8 0 1.1.3l4 5-1.6 1.2L14 3.9V11zm38 0h-2V3.9l-2.2 2.8-1.6-1.2 4-5c.3-.3.7-.5 1.1-.3.4 0 .7.4.7.8v10z"/><path d="M51 2H13c-.6 0-1-.4-1-1s.4-1 1-1h38c.6 0 1 .4 1 1s-.4 1-1 1z"/></g></svg>