<svg xmlns="http://www.w3.org/2000/svg" xmlns:xlink="http://www.w3.org/1999/xlink" viewBox="0 0 200 200"><image width="450" height="450" xlink:href="8CE6737D.jpg" transform="translate(-8378 -8122.5)" overflow="visible"/><image width="450" height="450" xlink:href="8CE6737F.jpg" transform="matrix(.275 0 0 .275 -1107.816 -463.033)" overflow="visible"/><image width="240" height="240" xlink:href="8CE6737A.jpg" transform="translate(-1463.537 -454.413) scale(.2576)" overflow="visible"/><image width="278" height="464" xlink:href="8CE6737B.jpg" transform="translate(-1365.942 -470.712) scale(.2057)" overflow="visible"/><path d="M-1337.522-432.611c-.313 1.615-3.135 2.471-1.23 4.943 1.403-1.471 2.917-1.736 1.688-4.943" fill="#f78f27"/><g fill="#7f7f7f"><path d="M-1201.896-485.292l-.354-.354c-.672-.671-16.457-16.553-16.457-25.664 0-9.269 7.541-16.81 16.81-16.81s16.81 7.541 16.81 16.81c0 9.11-15.785 24.992-16.457 25.664l-.352.354zm0-41.826c-8.718 0-15.81 7.092-15.81 15.81 0 7.972 13.441 22.158 15.81 24.596 2.369-2.438 15.81-16.625 15.81-24.596 0-8.718-7.093-15.81-15.81-15.81z"/><circle cx="-1201.944" cy="-527.618" r="2.817"/><circle cx="-1209.405" cy="-525.386" r="2.817"/><circle cx="-1215.04" cy="-520.568" r="2.817"/><circle cx="-1218.141" cy="-513.117" r="2.817"/><circle cx="-1216.436" cy="-505.209" r="2.817"/><circle cx="-1212.206" cy="-498.294" r="2.817"/><circle cx="-1207.242" cy="-491.938" r="2.817"/><circle cx="-1202.053" cy="-486.491" r="2.248"/><circle cx="-1194.48" cy="-525.386" r="2.817"/><circle cx="-1188.845" cy="-520.568" r="2.817"/><circle cx="-1185.745" cy="-513.117" r="2.817"/><circle cx="-1187.45" cy="-505.209" r="2.817"/><circle cx="-1191.679" cy="-498.294" r="2.817"/><circle cx="-1196.644" cy="-491.938" r="2.817"/><path d="M-1200.668-481.955h-2.769a.864.864 0 0 1-.864-.864v-.268c0-.477.387-.864.864-.864h2.769c.477 0 .864.387.864.864v.268a.865.865 0 0 1-.864.864z"/><path d="M-1202.553-486.491h1v2.911h-1zm.218 2.911c-.426 2.196-4.261 3.359-1.672 6.719 1.907-1.999 3.966-2.36 2.294-6.719"/></g><path d="M-1447.181-511.308c0 9.008-16.31 25.31-16.31 25.31s-16.31-16.302-16.31-25.31 7.302-16.31 16.31-16.31 16.31 7.302 16.31 16.31z" fill="none" stroke="#f78f27" stroke-miterlimit="10"/><g fill="#f78f27"><circle cx="-1463.538" cy="-527.618" r="2.817"/><circle cx="-1471" cy="-525.386" r="2.817"/><circle cx="-1476.635" cy="-520.568" r="2.817"/><circle cx="-1479.735" cy="-513.117" r="2.817"/><circle cx="-1478.03" cy="-505.209" r="2.817"/><circle cx="-1473.801" cy="-498.294" r="2.817"/><circle cx="-1468.836" cy="-491.938" r="2.817"/><circle cx="-1463.647" cy="-486.491" r="2.248"/></g><g fill="#f78f27"><circle cx="-1456.074" cy="-525.386" r="2.817"/><circle cx="-1450.44" cy="-520.568" r="2.817"/><circle cx="-1447.339" cy="-513.117" r="2.817"/><circle cx="-1449.044" cy="-505.209" r="2.817"/><circle cx="-1453.274" cy="-498.294" r="2.817"/><circle cx="-1458.238" cy="-491.938" r="2.817"/></g><path d="M-1462.263-481.955h-2.769a.864.864 0 0 1-.864-.864v-.268c0-.477.387-.864.864-.864h2.769c.477 0 .864.387.864.864v.268a.864.864 0 0 1-.864.864z" fill="#f78f27"/><path fill="none" stroke="#f78f27" stroke-miterlimit="10" d="M-1463.647-486.491v2.911"/><path d="M-1463.929-483.58c-.426 2.196-4.261 3.359-1.672 6.719 1.907-1.999 3.966-2.36 2.294-6.719" fill="#f78f27"/><image width="303" height="139" xlink:href="8CE67385.jpg" transform="matrix(.286 0 0 .286 -1396.755 -547.496)" overflow="visible"/><image width="1436" height="709" xlink:href="8CE67387.jpg" transform="translate(-618 -1306.806)" overflow="visible"/><g fill="#7f7f7f"><path d="M100.151 160.027l-1.156-1.156c-2.197-2.195-53.812-54.128-53.812-83.918 0-30.309 24.659-54.966 54.968-54.966s54.968 24.657 54.968 54.966c0 29.79-51.615 81.723-53.812 83.918l-1.156 1.156zm0-136.771c-28.507 0-51.698 23.191-51.698 51.696 0 26.067 43.951 72.456 51.698 80.428 7.747-7.972 51.698-54.361 51.698-80.428 0-28.505-23.191-51.696-51.698-51.696z"/><circle cx="99.997" cy="21.62" r="9.213"/><circle cx="75.598" cy="28.921" r="9.213"/><circle cx="57.172" cy="44.675" r="9.213"/><circle cx="47.033" cy="69.038" r="9.213"/><circle cx="52.609" cy="94.898" r="9.213"/><circle cx="66.439" cy="117.51" r="9.213"/><circle cx="82.673" cy="138.292" r="9.213"/><circle cx="99.64" cy="156.106" r="7.352"/><circle cx="124.402" cy="28.921" r="9.213"/><circle cx="142.828" cy="44.675" r="9.213"/><circle cx="152.967" cy="69.038" r="9.213"/><circle cx="147.391" cy="94.898" r="9.213"/><circle cx="133.561" cy="117.51" r="9.213"/><circle cx="117.327" cy="138.292" r="9.213"/><path d="M104.168 170.936h-9.055a2.824 2.824 0 0 1-2.824-2.824v-.877a2.824 2.824 0 0 1 2.824-2.824h9.055a2.824 2.824 0 0 1 2.824 2.824v.877a2.824 2.824 0 0 1-2.824 2.824z"/><path d="M98.006 156.105h3.27v9.518h-3.27zm.713 9.518c-1.393 7.18-13.932 10.985-5.466 21.969 6.235-6.537 12.967-7.716 7.502-21.969"/></g></svg>