<svg xmlns="http://www.w3.org/2000/svg" viewBox="0 0 64 64"><path fill="#C18476" d="M8 19h47.7c4 0 7.3 3.3 7.3 7.3v8.2H52.7c-1.6 0-3 .6-4 1.6S47 38.5 47 40c0 3 2.6 5.5 5.7 5.5H63v6.2c0 4-3.3 7.3-7.3 7.3H8.3c-4 0-7.3-3.3-7.3-7.3V12c0 3.5 2.6 6.4 6 6.9.3.1.7.1 1 .1z"/><path fill="#4EB550" d="M53 11v8H8c-.3 0-.7 0-1-.1V11h46z"/><path fill="#9B655C" d="M53 38c-1.1 0-2 .9-2 2s.9 2 2 2 2-.9 2-2-.9-2-2-2zm-6 2c0-1.5.6-2.9 1.7-3.9 1-1 2.5-1.6 4-1.6H63v11H52.7C49.6 45.5 47 43 47 40z"/><path fill="#FCDA4F" d="M55 40c0 1.1-.9 2-2 2s-2-.9-2-2 .9-2 2-2 2 .9 2 2z"/><path fill="#9B655C" d="M7 11v7.9c-3.4-.5-6-3.4-6-6.9 0-2 .8-3.7 2.1-5 1.3-1.2 3-2 5-2h43c3.3 0 6 2.6 6 5.9V19H53v-8H7z"/><g fill="#2C2C3D"><path d="M55.7 60H8.3C3.7 60 0 56.3 0 51.7V12c0-.6.4-1 1-1s1 .4 1 1v39.7C2 55.2 4.8 58 8.3 58h47.3c3.5 0 6.3-2.8 6.3-6.3V26.3c0-3.5-2.8-6.3-6.3-6.3-.6 0-1-.4-1-1s.4-1 1-1c4.6 0 8.3 3.7 8.3 8.3v25.3c.1 4.7-3.6 8.4-8.2 8.4z"/><path d="M57 20H8c-.4 0-.8 0-1.2-.1C3 19.3 0 15.9 0 12c0-2.2.8-4.2 2.4-5.7C3.9 4.8 5.9 4 8 4h43c3.9 0 7 3.1 7 6.9V19c0 .6-.4 1-1 1zM8 6c-1.6 0-3.1.6-4.2 1.7C2.6 8.9 2 10.4 2 12c0 3 2.2 5.5 5.1 6H56v-7.1C56 8.2 53.8 6 51 6H8zm55 40.5H52.7C49 46.5 46 43.6 46 40c0-1.7.7-3.4 2-4.6 1.3-1.2 2.9-1.9 4.7-1.9H63c.6 0 1 .4 1 1s-.4 1-1 1H52.7c-1.2 0-2.4.5-3.3 1.3-.9.9-1.4 2-1.4 3.2 0 2.5 2.1 4.5 4.7 4.5H63c.6 0 1 .4 1 1s-.4 1-1 1z"/><path d="M53 43c-1.7 0-3-1.3-3-3s1.3-3 3-3 3 1.3 3 3-1.3 3-3 3zm0-4c-.6 0-1 .4-1 1s.4 1 1 1 1-.4 1-1-.4-1-1-1zm1-20h-2v-7H8v6.9L6 19v-8c0-.6.4-1 1-1h46c.6 0 1 .4 1 1v8zm2 6h-4c-.6 0-1-.4-1-1s.4-1 1-1h4c.6 0 1 .4 1 1s-.4 1-1 1zm-9 0h-4c-.6 0-1-.4-1-1s.4-1 1-1h4c.6 0 1 .4 1 1s-.4 1-1 1zm-9 0h-4c-.6 0-1-.4-1-1s.4-1 1-1h4c.6 0 1 .4 1 1s-.4 1-1 1zm-9 0h-4c-.6 0-1-.4-1-1s.4-1 1-1h4c.6 0 1 .4 1 1s-.4 1-1 1zm-9 0h-4c-.6 0-1-.4-1-1s.4-1 1-1h4c.6 0 1 .4 1 1s-.4 1-1 1zm-9 0H7c-.6 0-1-.4-1-1s.4-1 1-1h4c.6 0 1 .4 1 1s-.4 1-1 1zm45 30h-4c-.6 0-1-.4-1-1s.4-1 1-1h4c.6 0 1 .4 1 1s-.4 1-1 1zm-9 0h-4c-.6 0-1-.4-1-1s.4-1 1-1h4c.6 0 1 .4 1 1s-.4 1-1 1zm-9 0h-4c-.6 0-1-.4-1-1s.4-1 1-1h4c.6 0 1 .4 1 1s-.4 1-1 1zm-9 0h-4c-.6 0-1-.4-1-1s.4-1 1-1h4c.6 0 1 .4 1 1s-.4 1-1 1zm-9 0h-4c-.6 0-1-.4-1-1s.4-1 1-1h4c.6 0 1 .4 1 1s-.4 1-1 1zm-9 0H7c-.6 0-1-.4-1-1s.4-1 1-1h4c.6 0 1 .4 1 1s-.4 1-1 1z"/></g></svg>