<svg xmlns="http://www.w3.org/2000/svg" viewBox="0 0 64 64"><path fill="#499EF2" d="M24 63c-2.2 0-4-1.8-4-4v-8c0-2.2 1.8-4 4-4h16c2.2 0 4 1.8 4 4v8c0 2.2-1.8 4-4 4H24zm18.1-20.6V47H22v-4.6h20.1zm0-4.3H22v-4.3h20.1v4.3zm-20.1 0h20.1v4.3H22zm20.1-8.7H22V25h20.1v4.4z"/><path fill="#E3F0FC" d="M43 19.9c0 1.8-.3 3.6-.9 5.1H22c-.6-1.6-.9-3.3-.9-5.1 0-5.2 2.6-9.6 6.4-11.7 1.4-.8 3-1.2 4.6-1.2 1.6 0 3.2.4 4.6 1.2 3.7 2 6.3 6.5 6.3 11.7z"/><path fill="#499EF2" d="M22 29.4h20.1v4.4H22z"/><path fill="#F9D05F" d="M36.8 1v7l-.1.2c-1.4-.8-3-1.2-4.6-1.2-1.6 0-3.2.4-4.6 1.2l-.1-.2V1h9.4z"/><g fill="#2C2C3D"><path d="M40 64H24c-2.8 0-5-2.2-5-5v-8c0-2.8 2.2-5 5-5 .6 0 1 .4 1 1s-.4 1-1 1c-1.7 0-3 1.3-3 3v8c0 1.7 1.3 3 3 3h16c1.7 0 3-1.3 3-3v-8c0-1.7-1.3-3-3-3-.6 0-1-.4-1-1s.4-1 1-1c2.8 0 5 2.2 5 5v8c0 2.8-2.3 5-5 5z"/><path d="M42.1 48H22c-.6 0-1-.4-1-1V25c0-.6.4-1 1-1s1 .4 1 1v21h18.1V25c0-.6.4-1 1-1s1 .4 1 1v22c0 .6-.4 1-1 1z"/><path d="M42.1 26H22c-.4 0-.8-.3-.9-.7-.7-1.7-1-3.6-1-5.5 0-5.4 2.7-10.3 6.9-12.5 3.2-1.7 7-1.7 10.1 0 4.2 2.3 6.9 7.2 6.9 12.5 0 1.9-.3 3.7-1 5.5-.1.4-.5.7-.9.7zm-19.3-2h18.6c.4-1.3.6-2.7.6-4.1 0-4.6-2.3-8.9-5.8-10.8-2.6-1.4-5.6-1.4-8.2 0-3.5 1.9-5.8 6.2-5.8 10.8-.1 1.4.1 2.8.6 4.1z"/><path d="M36.8 9c-.6 0-1-.4-1-1V2h-7.4v6c0 .6-.4 1-1 1s-1-.4-1-1V1c0-.6.4-1 1-1h9.4c.6 0 1 .4 1 1v7c0 .6-.5 1-1 1zm5.3 21.4H22.2c-.6 0-1-.4-1-1s.4-1 1-1h19.9c.6 0 1 .4 1 1s-.5 1-1 1zm0 4.4H22.2c-.6 0-1-.4-1-1s.4-1 1-1h19.9c.6 0 1 .4 1 1s-.5 1-1 1zm0 4.3H22.2c-.6 0-1-.4-1-1s.4-1 1-1h19.9c.6 0 1 .4 1 1s-.5 1-1 1zm0 4.3H22.2c-.6 0-1-.4-1-1s.4-1 1-1h19.9c.6 0 1 .4 1 1s-.5 1-1 1z"/></g></svg>