<svg xmlns="http://www.w3.org/2000/svg" viewBox="0 0 64 64"><path fill="#C94357" d="M49 20l.7-.1.3 2.1c0 11-8.1 18-18 18s-18-7-18-18l.3-2.1.7.1h34z"/><path fill="#2C2C3D" d="M32 41c-11 0-19-8-19-19v-.1l3-21c.1-.5.5-.9 1-.9h30c.5 0 .9.4 1 .9l3 21v.1c0 11-8 19-19 19zM15 22.1C15 31.9 22.2 39 32 39s17-7.1 17-16.9L46.1 2H17.9L15 22.1z"/><path fill="#2C2C3D" d="M32 64c-.6 0-1-.4-1-1V40c0-.6.4-1 1-1s1 .4 1 1v23c0 .6-.4 1-1 1z"/><path fill="#2C2C3D" d="M43 64H21c-.6 0-1-.4-1-1s.4-1 1-1h22c.6 0 1 .4 1 1s-.4 1-1 1zm6-43H15c-.6 0-1-.4-1-1s.4-1 1-1h34c.6 0 1 .4 1 1s-.4 1-1 1z"/></svg>