<svg xmlns="http://www.w3.org/2000/svg" viewBox="0 0 64 64"><path fill="#C94357" d="M43 30.8V63H21v-7h9V32h-9v-1.2c0-3.7 2.5-8.1 6-8.8v-7h10v7c3.9.4 6 4.9 6 8.8z"/><path fill="#EAEAEA" d="M21 32h9v24h-9z"/><path fill="#F9E385" d="M37.1 1L37 15H27V1z"/><g fill="#2C2C3D"><path d="M37 16H27c-.6 0-1-.4-1-1s.4-1 1-1h10c.6 0 1 .4 1 1s-.4 1-1 1z"/><path d="M43 64H21c-.6 0-1-.4-1-1V30.8c0-3.8 2.4-8.3 6-9.6V1c0-.6.4-1 1-1h10.1c.3 0 .5.1.7.3s.3.4.3.7L38 21.2c3.9 1 6 5.5 6 9.7V63c0 .6-.4 1-1 1zm-21-2h20V30.8c0-3.6-1.9-7.5-5.1-7.8-.5 0-.9-.5-.9-1l.1-20H28v20c0 .5-.3.9-.8 1-3 .6-5.2 4.6-5.2 7.8V62z"/><path d="M30 57h-9c-.6 0-1-.4-1-1V32c0-.6.4-1 1-1h9c.6 0 1 .4 1 1v24c0 .5-.4 1-1 1zm-8-2h7V33h-7v22z"/></g></svg>