<svg xmlns="http://www.w3.org/2000/svg" viewBox="0 0 64 64"><path fill="#B8CAD1" d="M61.8 8.8c2.3 5 1.4 11.2-2.6 15.4-3.9 4-9.5 5-14.3 3l-18.1 18c1.5 4.7.4 10.1-3.2 13.8-4 4.1-9.9 5-14.8 2.8l7.8-7.9c1.8-1.8 1.8-4.8 0-6.6-1.8-1.8-4.8-1.8-6.6 0l-7.8 7.8C0 50.1.8 44 4.9 39.8c4-4.1 9.8-5 14.6-2.8l17.8-17.9c-1.6-4.8-.6-10.3 3.2-14.1 4-4.1 9.9-5 14.8-2.8l-6.9 6.9c-1.8 1.8-1.8 4.8 0 6.6 1.8 1.8 4.8 1.8 6.6 0l6.8-6.9zM40.9 25.2c0-.5-.2-1-.6-1.4-.8-.8-2-.8-2.8 0L23.6 37.6c-.4.4-.6.9-.6 1.4 0 .5.2 1 .6 1.4.8.8 2 .8 2.8 0l13.9-13.9c.4-.3.6-.8.6-1.3z"/><path fill="#8499A3" d="M40.3 26.6L26.4 40.5c-.8.8-2 .8-2.8 0-.4-.4-.6-.9-.6-1.5 0-.5.2-1 .6-1.4l13.9-13.9c.8-.8 2-.8 2.8 0 .4.4.6.9.6 1.4 0 .6-.2 1.1-.6 1.5z"/><g fill="#2C2C3D"><path d="M14.2 64c-2 0-4-.4-5.9-1.3-.3-.1-.5-.4-.6-.7s0-.6.3-.9l7.8-7.9c1.4-1.4 1.4-3.7 0-5.2-1.4-1.4-3.8-1.4-5.2 0L3 55.9c-.2.2-.6.3-.9.3-.3-.1-.6-.3-.7-.6C-1.2 50-.1 43.4 4.1 39.1c2.7-2.8 6.2-4.3 10-4.3 1.8 0 3.5.3 5.1 1l16.9-17c-1.5-5.1-.2-10.8 3.5-14.6C42.4 1.5 46 0 49.8 0c2 0 4 .4 5.9 1.3.3.1.5.4.6.7.1.3 0 .7-.3.9l-6.9 6.9c-.7.7-1.1 1.6-1.1 2.6s.4 1.9 1.1 2.6c1.4 1.4 3.8 1.4 5.2 0L61 8.1c.2-.2.6-.3.9-.3.3.1.6.3.7.6 2.5 5.5 1.4 12.2-2.8 16.5-2.7 2.8-6.2 4.3-10 4.3-1.6 0-3.2-.3-4.7-.8L27.9 45.5c1.4 5.1 0 10.5-3.6 14.2C21.6 62.5 18 64 14.2 64zm-3.6-2.6c1.2.4 2.4.6 3.7.6 3.2 0 6.3-1.3 8.6-3.7 3.3-3.4 4.4-8.3 3-12.8-.1-.4 0-.7.2-1l18.1-18.1c.3-.3.7-.4 1.1-.2 1.5.6 3 .9 4.6.9 3.2 0 6.3-1.3 8.6-3.7 3.3-3.4 4.4-8.4 3-12.9l-5.7 5.7c-1.1 1.1-2.5 1.7-4 1.7s-2.9-.6-4-1.7-1.7-2.5-1.7-4 .6-2.9 1.7-4l5.8-5.8C52.3 2.2 51 2 49.8 2c-3.3 0-6.3 1.3-8.6 3.7-3.3 3.4-4.4 8.6-2.9 13.1.1.4 0 .8-.2 1L20.2 37.7c-.3.3-.7.4-1.1.2-1.6-.7-3.2-1.1-4.9-1.1-3.2 0-6.3 1.3-8.6 3.7-3.3 3.4-4.4 8.4-3 12.9l6.7-6.7c1.1-1.1 2.5-1.7 4-1.7s2.9.6 4 1.7c2.2 2.2 2.2 5.8 0 8l-6.7 6.7z"/><path d="M25 42c-.8 0-1.6-.3-2.1-.9-.6-.5-.9-1.3-.9-2.1s.3-1.5.9-2.1L36.8 23c1.1-1.1 3.1-1.1 4.2 0 .6.6.9 1.3.9 2.1s-.3 1.6-.9 2.1l-13.9 14c-.5.5-1.3.8-2.1.8zm13.9-17.8c-.3 0-.5.1-.7.3L24.3 38.3c-.2.2-.3.5-.3.7 0 .3.1.5.3.7.4.4 1 .4 1.4 0l13.9-13.9c.2-.2.3-.4.3-.7 0-.3-.1-.5-.3-.7-.2-.1-.5-.2-.7-.2zm10.6.8C43.7 25 39 20.3 39 14.5c0-.6 0-1.1.1-1.7.1-.5.6-.9 1.1-.8.5.1.9.6.8 1.1v1.4c0 4.7 3.8 8.5 8.5 8.5.5 0 .9 0 1.3-.1.5-.1 1.1.3 1.1.8s-.3 1.1-.8 1.1c-.5.2-1 .2-1.6.2zM22.9 52h-.2c-.5-.1-.9-.6-.8-1.1.1-.5.1-.9.1-1.4 0-4.7-3.8-8.5-8.5-8.5-.5 0-.9 0-1.3.1-.5.1-1.1-.3-1.1-.8s.3-1.1.8-1.1c.5-.1 1.1-.1 1.7-.1C19.3 39 24 43.7 24 49.5c0 .6 0 1.1-.1 1.7-.1.5-.5.8-1 .8z"/></g></svg>